<svg width="14" height="14" viewBox="0 0 14 14" fill="none" xmlns="http://www.w3.org/2000/svg">
<g opacity="0.6">
<path d="M3.5957 12.9063H1.65957C1.42611 12.9063 1.28526 12.776 1.22209 12.6983C1.11305 12.5641 1.0708 12.3896 1.10627 12.2192C1.67417 9.4914 4.08151 7.49927 6.86062 7.43463C6.90692 7.43635 6.95332 7.4375 6.99999 7.4375C7.04708 7.4375 7.09389 7.43633 7.1406 7.43458C7.82017 7.45008 8.48397 7.57786 9.1158 7.81512C9.39853 7.92135 9.71383 7.77815 9.82001 7.49539C9.92619 7.21266 9.78304 6.89735 9.50028 6.79118C9.40975 6.75716 9.31858 6.72533 9.22698 6.69515C10.1321 6.0162 10.7187 4.9347 10.7187 3.71875C10.7187 1.66824 9.05053 0 6.99999 0C4.94946 0 3.28124 1.66824 3.28124 3.71875C3.28124 4.93579 3.86892 6.01814 4.77539 6.69698C3.94493 6.97036 3.16563 7.3955 2.48363 7.95649C1.23314 8.98508 0.363692 10.4198 0.035485 11.9963C-0.0673822 12.4903 0.0558288 12.9977 0.373536 13.3884C0.68963 13.7771 1.15838 14 1.65957 14H3.5957C3.89774 14 4.14257 13.7552 4.14257 13.4531C4.14257 13.1511 3.89774 12.9063 3.5957 12.9063ZM4.37499 3.71875C4.37499 2.27131 5.55255 1.09375 6.99999 1.09375C8.44744 1.09375 9.625 2.27131 9.625 3.71875C9.625 5.12332 8.5161 6.2737 7.1278 6.34061C7.08523 6.33984 7.04265 6.33919 6.99999 6.33919C6.95723 6.33919 6.91449 6.33982 6.87178 6.34058C5.48367 6.27348 4.37499 5.12318 4.37499 3.71875Z" fill="#324332"/>
<path d="M13.5814 9.42285C13.3473 8.89922 12.82 8.55994 12.2367 8.5586H10.5312C10.53 8.5586 10.5288 8.5586 10.5276 8.5586C9.91234 8.5586 9.37559 8.92118 9.1596 9.48301C9.13086 9.55777 9.09572 9.65194 9.05905 9.76172H5.4785C5.33065 9.76172 5.18912 9.82158 5.08612 9.92764L4.14669 10.8953C3.93978 11.1084 3.94082 11.4477 4.14902 11.6595L5.10605 12.6333C5.20886 12.7379 5.34941 12.7969 5.49608 12.7969H7.27343C7.57546 12.7969 7.8203 12.552 7.8203 12.25C7.8203 11.9479 7.57546 11.7031 7.27343 11.7031H5.72539L5.30353 11.2739L5.70977 10.8555H9.46929C9.72124 10.8555 9.94056 10.6833 10.0005 10.4386C10.0447 10.258 10.1002 10.0843 10.1805 9.87547C10.2334 9.73777 10.3664 9.65235 10.5289 9.65235H12.2354C12.3901 9.6527 12.5232 9.73583 12.5828 9.86924C12.7296 10.1977 12.9049 10.7062 12.9062 11.2634C12.9076 11.8247 12.7324 12.3449 12.5853 12.6824C12.5259 12.8185 12.3917 12.9063 12.2418 12.9063H10.5148C10.3635 12.9059 10.2218 12.8086 10.1622 12.664C10.0983 12.509 10.0428 12.3319 9.99276 12.1227C9.92246 11.829 9.62726 11.6479 9.33364 11.7181C9.03989 11.7884 8.85876 12.0836 8.92906 12.3773C8.99253 12.6425 9.06518 12.8727 9.15112 13.0811C9.38078 13.6379 9.91508 13.9986 10.5136 14H12.2397C12.2408 14 12.2419 14 12.2431 14C12.8269 14 13.3545 13.6546 13.5879 13.1195C13.7769 12.6861 14.0018 12.0118 14 11.2608C13.9982 10.5119 13.7714 9.84794 13.5814 9.42285Z" fill="#324332"/>
<path d="M11.7852 11.8125C12.0872 11.8125 12.332 11.5677 12.332 11.2656C12.332 10.9636 12.0872 10.7188 11.7852 10.7188C11.4831 10.7188 11.2383 10.9636 11.2383 11.2656C11.2383 11.5677 11.4831 11.8125 11.7852 11.8125Z" fill="#324332"/>
</g>
</svg>
