<svg width="14" height="14" viewBox="0 0 14 14" fill="none" xmlns="http://www.w3.org/2000/svg">
<path opacity="0.6" d="M10.985 12.1054C11.1504 12.3581 11.0795 12.697 10.8266 12.8623C9.68952 13.606 8.36741 13.9993 7.00332 14C7.00225 14 7.00107 14 7.00001 14C5.13796 14.0001 3.38786 13.2826 2.07119 11.9795C0.753675 10.6757 0.0182785 8.93157 0.000334162 7.06867C-0.017717 5.19403 0.696104 3.42619 2.0102 2.09062C3.32452 0.754836 5.07997 0.0124969 6.95322 0.000106811C6.9686 0.000106811 6.98431 0 6.99969 0C8.46172 0 9.86576 0.452453 11.0633 1.30994C12.2467 2.15727 13.1283 3.32386 13.6128 4.68357C13.7142 4.96812 13.5657 5.28097 13.2813 5.38233C12.9967 5.4837 12.684 5.33523 12.5825 5.05079C11.7376 2.6799 9.49694 1.09375 6.99905 1.09375C6.98601 1.09375 6.97341 1.09375 6.96038 1.09386C5.38 1.10422 3.89884 1.73067 2.78982 2.85774C1.68112 3.9846 1.07892 5.47633 1.09408 7.0581C1.12506 10.2833 3.7743 12.9062 7.00011 12.9062H7.00278C8.15389 12.9057 9.26922 12.5741 10.2281 11.947C10.4808 11.7816 10.8197 11.8525 10.985 12.1054ZM14 7.57421C14 8.94631 12.8838 10.0625 11.5117 10.0625C10.635 10.0625 9.86277 9.60673 9.41939 8.91961C8.85286 9.63215 7.97893 10.0898 7.00001 10.0898C5.29626 10.0898 3.91017 8.70374 3.91017 6.99999C3.91017 5.29624 5.29626 3.91015 7.00001 3.91015C7.77321 3.91015 8.48095 4.19566 9.02344 4.6667V4.57003C9.02344 4.26808 9.26825 4.02316 9.57032 4.02316C9.87238 4.02316 10.1172 4.26808 10.1172 4.57003V7.57421C10.1172 8.34315 10.7428 8.96874 11.5117 8.96874C12.2807 8.96874 12.9063 8.34315 12.9063 7.57421C12.9063 7.27215 13.1511 7.02734 13.4531 7.02734C13.7552 7.02734 14 7.27215 14 7.57421ZM8.9961 6.99999C8.9961 5.89941 8.1007 5.0039 7.00001 5.0039C5.89942 5.0039 5.00392 5.89941 5.00392 6.99999C5.00392 8.10069 5.89942 8.99609 7.00001 8.99609C8.1007 8.99609 8.9961 8.10069 8.9961 6.99999Z" fill="#324332"/>
</svg>
