<svg width="121" height="124" viewBox="0 0 121 124" fill="none" xmlns="http://www.w3.org/2000/svg">
<mask id="mask0" mask-type="alpha" maskUnits="userSpaceOnUse" x="0" y="0" width="121" height="124">
<rect width="121" height="124" fill="#C4C4C4"/>
</mask>
<g mask="url(#mask0)">
<g opacity="0.1">
<path d="M100.779 54C151.313 54 192.217 94.9662 192.141 145.501C192.064 196.035 151.035 237.001 100.501 237.001C49.9664 237.001 9.06219 196.035 9.13891 145.501C9.21563 94.9662 50.2442 54 100.779 54Z" fill="#FBC000"/>
<path d="M100.734 223.765C143.976 223.765 179.375 188.631 179.375 145.243C179.375 102.067 144.188 66.7216 100.734 66.7216C57.4921 66.7216 22.0931 101.855 22.0931 145.243C22.0931 188.631 57.2801 223.765 100.734 223.765ZM100.734 78.7855C137.405 78.7855 167.293 108.628 167.293 145.243C167.293 181.858 137.405 211.701 100.734 211.701C64.0631 211.701 34.1753 181.858 34.1753 145.243C33.9634 108.628 63.8512 78.7855 100.734 78.7855Z" fill="#FFDF67"/>
</g>
<g opacity="0.1">
<path d="M148.779 -4.00004C199.313 -4.00004 240.217 36.9662 240.141 87.5007C240.064 138.035 199.035 179.001 148.501 179.001C97.9664 179.001 57.0622 138.035 57.1389 87.5007C57.2156 36.9662 98.2442 -4.00004 148.779 -4.00004Z" fill="#FBC000"/>
<path d="M148.734 165.765C191.976 165.765 227.375 130.631 227.375 87.2432C227.375 44.0669 192.188 8.72156 148.734 8.72156C105.492 8.72156 70.0931 43.8552 70.0931 87.2432C70.0931 130.631 105.28 165.765 148.734 165.765ZM148.734 20.7855C185.405 20.7855 215.293 50.628 215.293 87.2432C215.293 123.858 185.405 153.701 148.734 153.701C112.063 153.701 82.1753 123.858 82.1753 87.2432C81.9634 50.628 111.851 20.7855 148.734 20.7855Z" fill="#FFDF67"/>
</g>
</g>
</svg>
