<svg width="121" height="158" viewBox="0 0 121 158" fill="none" xmlns="http://www.w3.org/2000/svg">
<mask id="mask0" mask-type="alpha" maskUnits="userSpaceOnUse" x="0" y="0" width="121" height="158">
<rect width="121" height="158" fill="#C4C4C4"/>
</mask>
<g mask="url(#mask0)">
<g opacity="0.1">
<path d="M93.7787 88C144.313 88 185.217 128.966 185.141 179.501C185.064 230.035 144.035 271.001 93.5009 271.001C42.9664 271.001 2.06219 230.035 2.13891 179.501C2.21563 128.966 43.2442 88 93.7787 88Z" fill="#FBC000"/>
<path d="M93.734 257.765C136.976 257.765 172.375 222.631 172.375 179.243C172.375 136.067 137.188 100.721 93.734 100.721C50.4921 100.721 15.0931 135.855 15.0931 179.243C15.0931 222.631 50.2801 257.765 93.734 257.765ZM93.734 112.785C130.405 112.785 160.293 142.628 160.293 179.243C160.293 215.858 130.405 245.701 93.734 245.701C57.0631 245.701 27.1753 215.858 27.1753 179.243C26.9634 142.628 56.8512 112.785 93.734 112.785Z" fill="#FFDF67"/>
</g>
<g opacity="0.1">
<path d="M148.779 -4.00004C199.313 -4.00004 240.217 36.9662 240.141 87.5007C240.064 138.035 199.035 179.001 148.501 179.001C97.9664 179.001 57.0622 138.035 57.1389 87.5007C57.2156 36.9662 98.2442 -4.00004 148.779 -4.00004Z" fill="#FBC000"/>
<path d="M148.734 165.765C191.976 165.765 227.375 130.631 227.375 87.2431C227.375 44.0668 192.188 8.72144 148.734 8.72144C105.492 8.72144 70.0931 43.8551 70.0931 87.2431C70.0931 130.631 105.28 165.765 148.734 165.765ZM148.734 20.7854C185.405 20.7854 215.293 50.6279 215.293 87.2431C215.293 123.858 185.405 153.701 148.734 153.701C112.063 153.701 82.1753 123.858 82.1753 87.2431C81.9634 50.6279 111.851 20.7854 148.734 20.7854Z" fill="#FFDF67"/>
</g>
</g>
</svg>
