<svg width="30" height="30" viewBox="0 0 30 30" fill="none" xmlns="http://www.w3.org/2000/svg">
<rect width="30" height="30" fill="#74D373"/>
<path d="M12.264 16.864C13.464 15.92 14.416 14.896 15.12 13.792C15.84 12.672 16.2 11.504 16.2 10.288C16.2 9.04 15.696 8.416 14.688 8.416C14.256 8.416 13.912 8.544 13.656 8.8C13.416 9.056 13.296 9.4 13.296 9.832C13.296 10.216 13.376 10.648 13.536 11.128L10.248 11.872C10.008 11.152 9.888 10.456 9.888 9.784C9.888 8.392 10.312 7.304 11.16 6.52C12.008 5.72 13.208 5.32 14.76 5.32C16.36 5.32 17.592 5.744 18.456 6.592C19.32 7.44 19.752 8.648 19.752 10.216C19.752 12.968 18.352 15.424 15.552 17.584V19.936H12.264V16.864ZM12.144 21.52H15.696V25H12.144V21.52Z" fill="#324332"/>
</svg>
