<svg width="136" height="133" viewBox="0 0 136 133" fill="none" xmlns="http://www.w3.org/2000/svg">
<mask id="mask0" mask-type="alpha" maskUnits="userSpaceOnUse" x="0" y="0" width="136" height="133">
<rect y="0.25531" width="136" height="132" fill="#C4C4C4"/>
</mask>
<g mask="url(#mask0)">
<path d="M13.7876 46.5053C0.0977564 32.8363 0.0977672 10.6744 13.7876 -2.99469C27.4774 -16.6637 49.673 -16.6637 63.3628 -2.9947C77.0526 10.6743 77.0526 32.8363 63.3628 46.5053C49.673 60.1744 27.4774 60.1744 13.7876 46.5053Z" fill="#FBC000"/>
<path d="M38.6114 51.7164C55.1653 51.7164 68.7168 38.2665 68.7168 21.6567C68.7168 5.12789 55.2465 -8.40302 38.6114 -8.40302C22.0575 -8.40302 8.50608 5.04687 8.50608 21.6567C8.50608 38.2665 21.9764 51.7164 38.6114 51.7164ZM38.6114 -3.78468C52.6498 -3.78468 64.0915 7.63962 64.0915 21.6567C64.0915 35.6737 52.6498 47.098 38.6114 47.098C24.5731 47.098 13.1314 35.6737 13.1314 21.6567C13.0503 7.63962 24.4919 -3.78468 38.6114 -3.78468Z" fill="#FFDF67"/>
<path d="M58.7876 65.5053C45.0978 51.8363 45.0978 29.6744 58.7876 16.0053C72.4774 2.33626 94.673 2.33625 108.363 16.0053C122.053 29.6743 122.053 51.8363 108.363 65.5053C94.673 79.1744 72.4774 79.1744 58.7876 65.5053Z" fill="#FBC000"/>
<path d="M83.6114 70.7164C100.165 70.7164 113.717 57.2665 113.717 40.6567C113.717 24.1279 100.246 10.597 83.6114 10.597C67.0575 10.597 53.5061 24.0469 53.5061 40.6567C53.5061 57.2665 66.9764 70.7164 83.6114 70.7164ZM83.6114 15.2153C97.6498 15.2153 109.091 26.6396 109.091 40.6567C109.091 54.6737 97.6498 66.098 83.6114 66.098C69.5731 66.098 58.1314 54.6737 58.1314 40.6567C58.0503 26.6396 69.4919 15.2153 83.6114 15.2153Z" fill="#FFDF67"/>
<path d="M43.7876 115.505C30.0978 101.836 30.0978 79.6744 43.7876 66.0053C57.4774 52.3363 79.673 52.3363 93.3628 66.0053C107.053 79.6743 107.053 101.836 93.3628 115.505C79.673 129.174 57.4774 129.174 43.7876 115.505Z" fill="#FBC000"/>
<path d="M68.6114 120.716C85.1653 120.716 98.7168 107.266 98.7168 90.6567C98.7168 74.1279 85.2465 60.597 68.6114 60.597C52.0575 60.597 38.5061 74.0469 38.5061 90.6567C38.5061 107.266 51.9764 120.716 68.6114 120.716ZM68.6114 65.2153C82.6498 65.2153 94.0915 76.6396 94.0915 90.6567C94.0915 104.674 82.6498 116.098 68.6114 116.098C54.5731 116.098 43.1314 104.674 43.1314 90.6567C43.0503 76.6396 54.4919 65.2153 68.6114 65.2153Z" fill="#FFDF67"/>
</g>
</svg>
