<svg width="76" height="77" viewBox="0 0 76 77" fill="none" xmlns="http://www.w3.org/2000/svg">
<path d="M38.0397 76.2414C17.1595 76.2414 0.232811 59.3403 0.232811 38.4918C0.232811 17.6432 17.1595 0.742188 38.0397 0.742188C58.9199 0.742188 75.8467 17.6432 75.8467 38.4918C75.8467 59.3403 58.9199 76.2414 38.0397 76.2414Z" fill="#FBC000"/>
<path d="M38.0392 70.8817C55.8925 70.8817 70.4785 56.3178 70.4785 38.4916C70.4785 20.6654 55.8925 6.10156 38.0392 6.10156C20.186 6.10156 5.59997 20.6654 5.59997 38.4916C5.59997 56.3178 20.186 70.8817 38.0392 70.8817ZM38.0392 10.995C53.2087 10.995 65.5776 23.3452 65.5776 38.4916C65.5776 53.6381 53.2087 65.9883 38.0392 65.9883C22.8698 65.9883 10.5008 53.6381 10.5008 38.4916C10.5008 23.3452 22.8698 10.995 38.0392 10.995Z" fill="#FFDF67"/>
</svg>
