<svg width="110" height="110" viewBox="0 0 110 110" fill="none" xmlns="http://www.w3.org/2000/svg">
<path d="M27.4517 82.229C12.2907 67.0911 12.2907 42.5476 27.4517 27.4097C42.6126 12.2717 67.1934 12.2717 82.3543 27.4097C97.5153 42.5476 97.5153 67.0911 82.3543 82.229C67.1934 97.367 42.6126 97.367 27.4517 82.229Z" fill="#FBC000"/>
<path d="M54.9026 88.0733C73.2354 88.0733 88.2432 73.1781 88.2432 54.7834C88.2432 36.4784 73.3253 21.4934 54.9026 21.4934C36.4799 21.4934 21.5621 36.3886 21.5621 54.7834C21.5621 73.1781 36.4799 88.0733 54.9026 88.0733ZM54.9026 26.608C70.4496 26.608 83.1208 39.26 83.1208 54.7834C83.1208 70.3067 70.4496 82.9587 54.9026 82.9587C39.3557 82.9587 26.6845 70.3067 26.6845 54.7834C26.5946 39.26 39.2658 26.608 54.9026 26.608Z" fill="#FFDF67"/>
<path d="M59.0362 29.5693H62.6309V40.7856H59.0362V29.5693Z" fill="#FFDF67"/>
<path d="M48.6114 29.5693H52.2061V40.7856H48.6114V29.5693Z" fill="#FFDF67"/>
<path d="M59.0362 68.1533H62.6309V79.3696H59.0362V68.1533Z" fill="#FFDF67"/>
<path d="M48.6114 68.1533H52.2061V79.3696H48.6114V68.1533Z" fill="#FFDF67"/>
</svg>
