<svg width="79" height="79" viewBox="0 0 79 79" fill="none" xmlns="http://www.w3.org/2000/svg">
<path d="M20.3699 58.6489C9.61561 47.9109 9.61562 30.5012 20.3699 19.7632C31.1242 9.02521 48.5604 9.0252 59.3147 19.7632C70.069 30.5012 70.069 47.9109 59.3147 58.6489C48.5604 69.3869 31.1242 69.3869 20.3699 58.6489Z" fill="#FBC000"/>
<path d="M39.8016 62.8865C52.8706 62.8865 63.4893 52.284 63.4893 39.2348C63.4893 26.1855 52.8706 15.583 39.8016 15.583C26.7325 15.583 16.1139 26.1855 16.1139 39.2348C16.2306 52.284 26.8492 62.8865 39.8016 62.8865ZM39.8016 19.1949C50.8869 19.1949 59.8719 28.1662 59.8719 39.2348C59.8719 50.3033 50.8869 59.2747 39.8016 59.2747C28.7162 59.2747 19.7312 50.3033 19.7312 39.2348C19.8479 28.1662 28.8329 19.1949 39.8016 19.1949Z" fill="#FFDF67"/>
</svg>
