<svg width="114" height="113" viewBox="0 0 114 113" fill="none" xmlns="http://www.w3.org/2000/svg">
<path d="M28.9891 84.4977C13.4099 68.9421 13.4099 43.7215 28.9892 28.1659C44.5684 12.6103 69.8273 12.6103 85.4065 28.1659C100.986 43.7215 100.986 68.9421 85.4065 84.4977C69.8273 100.053 44.5684 100.053 28.9891 84.4977Z" fill="#FBC000"/>
<path d="M57.1389 90.6366C76.0714 90.6366 91.4541 75.2772 91.4541 56.3735C91.4541 37.4697 76.0714 22.1104 57.1389 22.1104C38.2064 22.1104 22.8238 37.4697 22.8238 56.3735C22.9928 75.2772 38.3755 90.6366 57.1389 90.6366ZM57.1389 27.3426C73.1978 27.3426 86.2138 40.339 86.2138 56.3735C86.2138 72.4079 73.1978 85.4043 57.1389 85.4043C41.0801 85.4043 28.064 72.4079 28.064 56.3735C28.2331 40.339 41.2491 27.3426 57.1389 27.3426Z" fill="#FFDF67"/>
</svg>
