<svg width="78" height="78" viewBox="0 0 78 78" fill="none" xmlns="http://www.w3.org/2000/svg">
<path d="M20.1264 58.5937C9.47212 47.9557 9.47212 30.7079 20.1264 20.0698C30.7806 9.43176 48.0545 9.43176 58.7088 20.0698C69.363 30.7079 69.363 47.9557 58.7088 58.5937C48.0545 69.2318 30.7806 69.2318 20.1264 58.5937Z" fill="#FBC000"/>
<path d="M39.3774 62.7918C52.3249 62.7918 62.8447 52.288 62.8447 39.3601C62.8447 26.4323 52.3249 15.9285 39.3774 15.9285C26.43 15.9285 15.9102 26.4323 15.9102 39.3601C16.0258 52.288 26.5456 62.7918 39.3774 62.7918ZM39.3774 19.5067C50.3597 19.5067 59.261 28.3946 59.261 39.3601C59.261 50.3257 50.3597 59.2136 39.3774 59.2136C28.3952 59.2136 19.4938 50.3257 19.4938 39.3601C19.6094 28.3946 28.5108 19.5067 39.3774 19.5067Z" fill="#FFDF67"/>
</svg>
