<svg width="83" height="83" viewBox="0 0 83 83" fill="none" xmlns="http://www.w3.org/2000/svg">
<path d="M20.645 61.8391C9.2434 50.4548 9.24341 31.9973 20.645 20.613C32.0466 9.22873 50.5322 9.22872 61.9337 20.613C73.3353 31.9973 73.3353 50.4549 61.9337 61.8391C50.5322 73.2234 32.0466 73.2234 20.645 61.8391Z" fill="#FBC000"/>
<path d="M41.3193 66.1791C55.1062 66.1791 66.3926 54.9774 66.3926 41.1439C66.3926 27.3779 55.1738 16.1086 41.3193 16.1086C27.5324 16.1086 16.246 27.3104 16.246 41.1439C16.246 54.9774 27.4648 66.1791 41.3193 66.1791ZM41.3193 19.955C53.0111 19.955 62.5404 29.4698 62.5404 41.1439C62.5404 52.818 53.0111 62.3327 41.3193 62.3327C29.6274 62.3327 20.0982 52.818 20.0982 41.1439C20.0307 29.4698 29.5599 19.955 41.3193 19.955Z" fill="#FFDF67"/>
</svg>
