<svg width="193" height="88" viewBox="0 0 193 88" fill="none" xmlns="http://www.w3.org/2000/svg">
<path d="M20.9488 80.7419H132.64L119.5 6.99068C118.902 3.41245 115.717 0.629395 111.934 0.629395H6.81319L20.9488 80.7419Z" fill="#36790D"/>
<path d="M80.8755 72.3931H192.566C192.566 77.164 188.784 80.9411 184.005 80.9411H80.8755V72.3931V72.3931Z" fill="#36790D"/>
<path d="M21.9459 80.7419H126.071L111.737 0.629395H5.22215C2.63395 0.629395 0.443918 3.01488 1.0412 5.59916L13.1859 73.3867C13.7831 77.7601 17.5659 80.7419 21.9459 80.7419Z" fill="#74D373"/>
<path d="M51.0124 40.3876C52.0079 45.5562 57.1843 49.9296 62.1616 49.9296C67.338 49.9296 70.5235 45.755 69.7271 40.3876C68.7316 35.2191 63.7543 30.8457 58.5779 30.8457C53.2024 30.8457 50.017 35.0203 51.0124 40.3876Z" fill="#36790D"/>
<path d="M68.9298 87.5008C69.328 87.5008 69.7262 87.5007 70.1243 87.302C73.708 86.5068 76.2962 83.1274 75.4998 79.3503L74.1062 72.3927C73.3098 68.8144 69.9253 66.2302 66.1425 67.0253C62.5588 67.8205 59.9706 71.1999 60.767 74.9769L62.1607 81.9346C62.957 85.3141 65.7443 87.5008 68.9298 87.5008Z" fill="#F5CA97"/>
</svg>
