<svg width="228" height="493" viewBox="0 0 228 493" fill="none" xmlns="http://www.w3.org/2000/svg">
<path d="M114.124 207.537C130.649 196.206 162.504 169.965 163.897 168.972L152.947 155.653C152.549 155.851 120.296 182.489 104.369 193.423L114.124 207.537Z" fill="#0D0F0D"/>
<path d="M149.562 449.664H163.697V477.296H149.562V449.664Z" fill="#5ECE32"/>
<g opacity="0.25">
<path opacity="0.25" d="M149.562 440.122H163.697V467.754H149.562V440.122Z" fill="black"/>
</g>
<path d="M145.183 257.632H168.277V464.374H145.183V257.632Z" fill="#0D0F0D"/>
<path d="M116.712 493C116.911 489.621 118.305 479.482 126.467 479.482L140.006 479.283L142.793 470.537C143.39 468.748 144.784 467.555 146.177 467.555H148.368C148.965 467.555 149.164 467.754 149.164 468.35C149.562 472.922 149.96 475.109 152.748 475.109L163.897 474.91C168.476 474.91 168.078 477.296 168.277 480.277C168.277 480.277 168.476 490.416 168.277 492.801H116.712V493Z" fill="#0D0F0D"/>
<path d="M141.798 225.031H219.245C220.638 225.031 221.833 223.838 221.833 222.446V119.473C221.833 104.365 209.489 92.0398 194.358 92.0398H167.282C151.752 92.0398 139.409 104.564 139.409 119.87V222.446C139.21 223.838 140.404 225.031 141.798 225.031Z" fill="#74D373"/>
<path d="M160.116 186.068H188.586V232.187H160.116V186.068Z" fill="#0D0F0D"/>
<path d="M221.633 265.186H149.76C143.987 265.186 139.208 260.415 139.208 254.651V230.199H221.633V265.186Z" fill="#0D0F0D"/>
<path d="M139.208 227.615H221.633V238.946H139.208V227.615Z" fill="#0D0F0D"/>
<path d="M177.038 99.1963H178.233C183.409 99.1963 187.59 95.0217 187.59 89.8531V74.5463C187.59 69.3777 183.409 65.2031 178.233 65.2031H177.038C171.862 65.2031 167.681 69.3777 167.681 74.5463V89.8531C167.681 95.0217 171.862 99.1963 177.038 99.1963Z" fill="#F5CA97"/>
<path d="M203.118 449.664H217.254V477.296H203.118V449.664Z" fill="#5ECE32"/>
<g opacity="0.25">
<path opacity="0.25" d="M203.118 440.122H217.254V467.754H203.118V440.122Z" fill="black"/>
</g>
<path d="M198.538 257.632H221.633V464.374H198.538V257.632Z" fill="#0D0F0D"/>
<path d="M170.069 493C170.268 489.62 171.662 479.482 179.825 479.482L193.363 479.283L196.15 470.536C196.748 468.747 198.141 467.555 199.535 467.555H201.725C202.322 467.555 202.521 467.753 202.521 468.35C202.919 472.922 203.318 475.109 206.105 475.109L217.254 474.91C221.833 474.91 221.435 477.295 221.634 480.277C221.634 480.277 221.833 490.415 221.634 492.801H170.069V493Z" fill="#0D0F0D"/>
<path d="M167.879 108.937H175.445L177.236 178.116H165.291L167.879 108.937Z" fill="#31522D"/>
<path d="M179.426 97.407L175.643 109.136H167.679L163.897 97.407H179.426Z" fill="#294825"/>
<path d="M161.907 182.092L194.956 91.8408C227.608 91.8408 225.418 103.967 225.418 118.876V232.187H172.26L161.907 182.092Z" fill="#222222"/>
<path d="M162.902 92.2385C135.826 92.2385 139.21 105.16 139.21 118.876V232.187H166.088C165.889 232.187 163.898 92.2385 162.902 92.2385Z" fill="#222222"/>
<path d="M157.725 65.2033H156.729C149.761 65.2033 144.186 59.6372 144.186 52.6795V16.1021H157.924V65.2033H157.725Z" fill="#0D0D26"/>
<path d="M151.157 36.7766H148.569C144.587 36.7766 141.402 39.9573 141.402 43.9331V47.3125C141.402 51.2883 144.587 54.469 148.569 54.469H151.157V36.7766Z" fill="#F5CA97"/>
<path d="M186.794 65.203H187.789C194.757 65.203 200.332 59.6369 200.332 52.6792V16.1018H186.595V65.203H186.794Z" fill="#0D0F0D"/>
<path d="M171.463 2.58477C185.599 2.58477 196.947 14.1146 196.947 28.03V56.8546C196.947 70.9687 185.599 82.2997 171.463 82.2997H155.536C150.161 82.2997 145.98 77.9264 145.98 72.7578V13.5182C145.98 -0.397083 157.328 2.58477 171.463 2.58477Z" fill="#FFE8CD"/>
<path d="M157.528 42.3423C157.528 43.7339 156.334 44.9266 154.94 44.9266C153.546 44.9266 152.352 43.7339 152.352 42.3423C152.352 40.9508 153.546 39.7581 154.94 39.7581C156.533 39.7581 157.528 40.9508 157.528 42.3423Z" fill="#0D0F0D"/>
<path d="M177.636 42.3426C177.636 43.7341 176.441 44.9269 175.048 44.9269C173.654 44.9269 172.459 43.7341 172.459 42.3426C172.459 40.951 173.654 39.7583 175.048 39.7583C176.441 39.7583 177.636 40.951 177.636 42.3426Z" fill="#0D0F0D"/>
<path d="M170.268 29.0237H179.824C180.421 29.0237 181.019 28.4273 181.019 27.8309C181.019 27.2346 180.421 26.6382 179.824 26.6382H170.268C169.67 26.6382 169.073 27.2346 169.073 27.8309C169.073 28.6261 169.471 29.0237 170.268 29.0237Z" fill="#0D0F0D"/>
<path d="M150.357 33.7944H159.914C160.511 33.7944 161.108 33.198 161.108 32.6017C161.108 32.0053 160.511 31.4089 159.914 31.4089H150.357C149.76 31.4089 149.163 32.0053 149.163 32.6017C149.163 33.198 149.76 33.7944 150.357 33.7944Z" fill="#0D0F0D"/>
<path d="M179.426 53.0771C178.231 57.8481 172.258 62.4203 165.29 62.4203C158.322 62.4203 152.349 57.6493 151.155 53.0771H179.426Z" fill="#EFF4DF"/>
<path d="M163.896 51.2882C164.493 51.2882 164.891 51.2882 165.09 51.2882C165.488 51.2882 165.688 50.8907 165.688 50.4931C165.688 50.0955 165.289 49.8967 164.891 49.8967C164.294 49.8967 162.303 50.0955 161.507 49.3003C161.108 49.1015 161.108 48.704 161.108 48.1076C161.108 44.5294 164.493 42.7402 164.493 42.7402C164.891 42.5415 164.891 42.1439 164.692 41.9451C164.493 41.5475 164.095 41.5475 163.896 41.7463C163.697 41.7463 159.914 43.933 159.914 48.3064C159.914 49.1015 160.312 49.8967 160.909 50.2943C161.507 51.0895 162.9 51.2882 163.896 51.2882Z" fill="#F5CA97"/>
<path d="M195.951 36.7766H198.54C202.522 36.7766 205.707 39.9573 205.707 43.9331V47.3125C205.707 51.2883 202.522 54.469 198.54 54.469H195.951V36.7766Z" fill="#FFE8CD"/>
<path d="M184.006 0C192.966 0 200.332 7.35525 200.332 16.3008C200.332 18.2887 198.938 19.879 197.147 20.0778V38.5653C197.147 40.752 195.355 42.5412 193.165 42.5412C190.975 42.5412 189.183 40.752 189.183 38.5653V16.8972L184.006 0Z" fill="#0D0F0D"/>
<path d="M163.699 0H186.197C194.16 0 200.531 6.3613 200.531 14.3129V25.2464H179.627C170.866 25.2464 163.699 18.0899 163.699 9.34315V0Z" fill="#0D0F0D"/>
<path d="M157.725 0H164.295V9.34315C164.295 18.0899 157.128 25.2464 148.368 25.2464H143.987V13.5177C144.187 5.96371 150.159 0 157.725 0Z" fill="#0D0F0D"/>
<path d="M177.634 112.913L197.146 91.8411L187.788 82.8955L171.662 97.4072L177.634 112.913Z" fill="#36790D"/>
<path d="M164.891 112.913L171.66 97.6058L167.877 85.2808L162.9 91.6421L164.891 112.913Z" fill="#36790D"/>
<path d="M164.893 187.26C164.893 188.85 166.088 190.043 167.68 190.043C169.273 190.043 170.468 188.85 170.468 187.26C170.468 185.67 169.273 184.477 167.68 184.477C166.287 184.477 164.893 185.67 164.893 187.26Z" fill="#0D0D26"/>
<path d="M195.155 89.8528C198.738 92.0395 201.127 96.0153 201.526 100.19L201.924 104.563L196.947 107.346L200.53 114.304L165.092 173.742L195.155 89.8528Z" fill="#0D0F0D"/>
<path d="M156.929 108.142L153.744 103.768L155.137 99.7924C156.531 95.8166 159.318 92.8348 162.902 91.8408L165.291 178.116L152.35 113.509L156.929 108.142Z" fill="#0D0F0D"/>
<path d="M146.177 198.79C153.345 198.79 160.711 198.393 167.878 197.796C171.661 197.399 174.249 194.218 173.851 190.441C173.453 186.664 170.268 184.08 166.485 184.477C152.15 185.869 136.422 185.67 123.481 184.08C119.698 183.682 116.314 186.266 115.915 189.845C115.517 193.622 118.105 197.001 121.689 197.399C129.255 198.393 137.616 198.79 146.177 198.79Z" fill="#F5CA97"/>
<path d="M217.054 131.201C217.85 131.201 218.647 131.003 219.642 130.804C224.221 129.412 226.809 124.641 225.416 120.069L221.633 107.744C220.239 103.172 215.461 100.588 210.882 101.979C206.303 103.371 203.715 108.142 205.108 112.714L208.891 125.039C209.886 128.816 213.271 131.201 217.054 131.201Z" fill="#0D0F0D"/>
<path d="M145.381 198.79C147.372 198.79 149.362 198.79 151.154 198.591L150.756 185.273C145.978 185.471 141.2 185.471 136.621 185.074L135.824 198.393C139.01 198.591 142.195 198.79 145.381 198.79Z" fill="white"/>
<path d="M149.164 201.375C167.679 201.375 200.53 199.585 217.652 176.923C229.398 161.418 231.19 139.352 222.629 111.323L206.104 116.292C212.873 138.756 212.077 155.653 203.715 166.586C189.978 184.676 157.526 184.279 143.589 184.08C142.395 184.08 141.399 184.08 140.404 184.08V201.375C141.399 201.375 142.395 201.375 143.39 201.375C145.182 201.375 147.173 201.375 149.164 201.375Z" fill="#0D0F0D"/>
<path d="M68.9298 213.501C69.328 213.501 69.7262 213.501 70.1243 213.302C73.708 212.507 76.2962 209.127 75.4998 205.35L74.1062 198.393C73.3098 194.814 69.9253 192.23 66.1425 193.025C62.5588 193.82 59.9706 197.2 60.767 200.977L62.1607 207.935C62.957 211.314 65.7443 213.501 68.9298 213.501Z" fill="#F5CA97"/>
</svg>
