<svg width="62" height="61" viewBox="0 0 62 61" fill="none" xmlns="http://www.w3.org/2000/svg">
<path d="M40.039 50.4163C38.0195 51.3893 35.8879 52.0397 33.6691 52.3577V60.8305C36.6791 60.5222 39.5946 59.7423 42.3817 58.5612C40.8836 56.608 39.982 54.1759 39.982 51.5306C39.982 51.154 40.0031 50.7826 40.039 50.4163Z" fill="#324332"/>
<path d="M50.4404 40.0133C50.8077 39.9779 51.1792 39.9568 51.5557 39.9568C54.201 39.9568 56.6336 40.8585 58.5844 42.3566C59.767 39.5684 60.5453 36.6539 60.8546 33.6439H52.3819C52.0649 35.8617 51.414 37.9933 50.4404 40.0133Z" fill="#324332"/>
<path d="M51.5557 42.0611C46.335 42.0611 42.0863 46.3088 42.0863 51.5306C42.0863 56.7523 46.335 61 51.5557 61C56.7765 61 61.0252 56.7523 61.0252 51.5306C61.0252 46.3088 56.7765 42.0611 51.5557 42.0611ZM51.5557 50.4784C53.2958 50.4784 54.7122 51.8943 54.7122 53.6349C54.7122 55.0045 53.8296 56.162 52.6079 56.5977V58.8957H50.5036V56.5977C49.2819 56.162 48.3993 55.0045 48.3993 53.6349H50.5036C50.5036 54.2154 50.9762 54.687 51.5557 54.687C52.1353 54.687 52.6079 54.2154 52.6079 53.6349C52.6079 53.0538 52.1353 52.5827 51.5557 52.5827C49.8157 52.5827 48.3993 51.1663 48.3993 49.4263C48.3993 48.0561 49.2819 46.8991 50.5036 46.4635V44.1655H52.6079V46.4635C53.8296 46.8991 54.7122 48.0561 54.7122 49.4263H52.6079C52.6079 48.8452 52.1353 48.3741 51.5557 48.3741C50.9762 48.3741 50.5036 48.8452 50.5036 49.4263C50.5036 50.0068 50.9762 50.4784 51.5557 50.4784Z" fill="#324332"/>
<path d="M52.3819 27.3309H60.8546C59.3015 12.2503 46.7347 0.520942 31.5647 0V8.44038C42.1767 8.93512 50.8879 16.8155 52.3819 27.3309Z" fill="#324332"/>
<path d="M8.41726 30.4874C8.41726 18.6589 17.767 9.00037 29.4604 8.44552V0.0010275C13.1217 0.558445 0 14.0156 0 30.4874C0 46.1264 11.9262 59.243 27.3561 60.8294V52.3577C16.4934 50.8129 8.41726 41.5741 8.41726 30.4874Z" fill="#324332"/>
<path d="M14 35.7482H11.5737V41.5H49.4514V35.7482H46.821V18.9137H36V35.7482H33V23.1223H25V35.7482H21.5V27.3309H14V35.7482Z" fill="#324332"/>
<path d="M26.4604 18.2385H31.5647V21.1906H26.4604V18.2385Z" fill="#324332"/>
<path d="M26.4604 13.1906H31.5647V16.5H26.4604V13.1906Z" fill="#324332"/>
<path d="M15.3957 23.2385H20.5V26.1906H15.3957V23.2385Z" fill="#324332"/>
<path d="M15.3957 18.1906H20.5V21.5H15.3957V18.1906Z" fill="#324332"/>
</svg>
