<svg width="54" height="61" viewBox="0 0 54 61" fill="none" xmlns="http://www.w3.org/2000/svg">
<path d="M26.3953 33.4542C25.761 33.4542 25.2448 33.9703 25.2448 34.6047C25.2448 35.239 25.761 35.7551 26.3953 35.7551C27.0301 35.7551 27.5457 35.239 27.5457 34.6047C27.5457 33.9703 27.0301 33.4542 26.3953 33.4542Z" fill="#324332"/>
<path d="M48.5103 15.0094L50.9177 17.4169L53.4453 14.8898L46.1028 7.54774L43.5757 10.0748L45.9832 12.4823L43.7493 14.7162C40.6284 11.9848 36.9652 10.059 33.015 9.04305V3.57422H36.4221V0H16.3688V3.57422H19.7759V9.04305C15.2588 10.2047 11.1159 12.5554 7.73111 15.9402C2.74582 20.9259 0 27.5541 0 34.6048C0 41.6555 2.74582 48.2836 7.73111 53.2689C12.7164 58.2546 19.345 61 26.3952 61C33.4459 61 40.0741 58.2546 45.0598 53.2689C50.0451 48.2836 52.7909 41.6555 52.7909 34.6048C52.7909 28.1516 50.4896 22.0531 46.2768 17.2428L48.5103 15.0094ZM26.3952 53.5314C15.9593 53.5314 7.46863 45.0407 7.46863 34.6048C7.46863 24.1688 15.9593 15.6782 26.3952 15.6782C36.8317 15.6782 45.3218 24.1688 45.3218 34.6048C45.3218 45.0407 36.8317 53.5314 26.3952 53.5314Z" fill="#324332"/>
<path d="M41.6434 32.8177C40.8233 25.7777 35.2223 20.1767 28.1823 19.3567V22.9681H24.6085V19.3567C17.5681 20.1767 11.967 25.7777 11.1475 32.8177H14.7585V36.3919H11.1475C11.967 43.432 17.5681 49.033 24.6085 49.853V46.2415H28.1823V49.853C35.2223 49.033 40.8233 43.432 41.6434 36.3919H38.0324V32.8177H41.6434ZM26.3952 39.3295C23.7904 39.3295 21.671 37.2101 21.671 34.6048C21.671 33.9719 21.7971 33.3678 22.0237 32.8154L16.742 27.5332L19.2691 25.0061L24.5285 30.2655C25.1014 30.0179 25.7325 29.8802 26.3952 29.8802C29.0005 29.8802 31.1199 31.9996 31.1199 34.6048C31.1199 37.2096 29.0005 39.3295 26.3952 39.3295Z" fill="#324332"/>
</svg>
