<svg width="61" height="61" viewBox="0 0 61 61" fill="none" xmlns="http://www.w3.org/2000/svg">
<path d="M50.7858 7.67173C45.8063 3.24218 39.3699 0.412162 32.2972 0V6.93487C37.4648 7.32427 42.1735 9.38388 45.8842 12.5733L50.7858 7.67173Z" fill="#324332"/>
<path d="M54.0651 28.7028H61C60.5878 21.6301 57.7578 15.1937 53.3283 10.2142L48.4267 15.1158C51.6161 18.8265 53.6757 23.5352 54.0651 28.7028Z" fill="#324332"/>
<path d="M6.93487 32.2972H0C0.412162 39.3699 3.24218 45.8063 7.67173 50.7858L12.5733 45.8842C9.38388 42.1735 7.32427 37.4648 6.93487 32.2972Z" fill="#324332"/>
<path d="M12.5733 15.1158L7.67173 10.2142C3.24218 15.1937 0.412162 21.6301 0 28.7028H6.93487C7.32427 23.5352 9.38388 18.8265 12.5733 15.1158Z" fill="#324332"/>
<path d="M28.7028 6.93487V0C21.6301 0.412162 15.1937 3.24218 10.2142 7.67173L15.1158 12.5733C18.8265 9.38388 23.5352 7.32427 28.7028 6.93487Z" fill="#324332"/>
<path d="M10.2142 53.3283C15.1937 57.7578 21.6301 60.5878 28.7028 61V54.0651C23.5352 53.6757 18.8265 51.6161 15.1158 48.4267L10.2142 53.3283Z" fill="#324332"/>
<path d="M32.2972 54.0651V61C39.3699 60.5878 45.8063 57.7578 50.7858 53.3283L45.8842 48.4267C42.1735 51.6161 37.4648 53.6757 32.2972 54.0651Z" fill="#324332"/>
<path d="M48.4267 45.8842L53.3283 50.7858C57.7578 45.8063 60.5878 39.3699 61 32.2972H54.0651C53.6757 37.4648 51.6161 42.1735 48.4267 45.8842Z" fill="#324332"/>
<path d="M50.539 30.5C50.539 19.4507 41.5493 10.461 30.5 10.461C19.4507 10.461 10.461 19.4507 10.461 30.5C10.461 41.5493 19.4507 50.539 30.5 50.539C41.5493 50.539 50.539 41.5493 50.539 30.5ZM32.8556 40.7537H32.2972V43.059C32.2972 44.0522 31.4921 44.8562 30.5 44.8562C29.5079 44.8562 28.7028 44.0522 28.7028 43.059V40.7537L27.8809 40.7178C25.8093 40.7022 23.8623 39.7808 22.5359 38.1897C21.9009 37.4277 22.004 36.2942 22.7672 35.6592C23.5149 35.0351 24.6448 35.112 25.2977 35.8893C25.9446 36.6657 26.896 37.1521 27.9072 37.1593H32.8364C34.1922 37.1617 35.2854 36.0816 35.2854 34.7283C35.2854 33.3875 34.1951 32.2972 32.8544 32.2972C31.1145 32.2972 29.9831 32.2972 28.1456 32.2972C24.8232 32.2972 22.1202 29.5942 22.1202 26.2717C22.1202 22.9481 24.8113 20.2263 28.19 20.2463H28.7028V17.941C28.7028 16.9478 29.5079 16.1438 30.5 16.1438C31.4921 16.1438 32.2972 16.9478 32.2972 17.941V20.2463H32.7082C35.2274 20.264 37.4516 21.6664 38.5971 23.5567C39.1314 24.3931 38.887 25.5037 38.0495 26.0381C37.2656 26.5382 36.1507 26.3936 35.5442 25.4534C34.9176 24.4733 33.8464 23.8826 32.6818 23.8731H28.1636C26.8339 23.8584 25.7146 24.9031 25.7146 26.2717C25.7146 27.6125 26.8049 28.7028 28.1456 28.7028H32.8544C36.1768 28.7028 38.8798 31.4058 38.8798 34.7283C38.8798 38.0556 36.19 40.7537 32.8556 40.7537Z" fill="#324332"/>
</svg>
