<svg width="63" height="60" viewBox="0 0 63 60" fill="none" xmlns="http://www.w3.org/2000/svg">
<path d="M61.0425 26.9735C59.1893 26.0088 56.9601 26.1176 55.2095 27.2581L34.7702 40.5748C32.7793 41.8719 30.2105 41.8719 28.2196 40.5748L7.78029 27.2581C6.02978 26.1176 3.80056 26.0088 1.94732 26.9735C0.636057 27.656 0.547755 29.499 1.78776 30.3038L28.2285 47.4639C30.2152 48.7533 32.7746 48.7533 34.7613 47.4639L61.2021 30.3038C62.4421 29.499 62.3538 27.656 61.0425 26.9735Z" fill="#324332"/>
<path d="M61.0426 38.3896C59.1893 37.4249 56.96 37.5337 55.2095 38.6742L34.7702 51.991C32.7793 53.2881 30.2105 53.2881 28.2196 51.991L7.78037 38.6742C6.02982 37.5337 3.80053 37.4249 1.94725 38.3896C0.636009 39.0722 0.547724 40.9152 1.78772 41.72L28.2285 58.8801C30.2152 60.1695 32.7746 60.1695 34.7613 58.8801L61.2021 41.72C62.4421 40.9152 62.3538 39.0722 61.0426 38.3896Z" fill="#324332"/>
<path d="M21.5579 8.45266C19.7834 7.3541 17.5587 7.28126 15.7161 8.26138C14.3995 8.9617 14.3201 10.8189 15.5721 11.6291L18.873 13.7648C20.7256 14.9635 23.1008 14.9962 24.9857 13.8489C26.2071 13.1055 26.2137 11.3349 24.9981 10.5823L21.5579 8.45266Z" fill="#324332"/>
<path d="M25.0029 22.264C23.0696 21.013 20.5908 20.9789 18.6238 22.1763L15.2953 24.2023C14.038 24.9676 14.0102 26.7829 15.2434 27.5864L15.7109 27.891C17.6961 29.1845 20.2567 29.1886 22.246 27.9013L25.3855 25.8698C26.6035 25.0816 26.6035 23.2996 25.3855 22.5115L25.0029 22.264Z" fill="#324332"/>
<path d="M34.3929 16.3981C32.4839 15.2164 30.0729 15.2073 28.1551 16.3747C26.9035 17.1365 26.8786 18.9447 28.1087 19.7407L28.2927 19.8597C30.2342 21.116 32.7323 21.116 34.6738 19.8596C35.8802 19.079 35.8625 17.3079 34.6407 16.5515L34.3929 16.3981Z" fill="#324332"/>
<path d="M44.0796 22.3948C42.1078 21.1742 39.6092 21.1992 37.6622 22.459L37.5811 22.5114C36.3631 23.2995 36.3631 25.0816 37.5811 25.8697L40.7214 27.9016C42.7106 29.1887 45.271 29.1846 47.2562 27.8912L47.3963 27.7999C48.624 26.9999 48.6031 25.1949 47.3572 24.4236L44.0796 22.3948Z" fill="#324332"/>
<path d="M47.1871 8.22736C45.319 7.23368 43.0652 7.29898 41.2578 8.39917L37.6546 10.5923C36.4057 11.3525 36.3989 13.1632 37.642 13.9327C39.5743 15.1289 42.0228 15.1044 43.9307 13.8699L47.3342 11.6677C48.6132 10.8401 48.5321 8.94277 47.1871 8.22736Z" fill="#324332"/>
<path d="M34.7428 28.566C32.7593 27.2826 30.2072 27.2827 28.2238 28.5661L25.0518 30.6187C23.8361 31.4053 23.8333 33.183 25.0465 33.9735L28.2083 36.0336C30.1993 37.3308 32.7682 37.3308 34.7592 36.0336L37.9207 33.9736C39.1339 33.1832 39.1311 31.4054 37.9153 30.6188L34.7428 28.566Z" fill="#324332"/>
<path d="M11.8803 13.7731C10.0614 12.5962 7.74931 12.4912 5.83125 13.4984L2.03872 15.49C0.681942 16.2025 0.597686 18.1135 1.8865 18.9427L5.88994 21.5182C7.82178 22.761 10.2936 22.7918 12.2558 21.5974L15.5715 19.5792C16.8312 18.8125 16.8562 16.9927 15.6181 16.1917L11.8803 13.7731Z" fill="#324332"/>
<path d="M34.2422 1.42774C32.5123 0.532345 30.4553 0.532497 28.7255 1.42814L25.7119 2.98847C24.3328 3.70257 24.2583 5.64757 25.5788 6.46505L28.1671 8.06736C30.0884 9.25673 32.5149 9.26583 34.445 8.09092L37.2294 6.39601C38.5619 5.58491 38.4942 3.62847 37.1088 2.91144L34.2422 1.42774Z" fill="#324332"/>
<path d="M57.1354 13.4979C55.2173 12.4907 52.9052 12.5957 51.0863 13.7726L47.0392 16.3914C45.8067 17.1889 45.8247 18.9983 47.073 19.771L50.3372 21.7918C52.3045 23.0097 54.7969 22.9879 56.7426 21.7356L61.082 18.9428C62.3705 18.1135 62.2861 16.2027 60.9295 15.4903L57.1354 13.4979Z" fill="#324332"/>
</svg>
