<svg width="61" height="61" viewBox="0 0 61 61" fill="none" xmlns="http://www.w3.org/2000/svg">
<path d="M54.658 6.34179C50.568 2.25293 45.1316 0 39.3474 0C33.5644 0 28.1269 2.25293 24.038 6.34179C24.0166 6.36324 23.9952 6.3848 23.9739 6.40637L0.523439 29.8566C-0.17448 30.5545 -0.17448 31.686 0.523439 32.3839C0.872399 32.7329 1.32978 32.9074 1.78703 32.9074C2.24429 32.9074 2.70179 32.733 3.05063 32.3839L18.147 17.2875C17.5406 20.2562 17.5598 23.3285 18.2047 26.2906L11.9614 32.5339C11.2635 33.2318 11.2635 34.3633 11.9614 35.0612C12.3104 35.4102 12.7678 35.5847 13.225 35.5847C13.6823 35.5847 14.1398 35.4103 14.4886 35.0612L19.4229 30.1269C20.2548 32.0896 21.389 33.9534 22.8258 35.6468L0.593136 57.8796C-0.104783 58.5775 -0.104783 59.709 0.593136 60.4069C0.942095 60.7559 1.39947 60.9304 1.85673 60.9304C2.31399 60.9304 2.77148 60.756 3.12032 60.4069L25.3527 38.1747C26.9885 39.5651 28.7996 40.6905 30.7332 41.529L29.8332 42.4291C29.1353 43.1271 29.1353 44.2585 29.8332 44.9564C30.1821 45.3054 30.6395 45.4798 31.0968 45.4798C31.554 45.4798 32.0115 45.3054 32.3604 44.9563L34.5445 42.7721C36.1026 43.1232 37.7112 43.3036 39.3473 43.3036C40.8251 43.3036 42.2802 43.1566 43.6959 42.8695L28.6162 57.9492C27.9182 58.6471 27.9182 59.7786 28.6162 60.4765C28.9651 60.8255 29.4225 61 29.8798 61C30.337 61 30.7945 60.8256 31.1434 60.4765L54.6577 36.9622C54.6639 36.956 54.6699 36.9498 54.676 36.9435C63.1001 28.5009 63.0941 14.7779 54.658 6.34179ZM28.2674 32.7324C22.158 26.6229 22.158 16.6819 28.2674 10.5724C34.3769 4.46177 44.3191 4.46177 50.4286 10.5724C56.538 16.6819 56.538 26.6229 50.4286 32.7324C47.468 35.6918 43.534 37.3216 39.3474 37.3216C35.1619 37.3216 31.2269 35.6918 28.2674 32.7324Z" fill="#324332"/>
<path d="M47.9004 13.0994C45.5427 10.7416 42.445 9.56213 39.3474 9.56213C36.251 9.56213 33.1534 10.7416 30.7944 13.0994C26.0789 17.8149 26.0789 25.4887 30.7944 30.2054C33.0795 32.4893 36.1175 33.7474 39.3474 33.7474C42.5785 33.7474 45.6165 32.4893 47.9004 30.2054C52.6172 25.4887 52.6172 17.8149 47.9004 13.0994ZM29.2432 21.6512C29.2432 20.6647 30.0426 19.8641 31.0303 19.8641H33.0235C34.01 19.8641 34.8106 20.6647 34.8106 21.6512C34.8106 22.6389 34.01 23.4383 33.0235 23.4383H31.0303C30.0425 23.4383 29.2432 22.6389 29.2432 21.6512ZM36.1366 27.3925L34.7272 28.802C34.3781 29.151 33.9206 29.3262 33.4631 29.3262C33.0056 29.3262 32.5481 29.151 32.199 28.802C31.5021 28.1038 31.5021 26.9732 32.199 26.275L33.6097 24.8656C34.3078 24.1674 35.4384 24.1674 36.1366 24.8656C36.8348 25.5626 36.8348 26.6944 36.1366 27.3925ZM36.1424 18.4547C35.7934 18.8038 35.3359 18.9777 34.8784 18.9777C34.4209 18.9777 33.9634 18.8038 33.6155 18.4547L32.2049 17.0441C31.5067 16.3459 31.5067 15.2153 32.2049 14.5171C32.903 13.819 34.0349 13.819 34.733 14.5171L36.1424 15.9266C36.8407 16.6247 36.8407 17.7565 36.1424 18.4547ZM41.1345 29.9779C41.1345 30.9643 40.3351 31.765 39.3474 31.765C38.3609 31.765 37.5603 30.9643 37.5603 29.9779V27.9847C37.5603 26.997 38.3609 26.1976 39.3474 26.1976C40.3351 26.1976 41.1345 26.997 41.1345 27.9847V29.9779ZM41.1345 15.3356C41.1345 16.3221 40.3351 17.1227 39.3474 17.1227C38.3609 17.1227 37.5603 16.3221 37.5603 15.3356V13.3412C37.5603 12.3548 38.3609 11.5541 39.3474 11.5541C40.3351 11.5541 41.1345 12.3548 41.1345 13.3412V15.3356ZM42.5535 15.9218L43.9629 14.5112C44.661 13.813 45.7929 13.813 46.491 14.5112C47.188 15.2093 47.188 16.3412 46.491 17.0381L45.0804 18.4487C44.7313 18.7978 44.275 18.9718 43.8175 18.9718C43.36 18.9718 42.9025 18.7978 42.5535 18.4487C41.8553 17.7506 41.8553 16.6188 42.5535 15.9218ZM46.4958 28.8079C46.1467 29.157 45.6904 29.3309 45.2329 29.3309C44.7754 29.3309 44.3179 29.157 43.9688 28.8079L42.5594 27.3985C41.8613 26.7003 41.8613 25.5685 42.5594 24.8704C43.2576 24.1734 44.3882 24.1734 45.0864 24.8704L46.4958 26.281C47.1939 26.9791 47.1939 28.1098 46.4958 28.8079ZM47.6657 23.4383H45.6725C44.6849 23.4383 43.8854 22.6389 43.8854 21.6512C43.8854 20.6647 44.6849 19.8641 45.6725 19.8641H47.6657C48.6534 19.8641 49.4528 20.6647 49.4528 21.6512C49.4528 22.6389 48.6534 23.4383 47.6657 23.4383Z" fill="#324332"/>
<path d="M8.21571 41.3345L10.7529 38.7973C11.4509 38.0994 11.4509 36.9679 10.7529 36.27C10.0551 35.5722 8.92352 35.5721 8.2256 36.27L5.68838 38.8072C4.99045 39.5051 4.99045 40.6366 5.68838 41.3345C6.03734 41.6835 6.49472 41.8579 6.95198 41.8579C7.40925 41.8579 7.86675 41.6835 8.21571 41.3345Z" fill="#324332"/>
<path d="M28.7204 46.069C28.0226 45.371 26.891 45.371 26.1931 46.069L16.8419 55.4202C16.1439 56.1181 16.1439 57.2496 16.8419 57.9475C17.1908 58.2965 17.6482 58.471 18.1054 58.471C18.5627 58.471 19.0202 58.2966 19.369 57.9475L28.7203 48.5963C29.4183 47.8984 29.4183 46.7669 28.7204 46.069Z" fill="#324332"/>
</svg>
