<svg width="66" height="61" viewBox="0 0 66 61" fill="none" xmlns="http://www.w3.org/2000/svg">
<path fill-rule="evenodd" clip-rule="evenodd" d="M43.1632 0C51.0204 0 57.4126 6.39423 57.4126 14.2544C57.4126 25.6076 45.1309 36.5549 44.6077 37.0154C44.1947 37.3789 43.6792 37.5609 43.1632 37.5609C42.6473 37.5609 42.1318 37.3787 41.7188 37.0154C41.1958 36.5547 28.9138 25.6076 28.9138 14.2544C28.9138 6.39444 35.3062 0 43.1632 0ZM37.9396 14.2544C37.9396 17.1519 40.283 19.5089 43.1635 19.5089C46.0442 19.5089 48.3876 17.1519 48.3876 14.2544C48.3876 11.357 46.0442 8.99991 43.1635 8.99991C40.283 8.99991 37.9396 11.357 37.9396 14.2544Z" fill="#324332"/>
<path fill-rule="evenodd" clip-rule="evenodd" d="M18.178 60.1219L1.70862 56.4397C0.709961 56.2166 0 55.3303 0 54.307V9.2316C0 8.56799 0.301392 7.94073 0.819092 7.526C1.33704 7.11127 2.01599 6.95395 2.66248 7.09872L18.178 10.5677C19.3589 10.832 20.3252 12.0379 20.3252 13.248V58.4018C20.3252 59.6119 19.3589 60.3859 18.178 60.1219ZM10.499 10.3349C9.67651 9.59766 8.41211 9.66678 7.6748 10.4893L2.33508 16.4464C1.5979 17.269 1.66699 18.5334 2.4895 19.2706C3.31201 20.0079 4.57642 19.9388 5.31372 19.1163L10.6534 13.1591C11.3906 12.3366 11.3215 11.0722 10.499 10.3349ZM15.6748 46.4893C16.4121 45.6668 17.6765 45.5977 18.499 46.3349C19.3215 47.0722 19.3906 48.3366 18.6534 49.1591L13.3137 55.1163C12.5764 55.9388 11.312 56.0079 10.4895 55.2706C9.66699 54.5334 9.5979 53.269 10.3351 52.4464L15.6748 46.4893ZM17.2764 14.8896C16.4539 14.1523 15.1895 14.2215 14.4521 15.044L3.33521 27.4464C2.5979 28.2689 2.66711 29.5334 3.48962 30.2706C4.31213 31.0079 5.57654 30.9388 6.31372 30.1163L17.4308 17.7138C18.168 16.8913 18.0989 15.6269 17.2764 14.8896ZM15.0986 25.4893C15.8359 24.6668 17.1003 24.5977 17.9229 25.3349C18.7454 26.0722 18.8145 27.3366 18.0773 28.1591L5.3136 42.3986C4.57642 43.2211 3.31189 43.2903 2.48938 42.553C1.66687 41.8157 1.59778 40.5513 2.33508 39.7288L15.0986 25.4893ZM17.9229 36.3349C17.1003 35.5977 15.8359 35.6668 15.0986 36.4893L2.33508 50.7288C1.59778 51.5513 1.66687 52.8157 2.48938 53.553C3.31189 54.2903 4.57642 54.2211 5.3136 53.3986L18.0773 39.1591C18.8145 38.3366 18.7454 37.0722 17.9229 36.3349Z" fill="#324332"/>
<path fill-rule="evenodd" clip-rule="evenodd" d="M62.6836 60.9474C62.8413 60.9828 63.0011 61 63.1602 61C63.6521 61 64.1355 60.8337 64.5267 60.5201C65.0447 60.1052 65.3458 59.4779 65.3458 58.8145V13.7389C65.3458 12.7156 64.6356 11.8293 63.6372 11.6063L60.1299 10.8221C60.3536 11.9321 60.4727 13.0797 60.4727 14.2546C60.4727 19.6557 58.1807 25.4737 53.661 31.5466C50.3594 35.9829 47.0023 38.9842 46.6294 39.3127C46.0637 39.8104 45.402 40.1721 44.6932 40.3883V54.7253C44.6932 55.9354 45.6595 57.1415 46.8405 57.4055L62.6836 60.9474ZM60.0986 29.4893C60.8359 28.6668 62.1003 28.5977 62.9229 29.3349C63.7454 30.0722 63.8145 31.3366 63.0773 32.1591L50.3136 46.3986C49.5764 47.2211 48.3119 47.2903 47.4894 46.553C46.6669 45.8157 46.5978 44.5513 47.3351 43.7288L60.0986 29.4893ZM62.7529 43.3349C61.9304 42.5977 60.666 42.6668 59.9287 43.4893L51.3357 53.076C50.5984 53.8985 50.6675 55.163 51.49 55.9002C52.3125 56.6375 53.577 56.5684 54.3142 55.7458L62.9073 46.1591C63.6445 45.3366 63.5754 44.0722 62.7529 43.3349Z" fill="#324332"/>
<path fill-rule="evenodd" clip-rule="evenodd" d="M39.6967 39.3113C40.2629 39.8095 40.9248 40.1716 41.6337 40.3879V54.6414C41.6337 55.8515 40.6663 57.0529 39.484 57.3109L25.5344 60.3556C24.3521 60.6136 23.3848 59.8348 23.3848 58.6247V13.4756C23.3848 12.2654 24.0258 11.1354 24.8092 10.9644L26.2336 10.6538C25.9869 11.8159 25.8545 13.0199 25.8545 14.2542C25.8545 19.6552 28.1462 25.4732 32.6659 31.5462C35.9677 35.9825 39.3246 38.9837 39.6967 39.3113ZM26.2686 35.0832C25.568 34.2293 25.6923 32.9691 26.5463 32.2685C27.4003 31.5679 28.6604 31.6922 29.361 32.5462L39.2461 44.5955C39.9467 45.4495 39.8223 46.7097 38.9683 47.4102C38.1144 48.1108 36.8541 47.9865 36.1536 47.1325L26.2686 35.0832ZM26.5463 46.2685C25.6923 46.9691 25.5679 48.2292 26.2686 49.0832L30.8331 54.6472C31.5337 55.5011 32.7938 55.6255 33.6478 54.9249C34.5018 54.2243 34.6261 52.9641 33.9255 52.1101L29.361 46.5462C28.6604 45.6922 27.4003 45.5679 26.5463 46.2685Z" fill="#324332"/>
</svg>
