<svg width="20" height="22" viewBox="0 0 20 22" fill="none" xmlns="http://www.w3.org/2000/svg">
<path d="M2.34545 19.2691H15.3082L14.6891 17.2645L16.17 18.5355L17.5273 19.7518L20 21.8182V2.25C19.9382 1.03364 18.8909 0 17.5927 0L2.35 0.00272727C1.05273 0.00272727 0 1.03818 0 2.25455V17.0182C0 18.3009 1.05091 19.2691 2.34545 19.2691ZM11.9345 5.16636L11.9045 5.17727L11.9155 5.16636H11.9345ZM4.99727 6.32C6.66364 5.10727 8.20818 5.16545 8.20818 5.16545L8.33273 5.28818C6.29364 5.77454 5.36909 6.68545 5.36909 6.68545C5.36909 6.68545 5.61636 6.56455 6.04818 6.38C8.79455 5.3 11.7936 5.37818 14.57 6.74545C14.57 6.74545 13.6436 5.89364 11.73 5.34818L11.8991 5.18182C12.1636 5.18273 13.5636 5.23182 15.0618 6.32727C15.0618 6.32727 16.7382 9.19091 16.7382 12.7091C16.6827 12.6418 15.6982 14.2236 13.1645 14.2782C13.1645 14.2782 12.7355 13.7927 12.43 13.3691C13.9118 12.9436 14.4664 12.0927 14.4664 12.0927C13.98 12.3991 13.5364 12.5809 13.1764 12.7627C12.6227 13.0064 12.0682 13.1264 11.5145 13.2491C8.89273 13.6745 7.42091 12.9627 6.03 12.3982L5.55455 12.1564C5.55455 12.1564 6.10818 13.0073 7.53091 13.4327C7.15727 13.8591 6.78727 14.3436 6.78727 14.3436C4.25455 14.2836 3.33091 12.7018 3.33091 12.7018C3.33091 9.17818 4.99727 6.32 4.99727 6.32Z" fill="#324332"/>
<path d="M12.0991 11.6099C12.7454 11.6099 13.2718 11.0644 13.2718 10.3917C13.2718 9.72351 12.7482 9.17806 12.0991 9.17806V9.18079C11.4554 9.18079 10.9282 9.72442 10.9263 10.3972C10.9263 11.0644 11.4527 11.6099 12.0991 11.6099Z" fill="#324332"/>
<path d="M7.90078 11.6099C8.54714 11.6099 9.07351 11.0644 9.07351 10.3917C9.07351 9.72351 8.55078 9.17806 7.90442 9.17806L7.90078 9.18079C7.25441 9.18079 6.72805 9.72442 6.72805 10.3972C6.72805 11.0644 7.25441 11.6099 7.90078 11.6099Z" fill="#324332"/>
</svg>
