<svg width="20" height="22" viewBox="0 0 20 22" fill="none" xmlns="http://www.w3.org/2000/svg">
<path d="M11.3777 9.2471C11.3777 10.0002 10.7671 10.6107 10.014 10.6107C9.26091 10.6107 8.65039 10.0002 8.65039 9.2471C8.65039 8.49398 9.26091 7.88346 10.014 7.88346C10.7671 7.88346 11.3777 8.49398 11.3777 9.2471Z" fill="#324332"/>
<path fill-rule="evenodd" clip-rule="evenodd" d="M2.34545 19.2691H15.3082L14.6891 17.2645L16.17 18.5355L17.5273 19.7518L20 21.8182V2.25C19.9382 1.03364 18.8909 0 17.5927 0L2.35 0.00272727C1.05273 0.00272727 0 1.03818 0 2.25455V17.0182C0 18.3009 1.05091 19.2691 2.34545 19.2691ZM13.4233 12.9261C14.5506 12.9261 15.4688 12.008 15.4688 10.8807V9.28977C15.4688 6.28159 13.0224 3.83523 10.0142 3.83523C7.00602 3.83523 4.55966 6.28159 4.55966 9.28977C4.55966 12.298 7.00602 14.7443 10.0142 14.7443C10.3906 14.7443 10.696 14.4389 10.696 14.0625C10.696 13.6861 10.3906 13.3807 10.0142 13.3807C7.75875 13.3807 5.9233 11.5452 5.9233 9.28977C5.9233 7.03432 7.75875 5.19886 10.0142 5.19886C12.2697 5.19886 14.1051 7.03432 14.1051 9.28977V10.8807C14.1051 11.2561 13.7987 11.5625 13.4233 11.5625C13.0478 11.5625 12.7415 11.2561 12.7415 10.8807V9.28977C12.7415 7.78614 11.5178 6.5625 10.0142 6.5625C8.51057 6.5625 7.28693 7.78614 7.28693 9.28977C7.28693 10.7934 8.51057 12.017 10.0142 12.017C10.5651 12.017 11.076 11.8498 11.5051 11.568C11.7897 12.357 12.5378 12.9261 13.4233 12.9261Z" fill="#324332"/>
</svg>
