<svg width="20" height="22" viewBox="0 0 20 22" fill="none" xmlns="http://www.w3.org/2000/svg">
<path fill-rule="evenodd" clip-rule="evenodd" d="M15.3082 19.2691H2.34545C1.05091 19.2691 0 18.3009 0 17.0182V2.25455C0 1.03818 1.05273 0.00272727 2.35 0.00272727L17.5927 0C18.8909 0 19.9382 1.03364 20 2.25V21.8182L17.5273 19.7518L16.17 18.5355L14.6891 17.2645L15.3082 19.2691ZM17.1099 12.8455C17.115 12.8549 17.1188 12.8619 17.1216 12.8666C17.6013 13.6622 16.5894 13.7246 16.5894 13.7246L14.6552 13.7518C14.6552 13.7518 14.2398 13.8342 13.6931 13.4585C13.4072 13.2621 13.1277 12.9417 12.8614 12.6363C12.454 12.1692 12.0775 11.7375 11.7562 11.8393C11.2168 12.0104 11.2339 13.1716 11.2339 13.1716C11.2339 13.1716 11.2385 13.4196 11.1154 13.5518C10.9823 13.6957 10.7208 13.7246 10.7208 13.7246H9.85548C9.85548 13.7246 7.94573 13.8396 6.26315 12.0882C4.42943 10.1776 2.8093 6.38793 2.8093 6.38793C2.8093 6.38793 2.71608 6.13993 2.81745 6.01955C2.93149 5.88469 3.24194 5.87564 3.24194 5.87564L5.31099 5.86297C5.31099 5.86297 5.50649 5.89555 5.64588 5.99783C5.76083 6.082 5.82509 6.23949 5.82509 6.23949C5.82509 6.23949 6.15997 7.08576 6.60256 7.85056C7.46693 9.34488 7.8697 9.67162 8.16386 9.51142C8.59197 9.2779 8.46344 7.39982 8.46344 7.39982C8.46344 7.39982 8.47159 6.71738 8.24803 6.41417C8.07516 6.17885 7.74932 6.11006 7.60541 6.09105C7.48865 6.07567 7.67963 5.80504 7.92763 5.68376C8.29962 5.50184 8.95763 5.49097 9.7342 5.49912C10.3397 5.50546 10.5135 5.54347 10.7506 5.60049C11.2999 5.73293 11.2828 6.15795 11.246 7.07525C11.2349 7.34901 11.2222 7.66663 11.2222 8.03339C11.2222 8.11615 11.2198 8.20439 11.2173 8.29519C11.2044 8.76451 11.1896 9.30201 11.4982 9.50146C11.6566 9.60373 12.0449 9.51685 13.0143 7.87047C13.4741 7.09028 13.8189 6.17251 13.8189 6.17251C13.8189 6.17251 13.894 6.00959 14.0108 5.939C14.1312 5.86749 14.2923 5.88922 14.2923 5.88922L16.4681 5.87655C16.4681 5.87655 17.1225 5.79871 17.2284 6.09377C17.3397 6.40331 16.984 7.12739 16.0943 8.31307C15.2494 9.43906 14.8387 9.85266 14.8772 10.2191C14.9052 10.4862 15.172 10.7283 15.6834 11.203C16.7589 12.2012 17.0434 12.7236 17.1099 12.8455Z" fill="#324332"/>
</svg>
