<svg width="50" height="50" viewBox="0 0 50 50" fill="none" xmlns="http://www.w3.org/2000/svg">
<path d="M45.3652 10.7955L45.2436 10.9362L45.2436 11.1222L45.2436 38.6621L4.50014 43.0135L4.50014 7.90766L45.4875 3.5302L46.4395 5.03399L46.4395 9.55109L45.3652 10.7955Z" fill="#74D373" stroke="#74D373"/>
<path d="M42.5322 6.12073L42.5322 37.7741L6.85404 41.3406L6.85404 9.6873L42.5322 6.12073Z" fill="#324332"/>
<path d="M4.50053 8.0106L39.1787 11.4772L39.1787 46.5838L4.50052 43.1172L4.50053 8.0106Z" fill="#74D373" stroke="#74D373"/>
<path d="M15.6084 16.1204H21.9173C23.6235 16.1204 24.9329 16.2543 25.8455 16.5221C26.7681 16.7899 27.4575 17.1768 27.9138 17.6827C28.38 18.1886 28.6925 18.8036 28.8512 19.5278C29.0199 20.242 29.1042 21.353 29.1042 22.8608V24.9588C29.1042 26.4964 28.9455 27.6173 28.628 28.3216C28.3106 29.0259 27.7253 29.5665 26.8722 29.9435C26.0291 30.3204 24.923 30.5089 23.5541 30.5089H21.8727V40.2104H15.6084V16.1204ZM21.8727 20.242V26.3724C22.0513 26.3823 22.205 26.3873 22.334 26.3873C22.9093 26.3873 23.3061 26.2484 23.5243 25.9706C23.7525 25.683 23.8666 25.0927 23.8666 24.2V22.221C23.8666 21.3976 23.7376 20.862 23.4797 20.614C23.2218 20.366 22.6861 20.242 21.8727 20.242Z" fill="#324332"/>
</svg>
