<svg width="31" height="32" viewBox="0 0 31 32" fill="none" xmlns="http://www.w3.org/2000/svg">
<path d="M30.1367 -3.7737e-08L31 1.36377L31 4.86377L30.1367 5.86377L30.1367 26.0704L0.000303896 29.289L0.000305035 3.21857L30.1367 -3.7737e-08Z" fill="#324332"/>
<path d="M27.8184 2.25293L27.8184 25.1048L2.06078 27.6797L2.06078 4.82779L27.8184 2.25293Z" fill="#74D373"/>
<path d="M0.500231 3.77098L25.2578 6.24587L25.2578 31.3113L0.50023 28.8364L0.500231 3.77098Z" fill="#324332" stroke="#324332"/>
<path d="M8.38086 9.47217H12.9355C14.1673 9.47217 15.1126 9.56885 15.7715 9.76221C16.4375 9.95557 16.9352 10.2349 17.2646 10.6001C17.6012 10.9653 17.8268 11.4093 17.9414 11.9321C18.0632 12.4478 18.124 13.2498 18.124 14.3384V15.853C18.124 16.9631 18.0094 17.7723 17.7803 18.2808C17.5511 18.7892 17.1286 19.1795 16.5127 19.4517C15.904 19.7238 15.1055 19.8599 14.1172 19.8599H12.9033V26.8638H8.38086V9.47217ZM12.9033 12.4478V16.8735C13.0322 16.8807 13.1432 16.8843 13.2363 16.8843C13.6517 16.8843 13.9382 16.784 14.0957 16.5835C14.2604 16.3758 14.3428 15.9497 14.3428 15.3052V13.8765C14.3428 13.2821 14.2497 12.8953 14.0635 12.7163C13.8773 12.5373 13.4906 12.4478 12.9033 12.4478Z" fill="#74D372"/>
</svg>
