<svg width="100" height="100" viewBox="0 0 100 100" fill="none" xmlns="http://www.w3.org/2000/svg">
<rect x="1.5" y="1.5" width="97" height="97" rx="48.5" fill="#FAFAFA" stroke="#C5E1DB" stroke-width="3"/>
<mask id="mask0" mask-type="alpha" maskUnits="userSpaceOnUse" x="3" y="3" width="94" height="94">
<rect x="4.5" y="4.5" width="91" height="91" rx="45.5" fill="white" stroke="#C5E1DB" stroke-width="3"/>
</mask>
<g mask="url(#mask0)">
<path d="M53.6102 17.6086H53.3398C52.8665 17.6086 52.3932 17.6086 51.9199 17.6086H51.6494H51.379C50.8381 17.6086 50.3648 17.6086 49.8239 17.6762C49.2154 17.6762 48.6068 17.7438 48.0659 17.8791C47.7279 17.9467 47.3222 17.9467 46.9841 18.0143L46.5108 18.0819C46.0375 18.1495 45.6318 18.2171 45.1585 18.2847L44.8205 18.3524C44.7529 18.3524 44.6853 18.3524 44.55 18.42H44.4148H44.2796H44.212C44.0091 18.42 43.8063 18.4876 43.6034 18.4876C43.333 18.5552 43.0625 18.5552 42.7921 18.6228C42.3188 18.6904 41.7779 18.8257 41.237 19.0285C40.9665 19.0961 40.6961 19.1637 40.4256 19.2313L40.2904 19.299C40.0875 19.3666 39.8847 19.4342 39.6819 19.5018C39.479 19.5694 39.3438 19.637 39.1409 19.7046L38.9381 19.7722C38.7353 19.8399 38.5324 19.9751 38.262 20.0427C37.6535 20.3132 37.1125 20.5836 36.5716 20.8541C36.3688 20.9893 36.166 21.0569 36.0307 21.1921L35.7603 21.3274L35.4898 21.4626C35.287 21.5978 35.0841 21.733 34.8813 21.8006C34.5432 22.0035 34.3404 22.1387 34.0699 22.3416C33.7995 22.5444 33.5966 22.7472 33.3262 22.9501L33.1234 23.0853C32.6501 23.491 32.1768 23.9643 31.6359 24.5052C31.3654 24.7756 31.1626 25.0461 30.9597 25.3165L30.7569 25.587C30.6893 25.587 30.6217 25.6546 30.554 25.6546C30.4188 25.7898 30.3512 25.8575 30.216 25.9927C30.0807 26.1279 30.0131 26.2631 29.8779 26.3984C29.8103 26.466 29.7427 26.6012 29.6751 26.6688L29.6074 26.804L29.337 27.2097V27.5478C29.2018 27.7506 29.1342 27.8859 28.9989 28.0887L28.9313 28.2915C28.8637 28.4268 28.7961 28.562 28.7285 28.6972L28.6609 28.7648C28.5256 28.9677 28.458 29.1705 28.3904 29.3734C28.2552 29.6438 28.1876 29.9143 28.0523 30.1847C27.9171 30.5228 27.8495 30.7932 27.8495 31.0637C27.7819 31.4018 27.7143 31.7398 27.7143 32.0103C27.7143 32.0779 27.7143 32.2131 27.6467 32.2807V32.416L27.579 32.754V32.8216C27.579 33.0245 27.5114 33.2273 27.5114 33.4302C27.4438 33.8358 27.3762 34.1739 27.3762 34.5796C27.3762 34.9177 27.3086 35.1881 27.3086 35.5262C27.3086 35.6614 27.3086 35.7966 27.3086 35.9319C27.3086 36.0671 27.3086 36.2699 27.3086 36.4052C27.3086 36.9461 27.3086 37.487 27.3086 38.0279V38.3659V38.6364C27.3086 38.8392 27.3086 39.1097 27.3086 39.3125C27.3086 39.3801 27.3086 39.5154 27.3086 39.583V39.7858V39.9887C27.3086 40.1239 27.3086 40.1915 27.3086 40.3267C27.3762 41.0029 27.4438 41.679 27.579 42.2199C27.6467 42.4904 27.6467 42.6932 27.7143 42.9637C27.6467 43.0313 27.579 43.0989 27.579 43.2341C27.579 43.437 27.579 43.6398 27.6467 43.8426C27.6467 44.0455 27.7143 44.2483 27.7819 44.4512C27.8495 44.8568 27.9847 45.3301 28.12 45.7358L28.1876 45.871C28.3228 46.2767 28.458 46.75 28.5932 47.1557C28.6609 47.4261 28.7961 47.6966 28.9313 47.8994C28.9989 48.0347 29.0665 48.1699 29.1342 48.3051L29.2018 48.4404C29.2018 48.508 29.2694 48.5756 29.2694 48.5756V48.6432V48.7108L29.337 48.9136L29.4046 48.9813L29.4722 49.0489C29.5398 49.1841 29.6751 49.2517 29.8103 49.2517H29.8779C30.0131 49.1841 30.1484 49.1165 30.1484 48.9136L30.2836 48.846L30.6216 48.6432C30.8921 48.5756 31.0949 48.4404 31.3654 48.3727C31.5006 48.3727 31.6359 48.3727 31.7711 48.3727C31.9739 48.3727 32.1768 48.3727 32.3796 48.4404C32.5824 48.4404 32.7853 48.508 32.9205 48.5756C33.0557 48.6432 33.1233 48.7108 33.191 48.7784L33.3262 48.846L33.3938 48.9136C33.4614 48.9813 33.529 49.0489 33.5966 49.0489C33.5966 49.0489 33.6643 49.0489 33.7319 49.0489C33.8671 49.0489 34.0023 48.9813 34.0699 48.846C34.1376 48.7108 34.1376 48.5756 34.1376 48.508C34.1376 48.4404 34.1376 48.3051 34.1376 48.2375C34.1376 48.1023 34.1376 47.8994 34.1376 47.7642C34.1376 47.5614 34.1376 47.3585 34.1376 47.1557C34.1376 46.75 34.1376 46.2767 34.1376 45.871V45.533C34.1376 45.3301 34.1376 45.1273 34.1376 44.9244V44.5188C34.1376 44.3159 34.1376 44.1131 34.2052 43.9102C34.2052 43.7074 34.2052 43.5046 34.2052 43.3693V42.896C34.2052 42.6256 34.2052 42.3551 34.2728 42.1523V41.8818V41.5438C34.2728 41.3409 34.3404 41.0705 34.3404 40.8676C34.4756 40.8676 34.6108 40.9353 34.7461 40.9353H35.0841C35.287 40.9353 35.4898 41.0029 35.7603 41.0029C35.9631 41.0029 36.2336 41.0705 36.4364 41.0705C36.504 41.0705 36.5716 41.0705 36.6393 41.0705C36.9097 41.0705 37.1802 41.0029 37.5182 40.9353H37.6535H37.7211H37.7887H37.8563H38.0591C38.4648 40.8676 38.8029 40.8 39.2086 40.7324C39.6819 40.6648 40.0875 40.5296 40.4932 40.3944H40.5608C40.7637 40.3267 41.0341 40.2591 41.237 40.1915C41.3722 40.1239 41.5074 40.0563 41.6426 40.0563L41.9131 39.9887C42.2512 39.8534 42.5892 39.7182 42.9273 39.583C43.0625 39.5154 43.1978 39.4478 43.333 39.3801L43.6034 39.2449L43.8739 39.1097C44.0767 39.0421 44.212 38.9069 44.4148 38.8392C44.6853 38.6364 44.9557 38.5012 45.2262 38.2983L45.3614 38.2307C45.4966 38.1631 45.5642 38.0955 45.6995 38.0279L45.8347 37.9603C46.0375 37.825 46.1727 37.7574 46.3756 37.6222C46.646 37.4194 46.9841 37.1489 47.2546 36.9461C47.3898 36.8108 47.4574 36.7432 47.5926 36.6756C47.6602 36.608 47.7955 36.5404 47.8631 36.4728C47.9983 36.3375 48.2012 36.2023 48.3364 36.0671L48.4716 35.9995C48.6744 35.7966 48.9449 35.5938 49.1477 35.391C49.3506 35.1881 49.4858 35.0529 49.6887 34.85L49.8915 34.6472C49.9591 34.5796 50.0943 34.4444 50.1619 34.3768C50.2972 34.2415 50.4324 34.1063 50.5676 33.9711C50.7028 33.8358 50.8381 33.7006 50.9733 33.4978C51.0409 33.3625 51.1085 33.2949 51.2438 33.1597L51.3114 33.0245L51.5142 32.8216C51.5818 32.6864 51.7171 32.5512 51.7847 32.416L51.8523 32.3483C51.9199 32.2807 51.9875 32.1455 52.0551 32.0779C52.1227 32.0103 52.1903 31.9427 52.1903 31.8751L52.258 31.7398C52.3256 31.8074 52.3932 31.8074 52.4608 31.8751C52.4608 31.9427 52.5284 32.0779 52.5284 32.2131C52.5284 32.3483 52.5284 32.416 52.5284 32.5512C52.5284 32.6188 52.5284 32.754 52.5284 32.8216C52.5284 32.8893 52.5284 33.0245 52.5284 33.0921C52.5284 33.2273 52.596 33.4302 52.596 33.5654C52.596 33.7006 52.596 33.7682 52.596 33.9035C52.596 33.9711 52.596 34.0387 52.596 34.1063V34.2415C52.596 34.3768 52.596 34.5796 52.5284 34.7148V34.6472V34.7824V34.9177V34.85C52.5284 34.9853 52.4608 35.1881 52.4608 35.3233C52.4608 35.4586 52.4608 35.5938 52.4608 35.7966C52.4608 35.9995 52.4608 36.1347 52.5284 36.3375C52.5284 36.5404 52.596 36.7432 52.6636 37.0137C52.7313 37.2165 52.7313 37.3517 52.7989 37.5546C52.8665 37.6898 52.9341 37.825 53.0693 37.9603C53.1369 38.0279 53.2045 38.0955 53.2045 38.1631C53.2722 38.2307 53.4074 38.3659 53.5426 38.4336C53.7455 38.5688 53.9483 38.6364 54.1511 38.704C54.2187 38.7716 54.354 38.7716 54.4216 38.7716C54.4892 38.7716 54.6244 38.8392 54.692 38.8392C54.8949 38.9069 55.1653 38.9069 55.3682 38.9069H55.7062C55.8415 38.9069 56.0443 38.9069 56.1795 38.9069C56.3148 38.9069 56.45 38.9069 56.5852 38.8392H56.6528C56.7881 38.8392 56.9909 38.7716 57.1261 38.704C57.4642 38.6364 57.7346 38.5688 58.0727 38.4336C58.4108 38.3659 58.6812 38.2307 58.9517 38.0955C59.2898 37.9603 59.5602 37.825 59.8307 37.6222C60.0335 37.5546 60.1687 37.4194 60.3716 37.2841L60.5068 37.2165L60.642 37.1489C60.7096 37.0813 60.8449 37.0137 60.9125 36.9461C61.0477 36.8785 61.1829 36.7432 61.2505 36.6756C61.3858 36.5404 61.5886 36.4052 61.7238 36.2699C61.9267 36.1347 62.0619 35.9995 62.1971 35.7966C62.3324 35.6614 62.5352 35.4586 62.6704 35.3233L62.8733 35.1205L63.1437 34.7824C63.279 34.6472 63.4142 34.4444 63.5494 34.3091C63.617 34.1739 63.7522 34.0387 63.8199 33.9035L63.8875 33.7682C63.8875 33.7006 63.9551 33.7006 63.9551 33.633C64.0227 33.7006 64.0903 33.7006 64.0903 33.7682C64.2932 33.9711 64.4284 34.1739 64.5636 34.4444C64.6988 34.6472 64.8341 34.85 64.9017 35.1205C64.9693 35.2557 65.0369 35.391 65.1045 35.5262C65.1721 35.6614 65.2397 35.7966 65.2397 35.9319C65.3074 36.1347 65.375 36.3375 65.4426 36.608L65.5102 36.7432C65.5778 37.0137 65.6454 37.2841 65.713 37.5546C65.7807 37.8927 65.8483 38.1631 65.9159 38.5012V38.6364C65.9835 38.9069 66.0511 39.1773 66.0511 39.4478C66.1187 39.7858 66.1187 40.1239 66.1187 40.3944C66.1187 40.5972 66.1187 40.8 66.1863 41.0029V41.2057C66.1863 41.4762 66.2539 41.8142 66.2539 42.0847C66.2539 42.4228 66.2539 42.6932 66.3216 43.0313C66.3216 43.3693 66.3892 43.7074 66.3892 43.9779V44.2483C66.3892 44.4512 66.3892 44.654 66.4568 44.8568C66.4568 45.1273 66.5244 45.3977 66.592 45.7358L66.6596 46.0063C66.7272 46.2091 66.7272 46.4119 66.7948 46.6148C66.8625 46.8176 66.9977 47.0205 67.0653 47.2233C67.1329 47.3585 67.2005 47.4261 67.2005 47.5614C67.2681 47.629 67.2681 47.7642 67.3358 47.8318C67.471 48.0347 67.5386 48.2375 67.6738 48.3727C67.7414 48.4404 67.8091 48.5756 67.8767 48.6432C67.9443 48.7784 68.0795 48.9136 68.1471 48.9813C68.1471 49.0489 68.2147 49.1165 68.2824 49.1841C68.35 49.3193 68.4176 49.3869 68.4852 49.4546C68.5528 49.5222 68.6204 49.5898 68.688 49.6574C68.7556 49.6574 68.7556 49.6574 68.8233 49.6574C68.8909 49.6574 68.8909 49.6574 68.9585 49.6574C69.0937 49.5898 69.1613 49.4546 69.1613 49.3193C69.2289 49.2517 69.2966 49.2517 69.3642 49.1841C69.4994 49.1165 69.7022 48.9813 69.8375 48.9136C70.1079 48.7784 70.3108 48.7108 70.5812 48.6432C70.7164 48.6432 70.784 48.6432 70.9193 48.6432H71.0545C71.2573 48.6432 71.3926 48.7108 71.5278 48.7108C71.5954 48.7784 71.7306 48.7784 71.7983 48.846C71.8659 48.9136 72.0011 48.9136 72.0687 48.9813L72.1363 49.0489C72.2039 49.1165 72.3392 49.1165 72.4068 49.1165C72.6096 49.1165 72.8125 48.9813 72.9477 48.846C73.1505 48.5756 73.2858 48.2375 73.3534 47.9671C73.421 47.8318 73.421 47.6966 73.4886 47.5614C73.5562 47.4261 73.5562 47.2233 73.6238 47.0881C73.6914 46.8176 73.759 46.5472 73.8267 46.3443L73.9619 45.9387C74.0295 45.8034 74.0295 45.6682 74.0971 45.4654L74.1647 45.1949C74.2323 44.9921 74.2323 44.8568 74.2999 44.654L74.3676 44.5188L74.4352 44.1807C74.5028 43.8426 74.5704 43.5722 74.638 43.2341C74.7056 42.6932 74.7732 42.2199 74.8409 41.7466C74.9085 41.2733 74.9085 40.8 74.9085 40.3944V40.0563C74.9085 39.8534 74.9085 39.583 74.9085 39.3801V39.1773C74.9085 39.0421 74.9085 38.9069 74.9085 38.7716C74.9085 38.5688 74.9085 38.4336 74.9085 38.2307C74.9085 38.0955 74.9085 37.9603 74.9085 37.825V37.7574V37.487V37.2165C74.9085 36.9461 74.9085 36.608 74.8409 36.3375C74.8409 35.729 74.7732 35.0529 74.7056 34.4444C74.7056 34.0387 74.638 33.633 74.5704 33.1597C74.5704 33.0245 74.5028 32.8893 74.5028 32.6864L74.4352 32.4836C74.3676 32.2807 74.3676 32.1455 74.2999 31.9427L74.2323 31.537L74.1647 31.1313V31.1989C74.0295 30.5904 73.9619 30.0495 73.759 29.5762C73.6914 29.3057 73.6238 29.0353 73.4886 28.8324C73.3534 28.562 73.2181 28.2915 73.1505 28.0211C73.0153 27.7506 72.8801 27.5478 72.7448 27.2773L72.6772 27.2097C72.542 27.0069 72.4068 26.804 72.2715 26.6012C72.0687 26.3307 71.8659 26.1279 71.663 25.9251C71.5278 25.7898 71.4602 25.7222 71.325 25.6546C71.1897 25.587 71.1221 25.5194 70.9869 25.4518L70.784 25.3842L70.446 25.1813C70.2431 25.1137 70.1079 25.0461 69.9727 24.9785C69.8375 24.9109 69.6346 24.8433 69.4994 24.8433C69.3642 24.8433 69.2965 24.7756 69.1613 24.708L68.9585 24.6404C68.8233 24.5728 68.6204 24.5728 68.4852 24.5052C68.35 24.5052 68.2147 24.5052 68.0795 24.5052C67.9443 24.5052 67.8767 24.5052 67.7414 24.5052H67.471H67.2005C67.1329 24.4376 66.9977 24.3023 66.9301 24.2347L66.8625 24.0319C66.8625 23.8967 66.8625 23.7614 66.8625 23.5586V23.4234C66.8625 23.2205 66.8625 23.0177 66.7948 22.8825C66.7948 22.7472 66.7272 22.612 66.7272 22.5444C66.6596 22.4092 66.592 22.2063 66.5244 22.0711C66.3892 21.8007 66.1863 21.5302 65.9835 21.3274L65.9159 21.2597C65.713 21.0569 65.5102 20.8541 65.3074 20.7188C65.0369 20.516 64.7664 20.3132 64.496 20.1103C64.3608 20.0427 64.2255 19.9751 64.0227 19.8399C63.8875 19.7722 63.6846 19.7046 63.5494 19.637L63.1437 19.5018C62.9409 19.4342 62.8057 19.3666 62.6028 19.299C61.9267 19.0285 61.3182 18.8933 60.7096 18.6904C60.5744 18.6228 60.4392 18.6228 60.2363 18.5552C60.1011 18.4876 59.8983 18.4876 59.7631 18.42C59.5602 18.3524 59.425 18.2847 59.2221 18.2847C59.0869 18.2171 58.9517 18.2171 58.8841 18.1495C58.4784 18.0143 58.0727 17.9467 57.667 17.8791C57.4642 17.8115 57.2614 17.8115 57.0585 17.7438C56.3148 17.6086 55.7063 17.541 55.0977 17.4734C54.8949 17.4734 54.692 17.4734 54.4892 17.4734H54.1511C54.2864 17.6086 53.9483 17.6086 53.6102 17.6086Z" fill="#594839"/>
<path d="M40.8312 79.6777C40.8312 79.6777 40.7636 79.6777 40.696 79.6777C40.6284 79.6777 40.5607 79.7453 40.4255 79.8806C40.3579 79.9482 40.2903 80.0158 40.2903 80.151C40.2903 80.151 40.2227 80.151 40.1551 80.151C40.0198 80.151 39.9522 80.2186 39.8846 80.2863C39.7494 80.4215 39.7494 80.6919 39.8846 80.8272L39.9522 80.8948C40.0875 81.03 40.1551 81.0976 40.2227 81.1652C40.3579 81.3681 40.5608 81.5709 40.696 81.7738L40.7636 81.909C40.9664 82.1794 41.1693 82.4499 41.3721 82.7203C41.7778 83.1936 42.1835 83.7345 42.6568 84.1402C43.6034 85.0192 44.5499 85.8306 45.4965 86.5067C46.0374 86.8448 46.5107 87.1828 47.0516 87.4533C47.3897 87.5885 47.6602 87.7914 47.9982 87.9266C48.3363 88.0618 48.6068 88.197 48.9448 88.2646C49.2153 88.3323 49.4857 88.3999 49.7562 88.4675H49.8238C50.1619 88.5351 50.4323 88.6027 50.7704 88.6027H50.838C51.1761 88.6703 51.4465 88.6703 51.7846 88.6703C52.1227 88.6703 52.4607 88.6703 52.7312 88.6027L53.0016 88.5351H53.1369C53.2721 88.5351 53.4749 88.4675 53.6101 88.4675C54.0158 88.3999 54.2863 88.3323 54.5567 88.2646C54.8948 88.197 55.1653 88.0618 55.5033 87.9942C55.8414 87.859 56.1795 87.7237 56.5175 87.5209C57.0584 87.2504 57.5993 86.9124 58.1403 86.5067C58.6136 86.101 59.1545 85.7629 59.6277 85.3573C59.8982 85.1544 60.101 84.9516 60.3715 84.7487C60.5067 84.6135 60.5743 84.5459 60.7096 84.4107L60.7772 84.3431L60.8448 84.2755C61.0476 84.0726 61.2505 83.8698 61.3857 83.6669C61.4533 83.5993 61.5209 83.4641 61.6562 83.3289C61.7238 83.1936 61.7914 83.126 61.859 83.0584C61.9266 82.9232 62.0618 82.8556 62.1294 82.7203L62.2647 82.5851L62.3999 82.4499C62.4675 82.3147 62.5351 82.247 62.6704 82.1794L62.738 82.1118L62.8732 81.9766C62.9408 81.909 63.0084 81.8414 63.076 81.7738C63.1436 81.6385 63.1436 81.5709 63.076 81.4357C63.0084 81.3005 62.9408 81.2328 62.8732 81.1652C62.8056 81.0976 62.738 81.0976 62.6704 81.03C62.5351 80.9624 62.4675 80.9624 62.3323 80.8948C62.2647 80.8948 62.2647 80.8272 62.1971 80.8272C62.1294 80.8272 62.1294 80.8272 62.1294 80.8272C62.0618 80.8272 62.0618 80.8272 61.9942 80.8272C61.859 80.8272 61.7914 80.9624 61.7238 81.03C61.5885 81.1652 61.5209 81.3005 61.3857 81.4357L61.3181 81.5709C61.1829 81.7738 60.98 82.0442 60.7772 82.247C60.5743 82.5175 60.3715 82.7203 60.1687 82.9908C59.8982 83.0584 59.6954 83.2612 59.4925 83.3965L59.3573 83.4641C59.0868 83.6669 58.7488 83.8698 58.4783 84.0726C58.2755 84.2078 58.005 84.3431 57.8022 84.4783L57.5993 84.6135C57.2613 84.8164 56.9908 84.9516 56.6528 85.1544L56.3823 85.2897L56.0442 85.4925C55.8414 85.6277 55.6386 85.6953 55.4357 85.8306C55.4357 85.8306 55.3681 85.8306 55.3681 85.8982C54.5567 86.2362 53.6778 86.5067 52.8664 86.7095C52.6636 86.7095 52.5283 86.7095 52.3931 86.6419H52.2579H51.8522L51.9198 86.7095C51.4465 86.6419 50.9732 86.5743 50.4323 86.5743H50.2971L50.0942 86.5067C49.959 86.4391 49.8914 86.3715 49.7562 86.3715L49.5533 86.3039C49.2829 86.1686 49.0124 86.0334 48.742 85.9658C48.2011 85.7629 47.6602 85.4925 47.1193 85.2897C46.5784 85.0868 46.1051 84.8164 45.6318 84.5459L45.4289 84.4783C45.4289 84.4107 45.3613 84.4107 45.3613 84.3431C45.2937 84.2755 45.1585 84.1402 45.0909 84.0726L44.7528 83.7345L44.4823 83.4641L44.009 82.9908L43.5357 82.5175L43.0625 82.0442L42.5892 81.5709C42.3187 81.3005 42.1159 81.03 41.8454 80.7595L41.575 80.4215C41.5073 80.2863 41.3721 80.2186 41.3045 80.151C41.2369 80.0834 41.1693 80.0834 41.1017 80.0158C40.8312 79.6777 40.8312 79.6777 40.8312 79.6777Z" fill="#DDB18F"/>
<path d="M44.2117 72.7813V72.7137C44.0765 73.7279 43.806 74.6744 43.4004 75.621V75.5534C43.0623 76.3648 42.6566 77.1085 42.1157 77.7847C41.71 78.3256 41.2367 78.7989 40.6958 79.2045C40.2225 79.5426 39.7492 79.8131 39.2083 80.0835C38.8703 80.2187 38.4646 80.354 38.1265 80.4892C37.6532 80.6244 37.1799 80.7597 36.7066 80.9625C35.8276 81.2329 34.9487 81.5034 34.0697 81.7739C32.3794 82.3148 30.6214 82.8557 28.9987 83.667C27.3084 84.4108 25.8209 85.425 24.401 86.642C22.9811 87.8591 21.8317 89.4142 20.8175 90.9693C19.8709 92.592 19.1271 94.2823 18.5186 96.0403C17.9101 97.7982 17.5044 99.6914 17.2339 101.517C16.8959 103.545 16.7607 105.574 16.5578 107.535C16.355 109.766 16.2197 111.997 16.1521 114.296C15.9493 118.556 15.9493 122.883 16.1521 127.142H16.8283C16.6254 123.153 16.6254 119.096 16.7607 115.107C16.8283 113.011 16.9635 110.848 17.0987 108.752C17.1663 107.67 17.3016 106.588 17.3692 105.574C17.4368 104.627 17.572 103.681 17.7072 102.734V102.802C18.1129 99.8266 18.7891 96.9193 19.9385 94.1471C20.6822 92.4568 21.5612 90.9017 22.643 89.4818C23.522 88.3324 24.6038 87.2505 25.7532 86.3716C26.4294 85.8983 27.1055 85.425 27.7816 85.0193C28.5254 84.6136 29.2691 84.2079 30.0805 83.8699C31.7032 83.1937 33.4612 82.6528 35.1515 82.1119C36.0305 81.8415 36.9095 81.571 37.7884 81.3006C38.5998 81.0301 39.3435 80.8273 40.0873 80.4216C40.6958 80.0835 41.3043 79.6102 41.7776 79.1369C42.3185 78.596 42.7918 78.0551 43.1299 77.379C43.5356 76.7705 43.8736 76.0267 44.1441 75.3506C44.4145 74.6068 44.6174 73.8631 44.685 73.1193C44.8202 72.2404 44.8202 71.3614 44.7526 70.4824C44.6174 70.4824 44.4146 70.4148 44.2793 70.4148C44.2117 70.4148 44.1441 70.4148 44.0765 70.4148C44.3469 71.1585 44.3469 71.9699 44.2117 72.7813Z" fill="#2C2C2C"/>
<path d="M56.2475 70.4824C56.1123 71.429 56.1799 72.308 56.3151 73.2545C56.4504 73.9983 56.5856 74.742 56.8561 75.4858C57.1265 76.1619 57.4646 76.9057 57.8703 77.5142C58.2759 78.1227 58.7492 78.7312 59.2225 79.2721C59.7634 79.7454 60.3043 80.2187 60.9129 80.5568C61.6566 80.9625 62.4004 81.1653 63.2117 81.4358C64.0907 81.7062 64.9697 81.9767 65.8486 82.2471C67.539 82.788 69.2293 83.3289 70.9197 84.0051C71.731 84.3432 72.4748 84.6812 73.2185 85.1545C73.9623 85.5602 74.6384 86.0335 75.2469 86.5068C76.3963 87.3858 77.4105 88.4676 78.3571 89.617C79.439 91.0369 80.3179 92.6596 81.0617 94.2823C82.2111 97.0545 82.8872 99.9619 83.2929 102.937V102.869C83.4281 103.816 83.4958 104.762 83.631 105.709C83.6986 106.791 83.8338 107.873 83.9014 108.887C84.0367 110.983 84.1719 113.146 84.2395 115.242C84.3747 119.164 84.3747 123.086 84.1719 127.007H84.848C85.0509 122.815 85.0509 118.623 84.848 114.431C84.7804 112.2 84.6452 109.969 84.4423 107.67C84.3071 105.641 84.1043 103.613 83.7662 101.652C83.4958 99.8266 83.0901 97.9335 82.4816 96.1755C81.873 94.4176 81.1293 92.6596 80.1827 91.1045C79.2361 89.4818 78.0191 87.9943 76.5992 86.7772C75.2469 85.5602 73.6918 84.6136 72.0015 83.8022C70.3788 83.0585 68.6884 82.45 66.9305 81.9091C66.0515 81.6386 65.1725 81.3682 64.2935 81.0977C63.8202 80.9625 63.347 80.8273 62.8737 80.6244C62.5356 80.4892 62.1299 80.354 61.7918 80.2187C61.2509 80.0159 60.7776 79.6778 60.3043 79.3398C59.7634 78.9341 59.2901 78.4608 58.8845 77.9199C58.3436 77.2437 57.9379 76.5 57.5998 75.6886V75.7562C57.1941 74.8097 56.9237 73.8631 56.7885 72.8489V72.9165C56.6532 72.0375 56.6532 71.1585 56.7885 70.3472C56.7208 70.4824 56.518 70.4824 56.2475 70.4824Z" fill="#2C2C2C"/>
<path d="M33.9345 41.2057C34.0021 43.5046 33.8669 45.8034 33.7993 48.1023C33.7317 49.2517 33.6641 50.4011 33.5965 51.5506C33.5965 52.0915 33.5289 52.6324 33.5289 53.2409C33.5289 53.7818 33.5289 54.3903 33.5289 54.9312C33.5289 56.7568 33.3936 58.65 33.5289 60.4755C33.5965 61.3545 33.7317 62.3011 34.0021 63.1125C34.1374 63.5182 34.2726 63.9238 34.4754 64.2619C34.6783 64.6676 34.8811 65.0057 35.1516 65.4113C36.0306 66.6284 37.18 67.7102 38.4646 68.5216C39.7493 69.4005 41.2368 70.0091 42.7243 70.4147C44.2794 70.888 45.8345 71.1585 47.3896 71.3613C48.9447 71.4965 50.4998 71.5642 51.9873 71.4965C53.4748 71.4289 55.0299 71.2261 56.5174 70.9556C58.2078 70.6176 59.8305 70.1443 61.4532 69.5358C62.9407 68.9272 64.4282 68.1835 65.7129 67.1017C65.9833 66.8988 66.2538 66.6284 66.5242 66.3579C66.8623 66.0199 67.0651 65.6818 67.3356 65.2761C67.5384 64.938 67.6736 64.5324 67.8765 64.1267C68.0117 63.721 68.1469 63.2477 68.2822 62.7744C68.4174 62.1659 68.485 61.5574 68.5526 61.0165C68.6202 60.3403 68.6878 59.7318 68.7555 59.0557C68.8907 57.4329 68.9583 55.8102 68.9583 54.2551C68.9583 52.4296 68.9583 50.604 68.9583 48.846C68.8907 48.7784 68.8231 48.6432 68.6878 48.508C68.6202 48.3727 68.485 48.3051 68.4174 48.1699C68.3498 48.1023 68.2822 47.9671 68.2146 47.8994C68.2146 49.725 68.2146 51.6182 68.2146 53.4438C68.2146 54.8636 68.2146 56.2835 68.0793 57.7034C68.0117 58.4471 68.0117 59.1909 67.9441 59.9346C67.8765 60.4756 67.8089 61.0165 67.7413 61.5574V61.4898C67.606 62.4363 67.4032 63.4505 66.9975 64.3295C66.7947 64.7352 66.5918 65.1409 66.3214 65.4789C65.9157 65.9522 65.4424 66.3579 64.9691 66.7636C63.9549 67.575 62.8055 68.1159 61.656 68.6568C59.3572 69.6034 56.9231 70.2119 54.489 70.55C51.9197 70.888 49.2828 70.888 46.6459 70.55H46.7135C44.8203 70.2795 42.8595 69.8062 41.1016 69.0625H41.1692C40.0197 68.5892 38.9379 67.9806 37.9237 67.2369C37.18 66.6284 36.5038 66.0199 35.9629 65.2761C35.7601 65.0733 35.6249 64.8028 35.4896 64.5324C35.2868 64.1943 35.1516 63.9238 34.9487 63.5858C34.9487 63.5858 34.9487 63.5858 34.9487 63.5182C34.6107 62.7068 34.4078 61.8954 34.3402 61.0165V61.0841C34.1374 59.6642 34.205 58.1767 34.205 56.7568C34.205 56.0807 34.2726 55.4045 34.2726 54.7284C34.2726 53.8494 34.2726 52.9028 34.3402 52.0239C34.4754 48.3727 34.8135 44.7216 34.7459 41.0705C34.7459 40.8676 34.6107 40.7324 34.4078 40.7324C34.1374 40.8676 33.9345 41.0029 33.9345 41.2057Z" fill="#2C2C2C"/>
<path d="M31.3652 48.3727C30.351 48.4404 29.4044 49.0489 28.6607 49.7926C28.255 50.1983 27.917 50.6716 27.6465 51.1449C27.376 51.6858 27.1056 52.2267 26.9704 52.7676C26.6323 53.9171 26.6999 55.1341 27.1056 56.2159C27.1732 56.4187 27.3084 56.6892 27.4437 56.892C27.5789 57.0949 27.7141 57.2977 27.8493 57.5006C28.255 58.0415 28.7959 58.4472 29.3368 58.7852C29.9454 59.1233 30.6891 59.3937 31.3652 59.4614C32.109 59.5966 32.7851 59.529 33.5289 59.3937C33.7317 59.3937 33.7993 59.1233 33.7993 58.9881C33.7993 58.9204 33.7317 58.8528 33.6641 58.7852C33.5965 58.7176 33.4613 58.7176 33.3936 58.7176C33.326 58.7176 33.2584 58.7176 33.1232 58.7852C32.6499 58.8528 32.1766 58.8528 31.6357 58.7852C31.1624 58.7176 30.6215 58.5824 30.2158 58.3795H30.2834C29.8777 58.1767 29.4721 57.9739 29.0664 57.7034C28.7959 57.4329 28.4579 57.1625 28.255 56.892C28.255 56.892 28.255 56.892 28.255 56.8244C28.255 56.8244 28.255 56.8244 28.255 56.7568C28.0522 56.4864 27.917 56.2159 27.7141 55.8778C27.5789 55.5398 27.4437 55.1341 27.4437 54.7284C27.376 54.3227 27.376 53.8494 27.4437 53.4438C27.5113 52.9705 27.6465 52.4296 27.8493 51.9563C28.0522 51.483 28.3226 51.0097 28.6607 50.5364C28.9312 50.1983 29.2692 49.8602 29.6749 49.5222L29.6073 49.5898C29.8777 49.3869 30.1482 49.2517 30.4187 49.1165C30.6891 49.0489 30.9596 48.9137 31.1624 48.9137C31.3652 48.9137 31.5681 48.9137 31.7709 48.9137C31.9738 48.9813 32.1766 48.9813 32.3794 49.0489C32.5823 49.1165 32.7851 49.2517 32.9204 49.387C32.9204 49.387 32.9203 49.387 32.988 49.387C32.988 49.387 32.988 49.387 33.0556 49.387C33.2584 49.5898 33.4613 49.7926 33.6641 49.9955C33.7993 50.1307 34.0022 50.1307 34.1374 49.9955C34.205 49.9279 34.2726 49.8602 34.2726 49.725C34.2726 49.5898 34.205 49.5222 34.1374 49.4546C33.7993 48.9813 33.326 48.6432 32.7851 48.3727C32.3794 48.1699 31.9738 48.1023 31.5005 48.1023C31.5005 48.3727 31.4329 48.3727 31.3652 48.3727ZM27.8493 56.0807C27.8493 56.0807 27.8493 56.1483 27.8493 56.0807C27.8493 56.1483 27.8493 56.0807 27.8493 56.0807ZM33.1908 58.8528H33.1232C33.1232 58.8528 33.1232 58.8528 33.1908 58.8528ZM33.0556 49.6574C33.0556 49.6574 33.0556 49.5898 33.0556 49.6574C33.0556 49.5898 33.0556 49.5898 33.0556 49.6574C33.0556 49.5898 33.0556 49.5898 33.0556 49.6574Z" fill="#2C2C2C"/>
<path d="M30.757 50.6717C30.2837 50.7393 29.8104 50.9421 29.4048 51.2126C29.3372 51.2802 29.2695 51.3478 29.2695 51.4154C29.2695 51.483 29.2695 51.6182 29.3371 51.6859C29.4048 51.8211 29.6752 51.9563 29.8104 51.8211C30.0133 51.6859 30.1485 51.5506 30.3514 51.483C30.5542 51.4154 30.6894 51.3478 30.8923 51.3478C31.0951 51.3478 31.2979 51.3478 31.5008 51.3478C31.7036 51.4154 31.9065 51.4154 32.1093 51.5506C32.3121 51.6182 32.515 51.7535 32.7178 51.8887C32.9207 52.0239 33.1235 52.2268 33.2587 52.4296C33.3263 52.5648 33.394 52.6324 33.5292 52.7677C33.5968 52.9029 33.8672 52.9705 34.0025 52.9029C34.1377 52.8353 34.2053 52.5648 34.1377 52.4296C33.9349 52.0239 33.5968 51.6859 33.2587 51.4154C32.9207 51.145 32.515 50.9421 32.1093 50.8069C31.8389 50.7393 31.5008 50.6717 31.2303 50.6717C31.0275 50.604 30.8923 50.6717 30.757 50.6717ZM32.6502 51.8211C32.6502 51.8211 32.6502 51.8887 32.6502 51.8211C32.6502 51.8887 32.6502 51.8211 32.6502 51.8211Z" fill="#2C2C2C"/>
<path d="M69.5002 48.7785C69.0269 48.9814 68.6213 49.3194 68.2832 49.7251C68.2832 49.7927 68.2832 49.928 68.2832 49.9956C68.2832 49.9956 68.3508 50.0632 68.3508 50.1308C68.3508 50.266 68.3508 50.3336 68.3508 50.4689C68.486 50.4689 68.6213 50.4689 68.6889 50.4013C68.8917 50.1984 69.0946 49.9956 69.2974 49.7927C69.5002 49.6575 69.6355 49.5223 69.8383 49.4547C70.0411 49.3871 70.244 49.3194 70.4468 49.3194C70.6497 49.3194 70.8525 49.3194 71.0553 49.3194C71.3258 49.3871 71.5963 49.4547 71.7991 49.5223C71.7991 49.5223 71.7991 49.5223 71.7315 49.5223C71.7315 49.5223 71.7315 49.5223 71.7991 49.5223C72.0696 49.6575 72.4076 49.8603 72.6105 49.9956L72.5428 49.928C72.8809 50.1984 73.219 50.5365 73.557 50.9422C73.8951 51.3478 74.1656 51.8211 74.3684 52.362C74.5713 52.8353 74.7065 53.3086 74.7741 53.8495C74.8417 54.2552 74.8417 54.7285 74.7741 55.1342C74.7065 55.5399 74.6389 55.8779 74.5036 56.2836C74.3684 56.6217 74.1656 56.8922 73.9627 57.1626C73.9627 57.1626 73.9627 57.1626 73.9627 57.2302C73.6923 57.5683 73.4218 57.7711 73.1514 58.0416C72.8133 58.312 72.4076 58.5149 71.9343 58.7177H72.0019C71.5286 58.9206 71.0554 59.0558 70.5821 59.1234C70.1088 59.191 69.6355 59.191 69.0946 59.1234H69.1622H69.0946C69.0269 59.1234 68.9593 59.1234 68.8241 59.0558C68.7565 59.0558 68.6213 59.0558 68.5537 59.1234C68.486 59.191 68.4184 59.2586 68.4184 59.3262C68.3508 59.5291 68.486 59.7319 68.6889 59.7319C69.4326 59.8671 70.1088 59.8671 70.8525 59.7995C71.5286 59.6643 72.2724 59.4615 72.8809 59.0558C73.4218 58.7177 73.9627 58.312 74.3684 57.7711C74.5036 57.5683 74.7065 57.3654 74.7741 57.1626C74.9093 56.9598 74.9769 56.7569 75.1122 56.4865C75.5855 55.4047 75.5854 54.12 75.2474 53.0382C75.1122 52.4973 74.8417 51.8888 74.5712 51.4155C74.3008 50.9422 73.9627 50.4689 73.557 50.0632C72.8133 49.3194 71.9343 48.7109 70.8525 48.6433C70.7849 48.6433 70.7173 48.6433 70.6497 48.6433C70.3116 48.4405 69.8383 48.5757 69.5002 48.7785ZM69.2974 49.7251C69.2298 49.7251 69.2974 49.7251 69.2974 49.7251V49.7251ZM73.4894 50.8069C73.4894 50.8069 73.5571 50.8069 73.4894 50.8069C73.5571 50.8069 73.4894 50.8069 73.4894 50.8069Z" fill="#2C2C2C"/>
<path d="M70.2435 50.8069C69.8378 50.9421 69.4321 51.1449 69.0941 51.4154C68.756 51.6858 68.4179 52.0239 68.2151 52.4296C68.2151 52.4972 68.1475 52.4972 68.1475 52.5648V52.6324C68.1475 52.7676 68.2151 52.8353 68.3503 52.9029C68.4855 52.9705 68.756 52.9705 68.8236 52.7677C68.8912 52.6324 68.9588 52.4972 69.0941 52.4296C69.2293 52.2267 69.4321 52.0239 69.635 51.8887C69.8378 51.7534 70.0406 51.6182 70.2435 51.5506C70.4463 51.483 70.6492 51.4154 70.852 51.3478C71.0548 51.3478 71.2577 51.3478 71.4605 51.3478C71.6634 51.3478 71.7986 51.4154 72.0014 51.483C72.2043 51.5506 72.4071 51.6858 72.5423 51.8211C72.6776 51.9563 72.948 51.8211 73.0156 51.6858C73.0833 51.6182 73.0832 51.483 73.0832 51.4154C73.0832 51.3478 73.0156 51.2802 72.948 51.2125C72.5423 50.9421 72.069 50.7392 71.5958 50.6716C71.4605 50.6716 71.3253 50.6716 71.1901 50.6716C70.852 50.6716 70.5139 50.7392 70.2435 50.8069ZM71.3253 51.4154C71.3253 51.4154 71.3929 51.4154 71.3253 51.4154C71.3929 51.4154 71.3253 51.4154 71.3253 51.4154Z" fill="#2C2C2C"/>
<path d="M52.258 47.8996C52.3932 48.4405 52.5961 48.9138 52.8665 49.3871C53.0694 49.928 53.3398 50.4689 53.5427 51.0774C53.7455 51.6183 53.9484 52.1593 54.016 52.7002C54.0836 52.9706 54.0836 53.2411 54.0836 53.4439C54.0836 53.7144 54.0836 53.9172 54.016 54.1877C53.9484 54.5933 53.7455 54.999 53.4751 55.2695C53.2046 55.5399 52.8665 55.6752 52.4609 55.8104C52.258 55.878 52.0552 55.878 51.8523 55.9456C51.6495 55.9456 51.4467 55.9456 51.2438 55.9456C50.8381 55.9456 50.3648 55.878 49.9592 55.878C49.8915 55.878 49.7563 55.878 49.6887 55.7428C49.6211 55.6752 49.6211 55.6075 49.6211 55.4723C49.6211 55.4047 49.6887 55.2695 49.6887 55.2019C49.7563 55.1342 49.8239 55.0666 49.9592 55.1342C50.6353 55.2019 51.379 55.2695 52.0552 55.2019H51.9876C52.1904 55.2019 52.3932 55.1342 52.6637 55.0666C52.7989 54.999 52.8665 54.9314 52.9341 54.8638C53.0018 54.7962 53.0694 54.7286 53.137 54.661C53.2046 54.5933 53.2046 54.5257 53.2722 54.3905C53.3398 54.2553 53.3398 54.12 53.4075 53.9848C53.4075 53.7144 53.4075 53.4439 53.4075 53.1735C53.2722 52.2945 52.9341 51.4155 52.5961 50.6041C52.258 49.7252 51.8523 48.9138 51.5819 48.0348C51.5143 47.832 51.6495 47.6292 51.8523 47.6292H51.9199C52.0552 47.6292 52.1904 47.6968 52.258 47.8996ZM53.4075 53.9172C53.4075 53.9848 53.4075 53.9848 53.4075 53.9172C53.4075 53.9848 53.4075 53.9848 53.4075 53.9172Z" fill="#2C2C2C"/>
<path d="M42.1161 53.7141C43.0627 53.7141 43.8065 52.6999 43.8065 51.3477C43.8065 50.063 43.0627 48.9812 42.1161 48.9812C41.1695 48.9812 40.4258 49.9954 40.4258 51.3477C40.4258 52.6999 41.1695 53.7141 42.1161 53.7141Z" fill="#2C2C2C"/>
<path d="M59.8983 53.3763C58.9518 53.3763 58.208 52.3621 58.208 51.0098C58.208 49.7251 58.9518 48.6433 59.8983 48.6433C60.8449 48.6433 61.5887 49.6575 61.5887 51.0098C61.5887 52.3621 60.8449 53.3763 59.8983 53.3763Z" fill="#2C2C2C"/>
<path d="M41.8453 41.8142C41.5749 41.8142 41.3044 41.8142 41.0339 41.8818C40.7635 41.9494 40.4254 42.0171 40.155 42.0847C39.1408 42.3551 38.1942 42.9636 37.518 43.775C37.3828 43.9102 37.3828 44.1131 37.3828 44.3159C37.3828 44.5188 37.518 44.654 37.6533 44.7892C37.7885 44.9244 37.9913 44.9244 38.1942 44.9244C38.397 44.9244 38.5322 44.7892 38.6675 44.654C38.6675 44.654 38.6675 44.654 38.7351 44.5864C39.0055 44.3159 39.276 44.1131 39.6141 43.9102C39.9521 43.7074 40.3578 43.5722 40.7635 43.4369C41.1016 43.3693 41.4396 43.3017 41.7777 43.3017C42.0481 43.3017 42.3862 43.3017 42.6567 43.3693C42.7243 43.3693 42.7919 43.4369 42.8595 43.4369C43.1976 43.5722 43.6033 43.4369 43.7385 43.0313C43.8737 42.6932 43.7385 42.2199 43.3328 42.1523C42.8595 41.8818 42.3186 41.8142 41.8453 41.8142ZM40.6959 43.3693H40.6283H40.6959ZM38.8027 44.4511L38.7351 44.5187C38.7351 44.4511 38.7351 44.4511 38.8027 44.4511Z" fill="#2C2C2C"/>
<path d="M59.4253 41.4761C59.6958 41.4761 59.9662 41.4761 60.2367 41.5437C60.5071 41.6113 60.8452 41.6789 61.1157 41.7465C62.1299 42.017 63.0765 42.6255 63.7526 43.4369C63.8878 43.5721 63.8878 43.7749 63.8878 43.9778C63.8878 44.1806 63.7526 44.3158 63.6174 44.4511C63.4821 44.5863 63.2793 44.5863 63.0765 44.5863C62.8736 44.5863 62.7384 44.4511 62.6032 44.3158C62.6032 44.3158 62.6032 44.3158 62.5356 44.2482C62.2651 43.9778 61.9946 43.7749 61.6566 43.5721C61.3185 43.3692 60.9128 43.234 60.5072 43.0988C60.1691 43.0312 59.831 42.9636 59.493 42.9636C59.2225 42.9636 58.8844 42.9636 58.614 43.0312C58.5464 43.0312 58.4787 43.0988 58.4111 43.0988C58.0731 43.234 57.6674 43.0988 57.5322 42.6931C57.3969 42.3551 57.5322 41.8818 57.9378 41.8141C58.4111 41.5437 58.952 41.4761 59.4253 41.4761ZM60.5748 43.0312H60.6424H60.5748ZM62.4679 44.0454L62.5356 44.113C62.5356 44.113 62.5356 44.113 62.4679 44.0454Z" fill="#2C2C2C"/>
<path d="M51.9875 31.6047C51.6494 32.078 51.3113 32.5513 50.9056 33.0246C49.621 34.6473 48.0659 36.0672 46.3755 37.2842C44.8881 38.366 43.2653 39.245 41.575 39.9211C41.575 39.9211 41.575 39.9211 41.6426 39.9211C40.358 40.3944 39.0733 40.7325 37.721 40.8677C36.6392 41.003 35.625 40.9354 34.5432 40.8001C34.3404 40.7325 34.0699 40.7325 33.8671 40.6649C33.529 40.5973 33.2585 40.5297 32.9205 40.3944C32.312 40.1916 31.771 39.9211 31.1625 39.7859C30.9597 39.7183 30.7568 39.8535 30.7568 40.0564C30.6892 40.2592 30.8245 40.4621 31.0273 40.4621C31.5006 40.5973 31.9739 40.8001 32.4472 40.9354C32.65 41.003 32.9205 41.1382 33.1909 41.2058C33.4614 41.2734 33.7318 41.341 34.0023 41.4086C34.8813 41.6115 35.7602 41.6791 36.6392 41.6791C38.3972 41.6791 40.1551 41.2734 41.8454 40.6649C43.5358 40.0564 45.1585 39.1774 46.646 38.0956C48.1335 37.0814 49.4858 35.8643 50.7028 34.5121C51.4466 33.7007 52.1227 32.8217 52.7312 31.9428C52.8664 31.8075 52.7988 31.5371 52.596 31.4695C52.5284 31.4695 52.4608 31.4019 52.3932 31.4019C52.1903 31.4695 52.0551 31.5371 51.9875 31.6047Z" fill="#2C2C2C"/>
<path d="M52.123 31.8752C52.0554 33.0922 51.8525 34.3769 51.8525 35.5939C51.8525 36.2025 51.9201 36.7434 52.123 37.2843C52.3258 37.8252 52.5963 38.2309 53.002 38.5689C53.2048 38.7718 53.4753 38.907 53.7457 38.9746C54.0838 39.1098 54.4219 39.1775 54.7599 39.2451C55.1656 39.3127 55.5713 39.3127 55.977 39.2451C56.4502 39.2451 56.9235 39.1775 57.3292 39.1098C59.0196 38.7718 60.6423 37.9604 61.9269 36.811C62.3326 36.4053 62.7383 35.9996 63.0764 35.5939C63.482 35.1206 63.7525 34.5797 64.0906 34.0388C64.1582 33.9712 64.1582 33.9036 64.1582 33.7684C64.1582 33.7008 64.0906 33.5655 64.023 33.5655C63.8877 33.4303 63.6173 33.4979 63.5497 33.6332C63.2792 34.0388 63.0764 34.4445 62.7383 34.8502C62.4678 35.2559 62.1974 35.5939 61.8593 35.932C61.3184 36.4729 60.7099 37.0138 59.9662 37.4195C59.29 37.8252 58.6139 38.0956 57.8701 38.3661C57.0588 38.5689 56.2474 38.7042 55.4361 38.7042H55.5037C55.0304 38.7042 54.6247 38.7042 54.1514 38.5689C54.1514 38.5689 54.1514 38.5689 54.219 38.5689C54.219 38.5689 54.219 38.5689 54.1514 38.5689C54.1514 38.5689 54.1514 38.5689 54.0838 38.5689C53.8809 38.5013 53.6105 38.4337 53.4077 38.2985C53.2724 38.2309 53.1372 38.0956 53.002 38.028C52.8667 37.8928 52.7991 37.7576 52.6639 37.6223C52.5287 37.4195 52.4611 37.2167 52.3934 37.0138C52.2582 36.5405 52.1906 36.0672 52.1906 35.5939V35.6616C52.1906 34.4445 52.3934 33.2275 52.4611 32.0104C52.4611 31.8076 52.3258 31.6724 52.1906 31.6047C52.1906 31.6047 52.1906 31.6047 52.123 31.6047C52.2582 31.5371 52.123 31.6724 52.123 31.8752ZM52.6639 36.8786C52.7315 36.8786 52.7315 36.8786 52.6639 36.8786C52.7315 36.8786 52.7315 36.8786 52.6639 36.8786Z" fill="#2C2C2C"/>
<path d="M63.7526 33.4302C63.6174 33.5654 63.5498 33.7682 63.685 33.9035C63.9555 34.1739 64.1583 34.512 64.3612 34.85C64.6992 35.4586 65.0373 36.2023 65.2402 36.8784V36.8108C65.8487 38.9069 65.8487 41.0705 66.0515 43.1665C66.1867 44.1807 66.322 45.2625 66.66 46.2767C66.7953 46.75 66.9981 47.2233 67.2009 47.629C67.3362 47.8318 67.4714 48.0347 67.6066 48.2375C67.6742 48.3727 67.7418 48.4403 67.8095 48.5756C67.8771 48.7108 67.9447 48.7784 68.0799 48.9136C68.2151 49.0489 68.418 48.9813 68.5532 48.846C68.6208 48.7784 68.6208 48.6432 68.6208 48.5756L68.5532 48.508C68.4856 48.3727 68.3504 48.3051 68.2828 48.1699C68.2151 48.1023 68.2151 48.0347 68.1475 47.9671C68.0799 47.8994 68.0123 47.8318 68.0123 47.6966C67.6742 47.0881 67.4038 46.4796 67.2009 45.8034C66.0515 41.7466 67.1333 36.9461 64.226 33.4978C64.1583 33.4302 64.0231 33.3625 63.9555 33.3625C63.8879 33.3625 63.8203 33.4302 63.7526 33.4302ZM64.2936 34.85C64.3612 34.85 64.3612 34.85 64.2936 34.85C64.3612 34.85 64.3612 34.85 64.2936 34.85Z" fill="#2C2C2C"/>
<path d="M67.4709 23.9644C67.268 23.9644 67.1328 24.0996 67.1328 24.3024C67.1328 24.5053 67.268 24.6405 67.4709 24.6405C67.8766 24.6405 68.2822 24.6405 68.6879 24.7081C69.1612 24.7757 69.7021 24.9109 70.1754 25.1138C70.5811 25.3166 70.9868 25.5195 71.3249 25.7899H71.3925C71.7981 26.128 72.1362 26.4661 72.4743 26.8717C72.4743 26.8717 72.4743 26.8717 72.4743 26.9393C72.9476 27.5479 73.2856 28.224 73.6237 28.9001C74.2322 30.32 74.5027 31.8075 74.7731 33.295C74.7731 33.295 74.7731 33.295 74.7731 33.2274C74.976 34.8501 75.0436 36.4728 75.0436 38.0956C75.0436 39.5831 74.9084 41.0029 74.7055 42.4904V42.4228C74.4351 44.2484 74.097 46.0063 73.3533 47.7643C73.1504 48.3052 72.88 48.7785 72.6095 49.3194C72.5419 49.4546 72.5419 49.7251 72.7447 49.7927C72.88 49.8603 73.1504 49.8603 73.218 49.6575C73.6913 48.7785 74.1646 47.8319 74.4351 46.8853C74.7731 45.9387 74.976 44.9921 75.1788 44.0456C75.314 43.099 75.4493 42.22 75.5845 41.2734C75.7873 38.9745 75.855 36.6081 75.6521 34.3092C75.5169 33.0922 75.3817 31.9427 75.0436 30.7257C74.7731 29.6439 74.3675 28.5621 73.8266 27.6155C73.3533 26.7365 72.6771 25.9251 71.8658 25.3166C71.0544 24.7081 70.0402 24.3024 69.026 24.1672C68.6203 24.0996 68.2822 24.0996 67.8766 24.0996C67.6737 23.9644 67.5385 23.9644 67.4709 23.9644ZM70.1754 25.0462C70.1754 25.1138 70.1754 25.1138 70.1754 25.0462C70.1754 25.1138 70.1754 25.1138 70.1754 25.0462ZM74.7055 33.2274C74.7055 33.2274 74.7055 33.1598 74.7055 33.2274C74.7055 33.1598 74.7055 33.2274 74.7055 33.2274ZM71.3925 25.7899C71.3248 25.7899 71.3248 25.7899 71.3925 25.7899C71.3248 25.7899 71.3925 25.7899 71.3925 25.7899Z" fill="#2C2C2C"/>
<path d="M51.1757 17.1352C50.0939 17.1352 49.0121 17.2028 47.9303 17.3381C46.9837 17.4057 45.9695 17.4733 45.0229 17.6085C43.4678 17.8114 41.9127 18.1494 40.3576 18.6903C37.4502 19.6369 34.6781 21.192 32.3792 23.2881C31.2298 24.3023 30.2832 25.4517 29.4718 26.7363C28.5928 28.021 27.9843 29.4409 27.511 30.9284C27.2406 31.6721 27.1054 32.4835 26.9701 33.2948C26.8349 34.1062 26.7673 34.9852 26.6997 35.8642C26.6321 37.8249 26.6321 39.7857 26.9025 41.6789C27.2406 44.4511 27.9167 47.2232 29.2014 49.6573C29.269 49.7925 29.5394 49.8601 29.6747 49.7925C29.8775 49.7249 29.8775 49.4545 29.8099 49.3192C29.5394 48.8459 29.3366 48.4403 29.1338 47.967C28.3224 46.0738 27.8491 44.113 27.5786 42.0846V42.1522C27.3758 40.7999 27.3082 39.3801 27.3082 38.0278C27.3082 37.3517 27.3082 36.6755 27.3758 35.9318C27.3758 35.3232 27.4434 34.6471 27.511 34.0386V34.1062C27.7139 32.6187 28.1196 31.1312 28.6605 29.7113V29.6437C29.2014 28.3591 29.9451 27.142 30.8241 25.9926C30.8241 25.9926 30.8241 25.925 30.8917 25.925C31.8383 24.7079 32.9877 23.6261 34.2048 22.6795C35.6246 21.5977 37.2474 20.6511 38.9377 19.975C40.8985 19.1636 42.9945 18.6227 45.0905 18.2847H45.0229C45.9019 18.1494 46.8485 18.0818 47.7951 18.0142C48.8769 17.9466 49.9587 17.879 50.9729 17.8114C53.0689 17.7437 55.1649 17.8114 57.261 18.0818H57.1933C58.4104 18.2847 59.6274 18.4875 60.8445 18.8256C61.7234 19.096 62.6024 19.4341 63.4138 19.7722C64.2927 20.1102 65.1041 20.5835 65.8479 21.1244C66.1859 21.3949 66.4564 21.6653 66.6592 21.9358C66.7944 22.1386 66.9297 22.3415 67.0649 22.5443C67.1325 22.7471 67.2001 22.8824 67.2001 23.0852C67.2001 23.2881 67.2001 23.4909 67.2001 23.6937C67.2001 23.829 67.1325 23.9642 67.1325 24.0994C67.0649 24.3023 67.2001 24.5051 67.403 24.5051C67.6058 24.5727 67.8086 24.4375 67.8086 24.2346C67.8763 23.8966 67.9439 23.6261 67.9439 23.2881C67.9439 22.95 67.8763 22.6119 67.741 22.3415C67.5382 21.7329 67.1325 21.2596 66.6592 20.7864C66.1859 20.3131 65.5774 19.975 64.9689 19.6369C64.3604 19.2989 63.7518 19.0284 63.1433 18.8256C62.332 18.4875 61.5206 18.217 60.7092 18.0142C59.695 17.7437 58.6132 17.4733 57.599 17.3381C55.9763 17.0676 54.286 17 52.6632 17C52.1223 17.1352 51.649 17.1352 51.1757 17.1352ZM66.524 21.8682C66.524 21.9358 66.524 21.9358 66.524 21.8682C66.524 21.9358 66.524 21.9358 66.524 21.8682ZM28.6605 29.7113C28.6605 29.7113 28.6605 29.6437 28.6605 29.7113C28.6605 29.6437 28.6605 29.7113 28.6605 29.7113Z" fill="#2C2C2C"/>
<path d="M41.1024 79.3396C40.9671 79.4072 40.8319 79.6776 40.9671 79.8129C41.1024 79.9481 41.17 80.0833 41.3052 80.2185L41.3728 80.2862C41.3728 80.2862 41.3728 80.2862 41.3728 80.3538C42.387 81.6384 43.4688 82.7879 44.6859 83.8021C45.362 84.343 46.0382 84.8163 46.7819 85.2219C47.5257 85.6276 48.2694 85.8981 49.0132 86.1009C49.7569 86.3038 50.5683 86.439 51.3796 86.5066C52.2586 86.5742 53.1376 86.439 54.0165 86.3038C55.5717 85.9657 56.9915 85.2896 58.2762 84.343C58.479 84.2077 58.6143 84.0725 58.8171 83.9373L58.8847 83.8697C58.8847 83.8697 58.8847 83.8697 58.9523 83.8021C58.9523 83.8021 59.0199 83.8021 59.0199 83.7344C59.0875 83.6668 59.1552 83.5992 59.2228 83.5316C59.4932 83.3288 59.6961 83.1259 59.9665 82.8555C59.9665 82.8555 60.0341 82.8555 60.0341 82.7879C60.1694 82.6526 60.3046 82.5174 60.4398 82.4498C60.7103 82.1793 60.9131 81.9089 61.1836 81.6384C61.1836 81.5708 61.2512 81.5708 61.2512 81.5032L61.3188 81.4356C61.3188 81.368 61.3864 81.368 61.3864 81.3004C61.454 81.2327 61.454 81.1651 61.454 81.0299C61.454 80.9623 61.3864 80.8271 61.3864 80.7595C61.2512 80.6242 60.9807 80.6242 60.9131 80.7595C60.8455 80.8271 60.8455 80.8271 60.7779 80.8947C60.7779 80.9623 60.7103 80.9623 60.7103 81.0299L60.575 81.1651C60.3046 81.4356 60.0341 81.7737 59.7637 82.0441C59.6961 82.1117 59.5609 82.247 59.4932 82.3146C59.2228 82.585 58.8847 82.8555 58.6143 83.1259C58.5466 83.1935 58.479 83.2612 58.4114 83.3288C58.4114 83.3288 58.4114 83.3288 58.3438 83.3288C58.2762 83.3288 58.2762 83.3964 58.2086 83.3964C58.2086 83.3964 58.2086 83.3964 58.2762 83.3288C57.3972 84.0049 56.4506 84.5458 55.4364 85.0191C55.4364 85.0191 55.4364 85.0191 55.3688 85.0191C55.3688 85.0191 55.3688 85.0191 55.3012 85.0191C54.4898 85.3572 53.6109 85.6276 52.7319 85.6952H52.7995C51.9205 85.8305 51.1092 85.8305 50.2302 85.6952C49.3512 85.56 48.4722 85.2896 47.6609 84.9515C46.7143 84.5458 45.8353 84.0049 44.9563 83.3288C43.7393 82.3822 42.6575 81.2327 41.7109 80.0157C41.7109 79.9481 41.6433 79.9481 41.6433 79.8805C41.6433 79.8805 41.6433 79.8129 41.5757 79.8129C41.4404 79.6776 41.3728 79.5424 41.2376 79.3396C41.17 79.272 41.1024 79.2043 41.0348 79.2043H40.9671C41.2376 79.272 41.17 79.3396 41.1024 79.3396ZM55.6393 85.0867C55.6393 85.0867 55.6393 85.0191 55.6393 85.0867C55.7069 85.0191 55.7069 85.0191 55.6393 85.0867C55.7069 85.0191 55.6393 85.0191 55.6393 85.0867Z" fill="#2C2C2C"/>
<path d="M39.4118 80.0158C39.2765 80.0834 39.2089 80.3539 39.2765 80.4891C39.4794 80.7596 39.6146 81.03 39.8174 81.3005C39.8174 81.3681 39.8851 81.3681 39.8851 81.4357C40.8993 82.9232 41.9811 84.2755 43.3333 85.4249C44.0771 86.101 44.8208 86.6419 45.6322 87.1828C46.4436 87.7237 47.3225 88.1294 48.2691 88.4675C49.2157 88.8056 50.1623 89.0084 51.1089 89.076C52.0555 89.1436 53.0021 89.076 53.9486 88.8732C55.7742 88.5351 57.5322 87.6561 59.0197 86.5743C60.1691 85.763 61.1157 84.7488 62.0623 83.7346C62.0623 83.7346 62.0623 83.7346 62.0623 83.6669C62.1299 83.5993 62.1975 83.5317 62.2651 83.4641C62.2651 83.4641 62.2651 83.4641 62.2651 83.3965C62.5356 83.0584 62.806 82.788 63.0089 82.4499C63.0089 82.4499 63.0089 82.4499 63.0089 82.3823C63.0089 82.3823 63.0089 82.3823 63.0089 82.3147C63.0089 82.3147 63.0088 82.2471 63.0765 82.2471C63.0765 82.2471 63.0765 82.2471 63.0765 82.1794C63.0765 82.1118 63.1441 82.1118 63.1441 82.0442C63.1441 82.0442 63.1441 81.9766 63.2117 81.9766L63.2793 81.909V81.8414L63.3469 81.7738C63.4145 81.7062 63.4145 81.6385 63.4821 81.5709C63.6174 81.4357 63.4821 81.1652 63.3469 81.0976C63.1441 80.9624 62.9412 81.0976 62.8736 81.2329C62.806 81.3005 62.806 81.3681 62.7384 81.4357L62.6708 81.5033L62.6032 81.5709C62.6032 81.5709 62.6032 81.5709 62.6032 81.6385L62.5356 81.7062C62.5356 81.7062 62.5356 81.7738 62.4679 81.7738C62.4679 81.7738 62.4679 81.8414 62.4003 81.8414C62.3327 81.9766 62.2651 82.0442 62.1975 82.1794C62.1975 82.1794 62.1975 82.1794 62.1975 82.2471C61.9947 82.4499 61.8594 82.7204 61.6566 82.9232L61.589 82.9908C61.5214 83.0584 61.5214 83.126 61.4537 83.126C60.6424 84.0726 59.7634 84.884 58.8168 85.6277C57.8702 86.3039 56.9236 86.9124 55.8418 87.3857C55.8418 87.3857 55.8418 87.3857 55.9094 87.3857C55.0305 87.7238 54.1515 87.9942 53.2049 88.1294C52.2583 88.2647 51.3117 88.2647 50.3651 88.1294H50.4327C49.4862 87.9942 48.6072 87.7238 47.7282 87.3857C46.6464 86.9124 45.6322 86.3039 44.6856 85.5601C44.6856 85.5601 44.6856 85.5601 44.7532 85.6277C43.4686 84.6135 42.3191 83.3965 41.3049 82.1118C41.3049 82.1118 41.3049 82.1118 41.3049 82.0442C40.9669 81.6385 40.6964 81.2329 40.3583 80.7596C40.1555 80.4891 40.0203 80.2187 39.8174 79.9482C39.7498 79.813 39.6146 79.7454 39.4794 79.7454C39.547 79.9482 39.4794 80.0158 39.4118 80.0158ZM53.2049 88.3323C53.1373 88.3323 53.1373 88.3323 53.2049 88.3323V88.3323ZM41.3725 82.2471C41.3725 82.3147 41.3725 82.3147 41.3725 82.2471C41.3725 82.3147 41.3725 82.2471 41.3725 82.2471Z" fill="#2C2C2C"/>
<path d="M41.3049 44.3837H41.2373C41.1697 44.3837 41.0344 44.3837 40.9668 44.3837C40.6964 44.3837 40.4259 44.4513 40.2231 44.519C40.1555 44.519 40.0202 44.5866 39.9526 44.5866C39.4793 44.7218 39.006 44.9246 38.5327 45.1951C38.4651 45.2627 38.3299 45.2627 38.2623 45.3303C37.8566 45.6008 37.4509 45.8712 37.1128 46.2093C37.0452 46.2769 36.9776 46.3445 36.9776 46.3445C36.7072 46.615 36.4367 46.8854 36.2339 47.2235C36.031 47.4263 35.8958 47.6968 35.7606 47.9672C35.5577 48.3053 35.4225 48.711 35.2873 49.1167C35.2873 49.1843 35.2197 49.3195 35.2197 49.3871C35.0844 49.8604 35.0168 50.4013 34.9492 50.9422C34.9492 51.1451 34.9492 51.3479 34.9492 51.5508C34.9492 51.6184 34.9492 51.7536 34.9492 51.8212C34.9492 52.2269 35.0844 52.7002 35.1521 53.1059C35.2197 53.2411 35.2197 53.3763 35.2873 53.5116C35.3549 53.7144 35.4901 53.9848 35.5577 54.1877V54.2553C35.8282 54.7962 36.0986 55.2695 36.5043 55.6752C36.7748 56.0132 37.1805 56.3513 37.5185 56.6894C37.8566 56.9598 38.1947 57.1627 38.5327 57.3655C38.5327 57.3655 38.5327 57.3655 38.6003 57.3655C38.668 57.4331 38.8032 57.4331 38.8708 57.5007C39.1413 57.636 39.4117 57.7712 39.6822 57.8388C39.8174 57.8388 39.885 57.9064 40.0202 57.9064C40.4259 58.0417 40.8316 58.0417 41.1697 58.1093C41.1697 58.1093 41.1697 58.1093 41.2373 58.1093C41.4401 58.1093 41.6429 58.1093 41.8458 58.1093C42.3191 58.1093 42.7924 58.0417 43.2657 57.974C43.8066 57.8388 44.2799 57.7036 44.8208 57.4331C45.7674 57.0274 46.5787 56.3513 47.1872 55.54C47.7958 54.7962 48.2691 53.9172 48.5395 52.9706C48.6747 52.4973 48.7424 52.0241 48.7424 51.4831C48.7424 50.9422 48.7424 50.4689 48.6748 49.928C48.5395 48.9138 48.1338 47.9672 47.5253 47.1559C46.9844 46.3445 46.3083 45.736 45.4969 45.1951C44.8884 44.7894 44.2123 44.519 43.4685 44.3161C43.4685 44.3161 43.4685 44.3161 43.4009 44.3161C43.3333 44.3161 43.1981 44.2485 43.1304 44.2485C42.9952 44.2485 42.86 44.1809 42.7924 44.1809C42.4543 44.1133 42.1162 44.1133 41.7782 44.1133C41.7106 44.3161 41.5077 44.3161 41.3049 44.3837ZM42.1162 45.0599C42.3191 45.0599 42.5219 45.0599 42.7248 45.1275C43.2657 45.1951 43.8066 45.3303 44.2799 45.5332C44.8208 45.736 45.2941 46.0065 45.6998 46.3445C46.1054 46.6826 46.5111 47.0207 46.7816 47.4263C47.1196 47.832 47.3901 48.3053 47.5929 48.8462C47.7958 49.3871 47.931 49.928 48.0662 50.4689C48.1338 51.0099 48.1338 51.4831 48.0662 52.0241C47.9986 52.565 47.8634 53.1059 47.6606 53.6468C47.4577 54.1201 47.1872 54.5934 46.8492 55.0667C46.5111 55.4723 46.1731 55.8104 45.7674 56.1485C45.3617 56.4865 44.8884 56.757 44.3475 56.9598C43.8066 57.1627 43.1981 57.3655 42.6571 57.4331H42.7248C42.1839 57.5007 41.5753 57.5007 41.0344 57.4331C40.9668 57.4331 40.8992 57.4331 40.8316 57.4331H40.764C40.2907 57.3655 39.885 57.2303 39.4793 57.0274C39.4117 57.0274 39.3441 56.9598 39.2765 56.8922C38.8708 56.6894 38.4651 56.4189 38.0594 56.1485C37.6538 55.8104 37.3157 55.4723 36.9776 55.0667L36.91 54.999C36.8424 54.8638 36.7072 54.7286 36.6396 54.5934C36.4367 54.3229 36.3015 53.9848 36.1663 53.7144C36.0986 53.5115 35.9634 53.2411 35.8958 53.0383V52.9706V52.903C35.8958 52.903 35.8958 52.903 35.8958 52.8354V52.7678C35.8958 52.7678 35.8958 52.7678 35.8958 52.7002C35.8958 52.7002 35.8958 52.7002 35.8958 52.6326V52.565C35.8958 52.565 35.8958 52.565 35.8958 52.4974V52.4297V52.3621C35.8958 52.2945 35.8958 52.2269 35.8958 52.2269V52.1593C35.8958 52.0917 35.8958 52.0917 35.8958 52.0241C35.8958 51.7536 35.8282 51.4831 35.8958 51.2127C35.8958 51.2127 35.8958 51.2127 35.8958 51.1451V51.0775V51.0099C35.8958 50.807 35.8958 50.6042 35.9634 50.4689C36.031 49.928 36.1663 49.3871 36.3691 48.9138C36.5719 48.3729 36.8424 47.8996 37.1805 47.494C37.5185 47.0883 37.9242 46.6826 38.3299 46.3445C38.7356 46.0065 39.2089 45.736 39.6822 45.5332C40.2231 45.3303 40.6964 45.1951 41.2373 45.0599C41.3049 45.0599 41.3049 45.0599 41.3725 45.0599C41.4401 45.0599 41.7782 45.0599 42.1162 45.0599Z" fill="#2C2C2C"/>
<path d="M59.5604 44.654C59.29 44.7216 59.0872 44.7893 58.8167 44.8569C58.7491 44.8569 58.6815 44.9245 58.6815 44.9245C58.411 44.9921 58.2082 45.1273 57.9377 45.1949C57.3292 45.4654 56.7883 45.8711 56.315 46.2767C56.2474 46.3444 56.2474 46.3444 56.1798 46.412C55.7741 46.8177 55.436 47.291 55.098 47.7642C55.098 47.8319 55.0303 47.8995 55.0303 47.8995C54.6923 48.508 54.4218 49.1841 54.2866 49.9279C54.219 50.3336 54.1514 50.8068 54.1514 51.2801C54.1514 51.3478 54.1514 51.4154 54.1514 51.4154C54.1514 51.6858 54.1514 51.8887 54.219 52.1591C54.219 52.4296 54.2866 52.7 54.3542 52.9705C54.4218 53.2409 54.4894 53.5114 54.6247 53.7818C54.6923 53.8495 54.6923 53.9847 54.7599 54.0523C54.7599 54.1199 54.7599 54.1199 54.8275 54.1875C54.8275 54.2551 54.8275 54.2551 54.8951 54.3227C55.1656 54.9313 55.5036 55.4722 55.9093 55.9455V56.0131C56.1122 56.2835 56.315 56.4864 56.5855 56.6892C56.8559 56.9597 57.194 57.1625 57.532 57.3654C57.9377 57.6358 58.411 57.8386 58.8843 58.0415C58.9519 58.0415 58.9519 58.0415 59.0195 58.1091C59.8985 58.3796 60.9127 58.5148 61.8593 58.3796C62.8735 58.2443 63.8877 57.9739 64.7667 57.433C65.6457 56.8921 66.3894 56.2159 66.9303 55.4046C67.5388 54.5256 67.8769 53.5114 68.0797 52.4972C68.215 51.483 68.1474 50.4012 67.8093 49.4546C67.5388 48.508 66.9979 47.629 66.3218 46.8177C66.0513 46.4796 65.6457 46.1415 65.3076 45.8711C64.9019 45.6006 64.4962 45.3302 64.0229 45.1273C63.2116 44.7893 62.3326 44.5864 61.4536 44.5188C61.4536 44.5188 61.4536 44.5188 61.386 44.5188C61.3184 44.5188 61.2508 44.5188 61.2508 44.5188C61.1832 44.5188 61.1832 44.5188 61.1156 44.5188C60.507 44.5188 60.0337 44.5188 59.5604 44.654ZM61.9269 45.2625H61.8593C62.4002 45.3302 62.9411 45.4654 63.482 45.7358C63.9553 45.9387 64.4286 46.2091 64.8343 46.5472C65.3076 46.8853 65.6457 47.291 66.0513 47.7642L65.9837 47.6966C66.3218 48.1699 66.5922 48.6432 66.7951 49.1165C66.9979 49.5898 67.1332 50.1307 67.2008 50.6716C67.2684 51.2125 67.2684 51.7534 67.2008 52.362C67.1332 52.9029 66.9979 53.4438 66.7951 53.9847C66.5922 54.458 66.3218 54.9313 65.9837 55.4046C65.6457 55.8102 65.24 56.2159 64.7667 56.554L64.8343 56.4864C64.361 56.8245 63.8877 57.0949 63.4144 57.2977C62.8735 57.5006 62.4002 57.6358 61.7917 57.7034H61.8593C61.2508 57.771 60.6423 57.771 60.1014 57.7034C59.5604 57.6358 59.0195 57.5006 58.4786 57.2301C58.4786 57.2301 58.4786 57.2301 58.411 57.2301C58.411 57.2301 58.411 57.2301 58.3434 57.2301C58.3434 57.2301 58.2758 57.2301 58.2758 57.1625C58.2758 57.1625 58.2082 57.1625 58.2082 57.0949C58.2082 57.0949 58.1406 57.0949 58.1406 57.0273H58.0729C58.0729 57.0273 58.0729 57.0273 58.0053 57.0273C57.7349 56.8921 57.4644 56.6892 57.194 56.4864C57.0587 56.3512 56.9235 56.2835 56.7883 56.1483C56.7883 56.1483 56.7207 56.1483 56.7207 56.0807C56.7207 56.0807 56.7207 56.0807 56.6531 56.0131L56.5855 55.9455L56.5178 55.8779C56.3826 55.7426 56.315 55.6074 56.1798 55.4722L56.1122 55.4046C56.1122 55.4046 56.1122 55.4046 56.0445 55.337C55.7065 54.8637 55.436 54.3904 55.2332 53.9171V53.8495C55.2332 53.8495 55.2332 53.8495 55.2332 53.7818C55.098 53.4438 55.0303 53.1057 54.9627 52.7676V52.7C54.9627 52.7 54.9627 52.7 54.9627 52.6324C54.9627 52.4972 54.8951 52.4296 54.8951 52.2943C54.8951 52.2267 54.8951 52.1591 54.8951 52.0915C54.8275 51.5506 54.8275 51.0773 54.8951 50.5364C54.8951 50.3336 54.9627 50.0631 55.0303 49.8603C55.098 49.5898 55.1656 49.2517 55.3008 48.9813C55.436 48.6432 55.5713 48.3728 55.7741 48.1023C55.7741 48.1023 55.7741 48.0347 55.8417 48.0347C55.9093 47.8995 56.0445 47.7642 56.1798 47.5614C56.2474 47.4938 56.2474 47.4262 56.315 47.3586L56.3826 47.2909C56.3826 47.2909 56.3826 47.291 56.4502 47.2233L56.5178 47.1557L56.5855 47.0881C56.7883 46.8853 56.9911 46.6824 57.2616 46.4796C57.2616 46.4796 57.3292 46.4796 57.3292 46.412C57.532 46.2768 57.7349 46.1415 57.9377 46.0063C58.1406 45.8711 58.3434 45.7358 58.6139 45.6682C58.6815 45.6682 58.7491 45.6006 58.7491 45.6006C59.0872 45.4654 59.4252 45.3302 59.8309 45.2625C60.0337 45.1949 60.2366 45.1949 60.3718 45.1273C60.7775 45.1949 61.386 45.1949 61.9269 45.2625ZM63.482 45.6682C63.482 45.6682 63.5496 45.7358 63.482 45.6682C63.5496 45.7358 63.482 45.6682 63.482 45.6682ZM67.2008 52.2943C67.2008 52.2943 67.2008 52.362 67.2008 52.2943C67.2008 52.362 67.2008 52.2943 67.2008 52.2943ZM63.4144 57.2301H63.3468C63.4144 57.2301 63.4144 57.2301 63.4144 57.2301Z" fill="#2C2C2C"/>
<path d="M51.4462 49.2519C50.432 49.3195 49.4178 49.59 48.4712 49.9957C48.2684 50.0633 48.2008 50.3337 48.336 50.469C48.4036 50.6718 48.6064 50.6718 48.8093 50.6042C49.0121 50.5366 49.2149 50.4014 49.4178 50.3337C50.0263 50.1309 50.7024 49.9957 51.3786 49.9281H51.311C51.9195 49.8604 52.528 49.9281 53.0689 49.9957C53.4746 50.0633 53.8803 50.1985 54.286 50.3337C54.4888 50.4014 54.6916 50.2661 54.7593 50.1309C54.8269 49.9281 54.6916 49.7252 54.5564 49.6576C54.0831 49.4548 53.6098 49.3872 53.1365 49.2519C52.7308 49.1843 52.3252 49.1167 51.9195 49.1167C51.649 49.1843 51.5138 49.1843 51.4462 49.2519Z" fill="#2C2C2C"/>
<path d="M54.4223 57.3654V57.5683C54.4223 57.6359 54.4223 57.7035 54.4223 57.7035C54.4223 57.7711 54.4223 57.8387 54.4223 57.9063V57.8387C54.3546 58.1092 54.287 58.3796 54.2194 58.6501C54.0842 58.8529 54.0166 59.0557 53.8137 59.2586C53.6785 59.4614 53.4757 59.6643 53.2728 59.7995C53.07 59.9347 52.7995 60.07 52.5967 60.2052C52.3938 60.2728 52.1234 60.3404 51.8529 60.408C51.5825 60.4756 51.2444 60.4756 50.974 60.408C50.7035 60.3404 50.5007 60.2728 50.2302 60.2052C49.9598 60.07 49.7569 59.9347 49.5541 59.7995C49.3512 59.6643 49.216 59.4614 49.0132 59.2586C48.878 59.0557 48.7427 58.7853 48.6075 58.5825C48.5399 58.312 48.4723 58.1092 48.4047 57.8387C48.4047 57.7711 48.4047 57.6359 48.4047 57.5683C48.4047 57.3654 48.2694 57.2302 48.0666 57.2302C47.8637 57.2302 47.7285 57.3654 47.7285 57.5683C47.7285 57.8387 47.7961 58.1092 47.8637 58.3796C47.9314 58.6501 48.0666 58.9205 48.2018 59.191C48.4046 59.5967 48.7427 60.0023 49.1484 60.3404C49.8922 60.9489 50.9064 61.2194 51.8529 61.1518C52.8671 61.0165 53.7461 60.5432 54.3546 59.7319C54.8279 59.191 55.0984 58.4472 55.0984 57.7711C55.0984 57.6359 55.0984 57.5683 55.0984 57.433V57.3654C55.0984 57.1626 54.9632 57.0273 54.7603 57.0273C54.5575 57.0273 54.4223 57.1626 54.4223 57.3654ZM51.8529 60.4756C51.7853 60.4756 51.7853 60.4756 51.8529 60.4756C51.7853 60.4756 51.7853 60.4756 51.8529 60.4756ZM50.974 60.4756C51.0416 60.4756 51.0416 60.4756 50.974 60.4756C51.0416 60.4756 51.0416 60.4756 50.974 60.4756Z" fill="#2C2C2C"/>
</g>
</svg>
