<svg width="100" height="100" viewBox="0 0 100 100" fill="none" xmlns="http://www.w3.org/2000/svg">
<rect x="1.5" y="1.5" width="97" height="97" rx="48.5" fill="#FAFAFA" stroke="#C5E1DB" stroke-width="3"/>
<mask id="mask0" mask-type="alpha" maskUnits="userSpaceOnUse" x="3" y="3" width="94" height="94">
<rect x="4.5" y="4.5" width="91" height="91" rx="45.5" fill="white" stroke="#C5E1DB" stroke-width="3"/>
</mask>
<g mask="url(#mask0)">
<path d="M56.428 74.7878C56.2449 74.7878 56.0618 74.7878 55.8788 74.8489H55.7567L55.3906 74.9099L55.0245 74.9709L54.5973 75.0319L54.3532 75.093H54.1701H53.9871H53.804C53.3158 75.154 52.7056 75.215 52.1564 75.276C51.8513 75.276 51.5462 75.3371 51.3021 75.3371H51.058H50.936C50.7529 75.3371 50.5698 75.3981 50.3258 75.3981C49.9596 75.3981 49.5325 75.3981 49.1663 75.3981H48.8612H48.5561C48.373 75.3981 48.19 75.3981 48.0069 75.3981C47.8849 75.3981 47.7628 75.3981 47.6408 75.3981H47.3357C47.1526 75.3981 46.9085 75.3981 46.7254 75.3981C46.2983 75.3981 45.6881 75.3371 45.0779 75.276L45.1389 75.3371L44.9558 75.276H44.7727L44.4066 75.215L44.0405 75.154C43.9184 75.154 43.7354 75.093 43.6133 75.093C43.4913 75.093 43.4913 75.093 43.4303 75.093C43.1251 75.093 42.82 75.276 42.637 75.5201C42.5759 75.5811 42.5149 75.7032 42.4539 75.8252C42.3929 76.0083 42.3929 76.1303 42.3319 76.2524C42.3319 76.3744 42.3319 76.4355 42.2708 76.4965V76.6185L42.1488 76.6795C42.0267 76.6795 41.9657 76.7406 41.8437 76.7406L41.6606 76.8016C41.3555 76.8626 40.9894 76.9846 40.6843 77.1067C40.3791 77.2287 40.1351 77.4728 39.891 77.6559C39.7689 77.7779 39.6469 77.9 39.5248 78.022C39.4638 78.083 39.4028 78.1441 39.4028 78.2051C39.3418 78.2661 39.3418 78.3271 39.2807 78.3882C39.2807 78.4492 39.2197 78.5102 39.2197 78.5712V78.6322C39.2197 78.6933 39.2197 78.7543 39.2197 78.8153C39.2197 78.8763 39.2197 78.8763 39.2197 78.9374C39.2197 79.1814 39.3418 79.3645 39.5859 79.3645C39.7079 79.3645 39.8299 79.2425 39.891 79.1204C39.952 79.1814 40.074 79.2425 40.1351 79.3035C40.2571 79.3645 40.4402 79.4255 40.5622 79.4866C41.0504 79.6086 41.5386 79.7306 41.9657 79.7917H42.0267H42.1488C42.3319 79.7917 42.4539 79.8527 42.637 79.8527C43.0031 79.9137 43.3692 79.9137 43.7354 79.9747C44.1625 80.0357 44.5287 80.0358 44.9558 80.0968H45.0168C45.505 80.1578 46.0542 80.2188 46.6644 80.2798H47.0306C47.2136 80.2798 47.3967 80.2798 47.6408 80.3409H48.0069C48.19 80.3409 48.373 80.3409 48.5561 80.3409C48.8612 80.3409 49.1663 80.3409 49.5325 80.3409C49.8376 80.3409 50.1427 80.3409 50.4478 80.3409C50.7529 80.3409 51.058 80.3409 51.3631 80.3409H51.6072H51.8513C51.9734 80.3409 52.0954 80.3409 52.2174 80.3409H52.4005C52.5226 80.3409 52.7056 80.3409 52.8277 80.3409C52.9497 80.3409 53.1328 80.3409 53.2548 80.3409C53.3769 80.3409 53.4379 80.3409 53.5599 80.3409H53.804C53.9871 80.3409 54.1091 80.3409 54.2922 80.2798H54.7193C54.9024 80.2798 55.0855 80.2798 55.2685 80.2188C55.5126 80.2188 55.7567 80.1578 56.0008 80.1578H56.1229C56.3669 80.0968 56.611 80.0968 56.8551 80.0968C57.0382 80.0968 57.2823 80.0357 57.4653 80.0357H57.5874H57.7094L58.2586 79.9747H58.3807L59.296 79.8527C59.5401 79.7917 59.8452 79.7917 60.0893 79.7917C60.1503 79.7917 60.2724 79.7917 60.3334 79.7917H60.4554C60.6385 79.7917 60.7605 79.7306 60.8216 79.6696C60.9436 79.6086 61.0046 79.4866 61.0046 79.4255C61.0046 79.3035 61.0046 79.2425 61.0046 79.1204C61.0046 79.0594 60.9436 78.9374 60.8826 78.8763C60.7605 78.6322 60.5775 78.4492 60.3944 78.2661L60.2113 78.0831C60.0893 77.961 59.9062 77.839 59.7842 77.7169C59.6011 77.5949 59.4181 77.4728 59.235 77.3508C59.1129 77.2898 58.9909 77.2287 58.9299 77.1677C58.8689 77.1067 58.7468 77.1067 58.6858 77.0457L58.5637 76.9846C58.4417 76.9236 58.3197 76.9236 58.1976 76.8626H58.1366L57.8925 76.8016C57.8315 76.8016 57.8315 76.7406 57.8315 76.7406V76.6795C57.8315 76.6185 57.8315 76.5575 57.7705 76.5575C57.7094 76.4965 57.7094 76.3744 57.6484 76.3134L57.5874 76.2524C57.5874 76.1914 57.5264 76.0693 57.4653 75.9473C57.4653 75.8863 57.4043 75.8862 57.4043 75.8252C57.4043 75.8252 57.4043 75.7642 57.3433 75.7642C57.2823 75.6422 57.2823 75.5811 57.2213 75.5201C57.1602 75.4591 57.0382 75.3981 56.9161 75.3981C56.8551 75.3981 56.7941 75.3981 56.7331 75.3371H56.6721C56.55 74.7879 56.489 74.7878 56.428 74.7878Z" fill="#3E768C"/>
<path d="M49.6554 49.769C49.5334 50.2572 49.3503 50.6843 49.1062 51.1115C48.9231 51.5997 48.6791 52.0878 48.496 52.637C48.3129 53.1252 48.1299 53.6134 48.0688 54.1016C48.0078 54.3457 48.0078 54.5897 48.0078 54.7728C48.0078 55.0169 48.0078 55.2 48.0688 55.4441C48.1299 55.8102 48.3129 56.1763 48.557 56.4204C48.8011 56.6645 49.1062 56.7865 49.4723 56.9086C49.6554 56.9696 49.8385 56.9696 50.0215 57.0306C50.2046 57.0306 50.3877 57.0306 50.5707 57.0306C50.9369 57.0306 51.364 56.9696 51.7302 56.9696C51.7912 56.9696 51.9132 56.9696 51.9743 56.8476C52.0353 56.7865 52.0353 56.7255 52.0353 56.6035C52.0353 56.5425 51.9743 56.4204 51.9743 56.3594C51.9132 56.2984 51.8522 56.2373 51.7302 56.2984C51.1199 56.3594 50.4487 56.4204 49.8385 56.3594H49.8995C49.7164 56.3594 49.5334 56.2984 49.2893 56.2373C49.1672 56.1763 49.1062 56.1153 49.0452 56.0543C48.9842 55.9933 48.9231 55.9322 48.8621 55.8712C48.8011 55.8102 48.8011 55.7492 48.7401 55.6271C48.6791 55.5051 48.6791 55.383 48.618 55.261C48.618 55.0169 48.618 54.7728 48.618 54.5287C48.7401 53.7354 49.0452 52.9421 49.3503 52.2099C49.6554 51.4166 50.0215 50.6843 50.2656 49.891C50.3267 49.708 50.2046 49.5249 50.0215 49.5249H49.9605C49.8385 49.5249 49.7164 49.6469 49.6554 49.769ZM48.6791 54.4677C48.6791 54.4677 48.6791 54.5287 48.6791 54.4677C48.6791 54.5287 48.6791 54.4677 48.6791 54.4677Z" fill="#2C2C2C"/>
<path d="M42.2101 54.7725C43.0644 54.7725 43.7357 53.8572 43.7357 52.6368C43.7357 51.4773 43.0644 50.501 42.2101 50.501C41.3558 50.501 40.6846 51.4163 40.6846 52.6368C40.7456 53.7962 41.4168 54.7725 42.2101 54.7725Z" fill="#2C2C2C"/>
<path d="M58.3195 54.4066C57.4652 54.4066 56.7939 53.4912 56.7939 52.2708C56.7939 51.1114 57.4652 50.135 58.3195 50.135C59.1738 50.135 59.8451 51.0503 59.8451 52.2708C59.784 53.4912 59.1128 54.4066 58.3195 54.4066Z" fill="#2C2C2C"/>
<path d="M42.088 45.1921C41.8439 45.1921 41.5998 45.1921 41.3557 45.2532C41.1117 45.3142 40.8065 45.3752 40.5625 45.4362C39.6471 45.6803 38.7928 46.2295 38.1826 46.9618C38.0605 47.0838 38.0605 47.2669 38.0605 47.45C38.0605 47.633 38.1826 47.7551 38.3046 47.8771C38.4267 47.9992 38.6097 47.9992 38.7928 47.9992C38.9759 47.9992 39.0979 47.8771 39.22 47.7551C39.22 47.7551 39.22 47.7551 39.281 47.6941C39.5251 47.45 39.7692 47.2669 40.0743 47.0838C40.3794 46.9008 40.7455 46.7787 41.1117 46.6567C41.4168 46.5957 41.7219 46.5346 42.027 46.5346C42.2711 46.5346 42.5762 46.5346 42.8203 46.5957C42.8813 46.5957 42.9423 46.6567 43.0033 46.6567C43.3085 46.7787 43.6746 46.6567 43.7966 46.2905C43.9187 45.9854 43.7966 45.5583 43.4305 45.4972C43.0033 45.2532 42.5762 45.1921 42.088 45.1921ZM41.1117 46.5957H41.0506C41.0506 46.5957 41.0506 46.5957 41.1117 46.5957ZM39.342 47.511L39.281 47.572C39.281 47.572 39.342 47.572 39.342 47.511Z" fill="#2C2C2C"/>
<path d="M58.0142 44.8259C58.2582 44.8259 58.5023 44.8259 58.7464 44.8869C58.9905 44.948 59.2956 45.009 59.5397 45.07C60.455 45.3141 61.3093 45.8633 61.9196 46.5956C62.0416 46.7176 62.0416 46.9007 62.0416 47.0837C62.0416 47.2668 61.9196 47.3889 61.7975 47.5109C61.6755 47.6329 61.4924 47.6329 61.3093 47.6329C61.1263 47.6329 61.0042 47.5109 60.8822 47.3888C60.8822 47.3888 60.8822 47.3888 60.8212 47.3278C60.5771 47.0837 60.333 46.9007 60.0279 46.7176C59.7228 46.5345 59.3566 46.4125 58.9905 46.2905C58.6854 46.2294 58.3803 46.1684 58.0752 46.1684C57.8311 46.1684 57.526 46.1684 57.2819 46.2294C57.2209 46.2294 57.1598 46.2905 57.0988 46.2905C56.7937 46.4125 56.4276 46.2905 56.3055 45.9243C56.1835 45.6192 56.3055 45.1921 56.6717 45.131C57.0988 44.948 57.526 44.8259 58.0142 44.8259ZM58.9905 46.2294H59.0515C59.0515 46.2905 58.9905 46.2294 58.9905 46.2294ZM60.6991 47.2058L60.7601 47.2668C60.7601 47.2668 60.7601 47.2058 60.6991 47.2058Z" fill="#2C2C2C"/>
<path d="M48.7393 17H48.5562C47.3358 17 46.0543 17.122 44.7119 17.4272C43.3694 17.7323 42.0269 18.1594 40.6844 18.7696C39.4029 19.3188 38.1825 20.0511 37.0841 20.9664C35.9857 21.8207 35.0704 22.7971 34.2771 23.9565C33.4838 25.0549 32.9346 26.3364 32.6295 27.6789C32.4464 28.3501 32.4464 29.0824 32.3854 29.8146C32.3854 30.1808 32.3244 30.6079 32.3244 30.9741H32.2633C31.8362 30.9741 31.409 31.0351 31.0429 31.0961C30.5547 31.2182 30.1276 31.3402 29.7004 31.5843C28.9681 32.0114 28.2969 32.6217 27.7477 33.476C27.2595 34.2082 26.9544 35.1236 26.7103 36.222C26.5273 37.1373 26.4052 38.2357 26.3442 39.3951C26.3442 40.3715 26.4052 41.3478 26.4662 42.3852C26.5883 43.3005 26.7103 44.2159 26.8934 45.1312C27.0765 45.9855 27.3205 46.7788 27.6257 47.6331C28.2969 49.4027 28.9681 50.6842 29.8835 51.7216C29.7004 51.9657 29.4563 52.2708 29.2733 52.5759C29.0292 53.0031 28.7851 53.4912 28.663 54.0404C28.3579 55.1388 28.4189 56.2372 28.7851 57.1526C28.8461 57.3356 28.9681 57.5797 29.0902 57.7628C29.2122 57.9458 29.3343 58.1289 29.4563 58.312C29.8225 58.7391 30.2496 59.1053 30.7988 59.4714C31.348 59.7765 31.9582 60.0206 32.6295 60.1426C32.8736 60.2037 33.1787 60.2037 33.4838 60.2037C33.7889 60.2037 34.094 60.2037 34.4601 60.1426C34.4601 60.4477 34.4601 60.6919 34.5212 60.997C34.5822 61.9123 34.7652 62.7056 34.9483 63.4378C35.0704 63.804 35.1924 64.1091 35.3755 64.4752C35.4975 64.7803 35.7416 65.0854 35.9857 65.5126C36.718 66.55 37.7553 67.5263 38.9758 68.3196C40.0742 69.0519 41.2946 69.6011 42.8202 70.0282C43.3083 70.1503 43.7965 70.3333 44.2847 70.3944C44.2847 70.9436 44.2847 71.4928 44.2237 72.103C44.1016 72.9573 43.8575 73.8116 43.5524 74.6049C43.4914 74.6049 43.4914 74.6049 43.4304 74.6049C43.3694 74.6049 43.2473 74.6049 43.1863 74.6049C43.1253 74.6049 43.0643 74.5439 43.0032 74.5439C42.9422 74.5439 42.8812 74.5439 42.8202 74.6049C42.6371 74.788 42.454 74.91 42.332 75.0931C42.2099 75.2761 42.1489 75.5202 42.0879 75.7643C42.0879 75.8863 42.0879 75.9474 42.0269 76.0694C42.0269 76.1915 42.0269 76.3135 42.0269 76.4356C41.7218 76.4356 41.4167 76.5576 41.1726 76.6186C40.8064 76.7407 40.3793 76.9237 39.9521 77.1678C39.586 77.4119 39.2199 77.717 38.9758 78.0221C38.8537 78.1442 38.7927 78.3272 38.6707 78.5103C38.6096 78.6323 38.6096 78.8154 38.5486 78.9375C38.4876 78.9985 38.4876 78.9985 38.4876 79.0595C38.1215 79.1815 37.7553 79.3036 37.3892 79.4256C36.962 79.5477 36.4739 79.7308 36.0467 79.8528L35.0093 80.1579C33.6058 80.5851 32.0193 81.1343 30.4327 81.8665C28.9071 82.5988 27.5036 83.4531 26.2832 84.5515C25.0627 85.5889 23.9643 86.9314 23.049 88.4569C22.2557 89.7994 21.5845 91.2639 20.9742 93.0336C20.4861 94.4981 20.1199 96.1457 19.8148 97.9764C19.5097 99.746 19.3877 101.516 19.2046 103.407C19.0215 105.421 18.8995 107.496 18.8385 109.51C18.6554 113.476 18.6554 117.381 18.8385 121.104H19.4487C19.5707 117.564 19.5707 113.903 19.6928 110.181C19.7538 108.35 19.8758 106.397 19.9979 104.445C20.0589 103.468 20.181 102.492 20.242 101.577C20.303 100.661 20.425 99.8681 20.4861 99.0748C20.9132 96.0847 21.5234 93.5217 22.4998 91.2639C23.171 89.6773 23.9643 88.2738 24.9407 87.0534C25.795 86.016 26.7103 85.0397 27.7477 84.2464C28.2969 83.8192 28.9681 83.3921 29.5784 83.0259C30.1886 82.6598 30.8598 82.3547 31.6531 81.9886C33.1177 81.3783 34.5822 80.9512 36.2298 80.402C37.0231 80.1579 37.8164 79.9138 38.6096 79.6697C38.8537 79.6087 39.0368 79.5477 39.2199 79.4867C39.525 79.5477 39.8911 79.6697 40.1962 79.7307C41.1726 79.9748 42.2099 80.1579 43.2473 80.2799H43.3083C44.6508 80.463 46.1154 80.5851 47.5189 80.7071C48.2511 80.7681 48.9224 80.7681 49.6546 80.7681C49.8987 80.7681 50.1428 80.7681 50.3869 80.7681C51.4853 80.7681 52.6447 80.7071 53.7431 80.6461C54.6585 80.5851 55.5128 80.524 56.3671 80.402H56.4281H56.4891C57.0993 80.341 57.6486 80.2189 58.1978 80.1579C58.6859 80.0969 59.1131 79.9748 59.4792 79.9138C59.8453 79.8528 60.2115 79.7918 60.5166 79.6697L60.6997 79.6087L61.0048 79.7307L61.3709 79.8528C62.1642 80.0969 62.9575 80.341 63.7508 80.5851C65.3984 81.0732 66.8629 81.5614 68.3274 82.1716C69.1207 82.4767 69.792 82.8429 70.4022 83.209C71.0734 83.5751 71.6836 84.0023 72.2328 84.4295C73.2702 85.2227 74.1855 86.1381 75.0399 87.2365C75.9552 88.4569 76.8095 89.9214 77.4807 91.447C78.4571 93.7048 79.0673 96.2677 79.4945 99.2578C79.6165 100.051 79.6775 100.844 79.7386 101.76C79.7996 102.736 79.9216 103.712 79.9827 104.628C80.1047 106.58 80.2267 108.533 80.2878 110.364C80.4098 114.025 80.4098 117.625 80.2267 120.982H80.837C81.02 117.32 81.02 113.476 80.837 109.571C80.7759 107.557 80.6539 105.543 80.4708 103.468C80.2878 101.516 80.1657 99.746 79.8606 98.0374C79.5555 96.2067 79.1894 94.5591 78.7012 93.0946C78.091 91.3249 77.4197 89.8604 76.6264 88.5179C75.7111 86.9924 74.6127 85.6499 73.3923 84.6125C72.1718 83.5751 70.7683 82.6598 69.2428 81.9275C67.7172 81.1953 66.0696 80.6461 64.6661 80.2189L63.6287 79.9138C63.2016 79.7918 62.7134 79.6087 62.2862 79.4867C61.9201 79.3646 61.615 79.3036 61.3099 79.1815V79.1205C61.3099 78.9985 61.3099 78.9375 61.3099 78.9375C61.1878 78.5713 61.0048 78.2662 60.8217 77.9611C60.5776 77.656 60.3335 77.3509 59.9674 77.0458C59.3572 76.5576 58.6859 76.1915 58.0147 76.0084C58.0147 75.8253 57.9537 75.7033 57.8926 75.5202C57.7096 75.032 57.4045 74.6049 57.1604 74.3608C57.0993 74.2998 56.9773 74.2388 56.9163 74.2388C56.8553 74.2388 56.8553 74.2388 56.7942 74.2388C56.7942 74.2388 56.7332 74.2388 56.6722 74.2388C56.6722 74.2388 56.6112 74.2388 56.5501 74.2388H56.4891H56.4281H56.245H56.123C55.8789 73.5675 55.6958 72.8352 55.5738 72.103C55.5128 71.4317 55.4518 70.8215 55.5128 70.2113C56.9773 69.9062 58.3198 69.479 59.6013 68.9908C61.1268 68.3806 62.4083 67.6484 63.4457 66.7941C63.6897 66.611 63.9338 66.3669 64.1779 66.1228C64.422 65.8787 64.6661 65.5126 64.9102 65.1465C65.0933 64.8413 65.2153 64.5362 65.3984 64.1091C65.5204 63.7429 65.6424 63.3768 65.7645 62.8886C65.8865 62.3394 65.9476 61.7902 66.0086 61.3021C66.0696 60.8139 66.1306 60.3867 66.1306 59.8986C66.1306 59.8986 66.1917 59.8986 66.1917 59.9596C66.5578 60.0206 66.9239 60.0816 67.29 60.0816C67.5952 60.0816 67.8392 60.0816 68.1444 60.0206C68.8156 59.8986 69.4258 59.7155 69.975 59.3494C70.5242 59.0442 71.0124 58.6171 71.3175 58.1899C71.4396 58.0069 71.6226 57.8238 71.6836 57.6407C71.8057 57.4577 71.8667 57.2746 71.9888 57.0305C72.3549 56.1152 72.4159 54.9558 72.1108 53.9184C71.9888 53.3692 71.7447 52.881 71.5006 52.4539C71.2565 51.9657 70.9514 51.5385 70.5852 51.2334C70.4632 51.1114 70.2801 50.9893 70.1581 50.8673C70.6463 50.135 70.9514 49.2807 71.2565 48.5484C71.5616 47.8162 71.8057 47.0229 71.9888 46.1686C72.4159 44.582 72.66 42.8734 72.782 41.1648C72.9041 39.4561 72.782 37.7475 72.538 36.0999C72.2939 34.4523 71.8057 32.8658 71.1955 31.3402C71.0124 30.913 70.7683 30.4249 70.5242 29.9977C70.8293 29.5095 71.0734 29.0214 71.3175 28.4722C72.1108 26.7025 72.538 25.1159 72.538 23.5904C72.538 23.1022 72.4769 22.6751 72.4159 22.2479C72.3549 21.9428 72.2328 21.6377 72.0498 21.4546C71.8667 21.2105 71.6836 21.0275 71.4396 20.9054C71.1955 20.7834 70.9514 20.6613 70.5852 20.6003C70.2191 20.5393 69.853 20.4783 69.4258 20.4783C69.1207 20.4783 68.8156 20.4783 68.5715 20.5393C68.0223 20.6003 67.4121 20.6613 66.8629 20.7223L66.4357 20.7834C66.0696 20.8444 65.6424 20.9054 65.2763 20.9054C65.2153 20.9054 65.0933 20.9054 65.0322 20.9054C64.8492 20.9054 64.6661 20.9054 64.422 20.9054C64.0559 20.9054 63.6897 20.8444 63.3236 20.7834C61.0658 20.4783 58.93 19.685 56.9163 18.8917C55.8179 18.4645 54.7195 18.0984 53.6211 17.7323C51.9125 17.2441 50.3259 17 48.7393 17ZM37.2672 42.3242C37.5112 40.5545 37.8164 38.7239 38.2435 36.7712C42.2099 38.0526 45.8103 38.7849 49.2275 39.09C50.1428 39.151 51.1192 39.2121 52.0345 39.2121C53.0109 39.2121 53.9872 39.151 54.9636 39.09C56.8553 38.9069 58.7469 38.5408 60.5166 37.9306C61.4319 37.6255 62.2862 37.3204 63.0795 36.9542C63.5067 38.9069 63.8118 40.6766 64.0559 42.3852C64.3 44.0328 64.422 45.6194 64.483 47.1449C64.544 47.9382 64.544 48.7925 64.544 49.7079C64.544 50.2571 64.5441 50.8063 64.6051 51.2944L64.6661 52.0267C64.7881 54.2235 64.8492 56.4813 64.544 58.7391C64.361 59.8986 64.1169 60.9359 63.7508 61.7902C63.5067 62.4005 63.2016 62.8886 62.8354 63.3768C62.6524 63.6209 62.4083 63.865 62.1642 64.1091C61.8591 64.3532 61.554 64.4752 61.2489 64.6583C60.8827 64.7803 60.5166 64.9024 60.0894 64.9634C59.7843 65.0244 59.6013 65.0244 59.3572 65.0244C59.0521 65.0244 58.7469 65.0244 58.3808 64.9634C57.5875 64.8414 56.7942 64.5973 56.0009 64.2922C55.1466 63.926 54.3534 63.4378 53.6211 62.8886C53.377 62.7056 53.0109 62.4005 52.6447 62.0343C52.5837 61.9733 52.5227 61.9733 52.4617 61.9733C52.4617 61.9733 52.4006 61.9123 52.3396 61.9123C51.6074 61.7292 50.9971 61.6682 50.3869 61.6682C49.8987 61.6682 49.4106 61.7292 48.9834 61.8513C48.9224 61.8513 48.9224 61.8513 48.8614 61.9123C48.8003 61.9123 48.7393 61.9733 48.7393 61.9733C48.4342 62.2784 48.1291 62.5835 47.824 62.8276C47.824 62.8276 47.824 62.8276 47.763 62.8886C47.0917 63.3768 46.2984 63.865 45.4441 64.2311C44.6508 64.5362 43.8575 64.7803 43.0643 64.9024H43.0032C42.6981 64.9024 42.393 64.9634 42.0879 64.9634C41.8438 64.9634 41.5997 64.9634 41.4167 64.9024C40.9895 64.8414 40.5623 64.7193 40.1962 64.5973C39.8911 64.4752 39.586 64.2922 39.2809 64.0481C39.0368 63.865 38.7927 63.6209 38.6096 63.3158C38.2435 62.8276 37.9384 62.3394 37.6943 61.7292C37.3282 60.8749 37.0841 59.8375 36.901 58.6781C36.5959 56.4203 36.718 54.1014 36.779 51.9046V51.1724C36.779 50.6232 36.84 50.074 36.84 49.5858C36.84 48.6705 36.901 47.8162 36.901 47.0229C36.901 45.5583 37.0231 43.9718 37.2672 42.3242ZM31.1649 51.3555C31.409 51.1724 31.6531 51.0504 31.8972 50.9283C32.1413 50.8063 32.3854 50.7452 32.5685 50.7452C32.6295 50.7452 32.7515 50.7452 32.8125 50.7452C32.9346 50.7452 32.9956 50.7452 33.1177 50.7452C33.3007 50.7452 33.4838 50.8063 33.6669 50.8673C33.8499 50.9283 33.972 51.0504 34.155 51.1724C34.3381 51.3555 34.5212 51.5385 34.7042 51.7216C34.7042 52.0877 34.6432 52.5149 34.6432 52.942V53.0031V53.0641C34.5212 52.942 34.4601 52.82 34.3381 52.759C34.033 52.5149 33.6668 52.3318 33.3007 52.2098C33.0566 52.1487 32.8125 52.0877 32.5074 52.0877C32.3854 52.0877 32.2633 52.0877 32.1413 52.0877C31.7141 52.1488 31.287 52.3318 30.9209 52.5759C30.8598 52.6369 30.7988 52.698 30.7988 52.759C30.7988 52.82 30.7988 52.942 30.8598 53.0031C30.9209 53.1251 31.0429 53.1861 31.1649 53.1861C31.226 53.1861 31.287 53.1861 31.287 53.1251C31.4701 53.003 31.5921 52.881 31.7752 52.82C31.9582 52.759 32.0803 52.6979 32.2633 52.6979C32.3244 52.6979 32.4464 52.6979 32.5074 52.6979C32.6295 52.6979 32.6905 52.6979 32.8125 52.6979C32.9956 52.759 33.1787 52.759 33.3617 52.881C33.5448 52.942 33.7279 53.0641 33.9109 53.1861C34.094 53.3082 34.2771 53.4912 34.3991 53.6743C34.4601 53.7963 34.5212 53.8574 34.6432 53.9794L34.7042 54.0404C34.7042 54.1625 34.7042 54.2235 34.7042 54.3455C34.7042 54.7117 34.7042 55.1388 34.7042 55.505V55.8711C34.7042 56.4203 34.7042 56.9085 34.6432 57.4577C34.6432 58.0679 34.5822 58.7391 34.5822 59.3494C34.5212 59.3494 34.4601 59.3494 34.3991 59.3494H34.3381C34.155 59.3494 33.9109 59.4104 33.7279 59.4104C33.5448 59.4104 33.3007 59.4104 33.1177 59.3494C32.6905 59.2883 32.2633 59.1663 31.8972 59.0442C31.5311 58.8612 31.1649 58.6781 30.8598 58.434C30.5547 58.1899 30.3106 57.9458 30.1276 57.7018C29.9445 57.3966 29.7614 57.1526 29.6394 56.9085C29.5173 56.6034 29.3953 56.2372 29.3953 55.8711C29.3343 55.505 29.3343 55.0778 29.3953 54.7117C29.4563 54.2845 29.5784 53.7963 29.7614 53.3692C29.9445 52.942 30.1886 52.5149 30.4937 52.0877C30.5547 51.8436 30.8598 51.5995 31.1649 51.3555ZM66.8629 51.2334C67.046 51.1114 67.168 50.9893 67.3511 50.9283C67.5341 50.8673 67.7172 50.8063 67.9003 50.8063C68.0223 50.8063 68.0833 50.8063 68.2054 50.8063C68.2664 50.8063 68.3884 50.8063 68.4495 50.8063C68.6936 50.8673 68.9376 50.9283 69.1207 50.9893C69.4258 51.1114 69.6699 51.2944 69.853 51.4165L69.792 51.3555C70.0971 51.5995 70.4022 51.9046 70.6463 52.2098C70.9514 52.6369 71.1955 53.0641 71.3785 53.4912C71.5616 53.9184 71.6836 54.4066 71.7447 54.8337C71.8057 55.1999 71.8057 55.627 71.7447 55.9931C71.6836 56.3593 71.6226 56.7254 71.5006 57.0305C71.3785 57.2746 71.2565 57.5797 71.0124 57.8238C70.7683 58.1289 70.5242 58.373 70.2191 58.5561C69.853 58.8002 69.5479 58.9832 69.1817 59.1663C68.7546 59.3494 68.3884 59.4104 67.9613 59.4714C67.7782 59.4714 67.5341 59.5324 67.3511 59.5324C67.107 59.5324 66.9239 59.5324 66.6798 59.4714L66.4968 59.4104C66.4357 59.4104 66.3747 59.4104 66.3747 59.4104C66.3137 59.4104 66.3137 59.4104 66.2527 59.4104C66.3747 58.1899 66.3747 56.8474 66.4357 55.2609C66.4357 54.8337 66.4357 54.4066 66.4357 53.9794C66.4968 53.8574 66.5578 53.7963 66.6188 53.6743C66.7408 53.4912 66.9239 53.3082 67.107 53.1861C67.29 53.0641 67.4731 52.942 67.6562 52.881C67.8392 52.82 68.0223 52.759 68.2054 52.6979C68.3274 52.6979 68.3884 52.6979 68.5105 52.6979C68.5715 52.6979 68.6936 52.6979 68.7546 52.6979C68.9376 52.6979 69.0597 52.759 69.2428 52.82C69.4258 52.881 69.6089 53.003 69.7309 53.1251C69.792 53.1861 69.853 53.1861 69.853 53.1861C69.975 53.1861 70.0971 53.1251 70.1581 53.0031C70.2191 52.942 70.2191 52.82 70.2191 52.759C70.2191 52.698 70.1581 52.6369 70.0971 52.5759C69.7309 52.2708 69.3038 52.1488 68.8766 52.0877C68.7546 52.0877 68.6325 52.0877 68.5105 52.0877C68.2054 52.0877 67.9613 52.1487 67.7172 52.2098C67.3511 52.3318 66.9849 52.5149 66.6798 52.759C66.6188 52.82 66.4968 52.881 66.4357 53.0031C66.4357 52.5149 66.4357 52.0267 66.4357 51.5385C66.6188 51.4775 66.7408 51.3555 66.8629 51.2334ZM50.0208 70.9436C50.4479 70.9436 50.8751 70.9436 51.3633 70.9436C52.5837 70.8825 53.8652 70.7605 55.1466 70.5164C55.0856 71.1876 55.1466 71.8589 55.2077 72.5301C55.3297 73.2624 55.5128 73.8726 55.6958 74.4828H55.4518C54.9636 74.5439 54.5364 74.6049 54.1093 74.6049H53.9262H53.8042C53.316 74.6659 52.8888 74.6659 52.5227 74.7269C51.4243 74.788 50.3259 74.849 49.2275 74.849C48.8614 74.849 48.5563 74.849 48.1901 74.849H48.1291H48.0681H48.007C47.4579 74.849 46.9087 74.7879 46.3595 74.7879C46.2984 74.7879 46.2374 74.7879 46.1764 74.7879C45.8103 74.7879 45.4441 74.7269 45.139 74.7269H44.9559H44.8339C44.6508 74.7269 44.4678 74.6659 44.2847 74.6659C44.3457 74.5439 44.4067 74.4218 44.4067 74.2998C44.6508 73.6896 44.8339 73.0183 44.8949 72.2861C45.017 71.6758 45.017 71.0656 45.017 70.4554C45.6882 70.5774 46.4205 70.6995 47.1527 70.7605C48.0681 70.8825 49.0444 70.9436 50.0208 70.9436ZM49.2275 75.5202C50.3259 75.5202 51.4243 75.4592 52.4617 75.3982C52.9498 75.3982 53.438 75.3372 53.9262 75.2761H54.1093H54.2313C54.6585 75.2151 55.0246 75.2151 55.3907 75.1541H55.5738H55.7569C56.123 75.0931 56.4281 75.0321 56.7332 75.0321H56.7942H56.8553L56.9773 75.0931C57.1604 75.3371 57.2824 75.5202 57.3434 75.7643C57.4045 75.8863 57.4655 76.0694 57.4655 76.1915C57.4655 76.2525 57.4655 76.3745 57.4655 76.4356C57.4655 76.4966 57.4045 76.6186 57.4045 76.6796C57.4045 76.7407 57.3434 76.8017 57.2824 76.8627C57.2214 76.9237 57.1604 76.9848 57.0993 77.0458C56.9773 77.1068 56.8553 77.1678 56.7332 77.2288C56.5502 77.2899 56.3671 77.3509 56.123 77.4119C56.062 77.4119 55.9399 77.4729 55.9399 77.5339C55.8789 77.595 55.8789 77.717 55.8789 77.778C55.8789 77.8391 55.9399 77.9001 56.0009 77.9611C56.062 77.9611 56.123 78.0221 56.184 78.0221C56.184 78.0221 56.245 78.0221 56.3061 78.0221C56.7942 77.9611 57.1604 77.778 57.4655 77.595C57.7096 77.4119 57.8926 77.1678 58.0147 76.8627C58.1978 76.9237 58.3808 76.9848 58.5639 77.0458C58.869 77.1678 59.1741 77.3509 59.4792 77.595C59.7843 77.8391 60.0284 78.0832 60.2725 78.3883C60.4556 78.6324 60.5776 78.8764 60.6997 79.1205L60.7607 79.1815H60.6997H60.6386H60.5776H60.5166L60.3945 79.2426C60.0284 79.3036 59.7233 79.3646 59.4182 79.4256C58.991 79.4867 58.6249 79.6087 58.1978 79.6697C57.7706 79.7307 57.3434 79.7918 56.9163 79.8528H56.6722H56.4281C55.5128 79.9748 54.5974 80.0359 53.7431 80.0969C52.5837 80.1579 51.4243 80.2189 50.2649 80.2189C50.0208 80.2189 49.7767 80.2189 49.4716 80.2189C48.8003 80.2189 48.1901 80.1579 47.5189 80.1579C46.1764 80.0969 44.9559 79.9748 43.7355 79.7918L43.4914 79.7307H43.3694C42.332 79.5477 41.2946 79.3646 40.3183 79.1815C39.9521 79.1205 39.647 78.9985 39.2809 78.9375C39.2809 78.8764 39.2809 78.8764 39.3419 78.8154C39.4029 78.6934 39.464 78.5713 39.525 78.4493C39.647 78.2662 39.8301 78.1442 39.9521 77.9611C40.1962 77.778 40.5013 77.595 40.8064 77.4119L40.8675 77.3509C41.1726 77.2288 41.4777 77.1068 41.7828 77.0458C41.9048 77.0458 42.0269 76.9847 42.1489 76.9847H42.271C42.393 77.1678 42.5151 77.2899 42.6981 77.4119C42.8812 77.534 43.0643 77.595 43.2473 77.656C43.6135 77.778 43.9796 77.8391 44.4678 77.8391C44.5898 77.8391 44.6508 77.778 44.7119 77.717C44.7729 77.656 44.8339 77.534 44.7729 77.4729C44.7729 77.2899 44.5898 77.1678 44.4067 77.1678H44.2847C44.1627 77.1678 44.1016 77.1678 43.9796 77.1678C43.6745 77.1678 43.4914 77.1068 43.2473 77.0458C43.1253 76.9848 43.0032 76.9237 42.8812 76.8627C42.8202 76.8017 42.7591 76.7407 42.6981 76.6796C42.6371 76.6186 42.6371 76.5576 42.5761 76.4966C42.5151 76.4356 42.5151 76.3135 42.5151 76.2525C42.5151 76.1915 42.5151 76.0694 42.5151 76.0084C42.5151 75.8863 42.5761 75.7643 42.5761 75.6423C42.6371 75.5202 42.6371 75.4592 42.6981 75.3372C42.7591 75.2761 42.8202 75.2151 42.8812 75.1541C43.0643 75.1541 43.1863 75.2151 43.3694 75.2151H43.4304C43.7965 75.2761 44.2237 75.2761 44.5898 75.3372H44.6508C45.078 75.3982 45.4441 75.3982 45.8713 75.3982C45.9933 75.3982 46.0543 75.3982 46.1764 75.3982C46.6646 75.3982 47.0917 75.4592 47.5799 75.4592H47.824H48.007C48.6173 75.5202 48.9224 75.5202 49.2275 75.5202Z" fill="#2C2C2C"/>
<path d="M52.462 57.2136C52.1569 57.2136 51.8518 57.2136 51.5466 57.2746C51.1195 57.3357 50.6923 57.4577 50.2652 57.6408C50.2042 57.6408 50.2042 57.6408 50.2042 57.7018C49.777 57.5187 49.3498 57.3967 48.9227 57.3357C48.6176 57.2747 48.3125 57.2746 48.0074 57.2746C47.8853 57.2746 47.7633 57.2746 47.6412 57.2746C46.8479 57.3357 46.0546 57.5187 45.2003 57.9459C44.5291 58.251 43.7968 58.7392 43.1256 59.3494C42.5154 59.8986 41.9051 60.5088 41.3559 61.2411C41.2949 61.3021 41.2949 61.3631 41.2949 61.4852C41.2949 61.6072 41.3559 61.6682 41.478 61.7293C41.8441 61.9123 42.2103 62.0344 42.6984 62.0344C42.9425 62.0344 43.1866 62.0344 43.4307 61.9733C44.346 61.7903 45.1393 61.4241 45.8106 61.1801C46.4208 60.875 47.031 60.5698 47.7022 60.2037C48.1904 59.8986 48.6176 59.6545 49.0447 59.3494C49.4109 59.1053 49.777 58.8002 50.2042 58.4341C50.5703 58.7392 50.9364 59.0443 51.3026 59.3494C51.4246 59.4104 51.5466 59.5325 51.6687 59.5935C51.6687 59.6545 51.6077 59.7155 51.6077 59.7766C51.5466 59.8986 51.4856 59.9596 51.4246 60.0206C51.3026 60.1427 51.1805 60.2647 51.0585 60.3258C50.9364 60.3868 50.8144 60.4478 50.6923 60.5088C50.5093 60.5698 50.3872 60.5698 50.2652 60.5698C50.1431 60.5698 50.0211 60.5698 49.9601 60.5698C49.899 60.5698 49.777 60.5088 49.716 60.5088C49.655 60.4478 49.5939 60.4478 49.5329 60.3868C49.4719 60.3258 49.4109 60.2647 49.3498 60.2037C49.2888 60.1427 49.2278 60.0206 49.2278 59.9596C49.1668 59.8376 49.0447 59.7766 48.9227 59.7766C48.8617 59.7766 48.8006 59.7765 48.8006 59.8376C48.6176 59.8986 48.5566 60.0817 48.6786 60.2647C48.7396 60.4478 48.8617 60.6309 49.0447 60.8139C49.1668 60.936 49.3498 61.058 49.5329 61.1801C49.777 61.3021 50.0211 61.3631 50.3262 61.3631C50.4482 61.3631 50.5703 61.3631 50.6923 61.3631C50.8754 61.3631 51.0585 61.3021 51.2415 61.1801C51.4246 61.119 51.6077 60.997 51.7297 60.875C51.8518 60.7529 51.9738 60.6309 52.1569 60.4478C52.2179 60.3257 52.3399 60.2037 52.3399 60.0206C52.462 60.1427 52.645 60.2037 52.7671 60.2647C53.4383 60.6309 53.9875 60.936 54.6588 61.2411C55.269 61.5462 56.1233 61.9123 57.0386 62.0344C57.2827 62.0954 57.5268 62.0954 57.7709 62.0954C58.2591 62.0954 58.6862 61.9733 58.9913 61.7903C59.1134 61.7293 59.1744 61.6072 59.1744 61.5462C59.1744 61.4852 59.1744 61.3631 59.1134 61.3021C58.5642 60.5698 57.954 59.8986 57.3437 59.4104C56.6725 58.8002 55.9402 58.373 55.269 58.0069C54.4147 57.5797 53.6214 57.3967 52.8281 57.3357C52.7061 57.2136 52.584 57.2136 52.462 57.2136Z" fill="#2C2C2C"/>
</g>
</svg>
