<svg width="14" height="17" viewBox="0 0 14 17" fill="none" xmlns="http://www.w3.org/2000/svg">
<path d="M0.210938 10.6008C0.210938 7.82745 0.507409 5.72269 1.10035 4.2865C1.69329 2.80078 2.80506 1.66173 4.43565 0.869354L5.62153 2.13221C4.38623 2.97412 3.57094 3.91507 3.17565 4.95507C2.78035 5.94555 2.5827 7.45602 2.5827 9.4865H5.02859L5.02859 16.1722H0.210938L0.210938 10.6008ZM8.438 10.6008C8.438 7.82745 8.73447 5.72269 9.32741 4.2865C9.92035 2.80078 11.0321 1.66173 12.6627 0.869355L13.8486 2.13221C12.6133 2.97412 11.798 3.91507 11.4027 4.95507C11.0074 5.94555 10.8098 7.45602 10.8098 9.4865L13.2556 9.4865V16.1722L8.438 16.1722L8.438 10.6008Z" fill="#76CE33" fill-opacity="0.1"/>
</svg>
