<svg width="79" height="89" viewBox="0 0 79 89" fill="none" xmlns="http://www.w3.org/2000/svg">
<path d="M78.0241 32.5551C78.0241 48.4027 76.33 60.4299 72.9418 68.6367C69.5536 77.1265 63.2006 83.6353 53.883 88.1632L47.1065 80.9469C54.1653 76.136 58.8241 70.7591 61.083 64.8163C63.3418 59.1564 64.4712 50.5251 64.4712 38.9224H50.4947V0.718312L78.0241 0.718314V32.5551ZM31.0124 32.5551C31.0124 48.4027 29.3183 60.4299 25.93 68.6367C22.5418 77.1265 16.1888 83.6353 6.8712 88.1632L0.0947266 80.9469C7.15355 76.136 11.8124 70.7591 14.0712 64.8163C16.33 59.1564 17.4594 50.5251 17.4594 38.9224H3.48297L3.48297 0.718307L31.0124 0.71831L31.0124 32.5551Z" fill="#76CE33" fill-opacity="0.1"/>
</svg>
