<svg width="390" height="223" viewBox="0 0 390 223" fill="none" xmlns="http://www.w3.org/2000/svg">
<rect width="382.2" height="210.43" transform="matrix(0.999536 0.030451 -0.0303135 0.99954 7.17773 0.0139847)" fill="#74D373"/>
<rect x="6" y="6.99997" width="378" height="208" fill="#324332"/>
<path d="M22.2109 91.6008C22.2109 88.8274 22.5074 86.7227 23.1004 85.2865C23.6933 83.8008 24.8051 82.6617 26.4356 81.8694L27.6215 83.1322C26.3862 83.9741 25.5709 84.9151 25.1756 85.9551C24.7804 86.9455 24.5827 88.456 24.5827 90.4865H27.0286L27.0286 97.1722H22.2109L22.2109 91.6008ZM30.438 91.6008C30.438 88.8275 30.7345 86.7227 31.3274 85.2865C31.9204 83.8008 33.0321 82.6617 34.6627 81.8694L35.8486 83.1322C34.6133 83.9741 33.798 84.9151 33.4027 85.9551C33.0074 86.9455 32.8098 88.456 32.8098 90.4865L35.2556 90.4865V97.1722L30.438 97.1722L30.438 91.6008Z" fill="#76CE33" fill-opacity="0.1"/>
<path d="M383.905 178.193C383.905 190.734 382.429 200.251 379.477 206.745C376.524 213.463 370.989 218.614 362.869 222.197L356.965 216.486C363.115 212.679 367.175 208.425 369.143 203.722C371.112 199.243 372.096 192.413 372.096 183.232H359.917V153L383.905 153V178.193ZM342.941 178.193C342.941 190.734 341.464 200.251 338.512 206.745C335.56 213.463 330.024 218.614 321.905 222.197L316 216.486C322.151 212.679 326.21 208.425 328.179 203.722C330.147 199.243 331.131 192.413 331.131 183.232H318.952L318.952 153L342.941 153L342.941 178.193Z" fill="#76CE33" fill-opacity="0.1"/>
</svg>
