<svg width="390" height="236" viewBox="0 0 390 236" fill="none" xmlns="http://www.w3.org/2000/svg">
<rect width="382.2" height="210.43" transform="matrix(0.999536 0.030451 -0.0303135 0.99954 7.17773 0.0139847)" fill="#74D373"/>
<rect x="6" y="6.99997" width="378" height="208" fill="#324332"/>
<path d="M22.2109 91.6008C22.2109 88.8274 22.5074 86.7227 23.1004 85.2865C23.6933 83.8008 24.8051 82.6617 26.4356 81.8694L27.6215 83.1322C26.3862 83.9741 25.5709 84.9151 25.1756 85.9551C24.7804 86.9455 24.5827 88.456 24.5827 90.4865H27.0286L27.0286 97.1722H22.2109L22.2109 91.6008ZM30.438 91.6008C30.438 88.8275 30.7345 86.7227 31.3274 85.2865C31.9204 83.8008 33.0321 82.6617 34.6627 81.8694L35.8486 83.1322C34.6133 83.9741 33.798 84.9151 33.4027 85.9551C33.0074 86.9455 32.8098 88.456 32.8098 90.4865L35.2556 90.4865V97.1722L30.438 97.1722L30.438 91.6008Z" fill="#76CE33" fill-opacity="0.1"/>
<path d="M388.024 179.555C388.024 195.403 386.33 207.43 382.942 215.637C379.554 224.126 373.201 230.635 363.883 235.163L357.106 227.947C364.165 223.136 368.824 217.759 371.083 211.816C373.342 206.156 374.471 197.525 374.471 185.922H360.495V147.718L388.024 147.718V179.555ZM341.012 179.555C341.012 195.403 339.318 207.43 335.93 215.637C332.542 224.126 326.189 230.635 316.871 235.163L310.095 227.947C317.154 223.136 321.812 217.759 324.071 211.816C326.33 206.156 327.459 197.525 327.459 185.922H313.483L313.483 147.718L341.012 147.718L341.012 179.555Z" fill="#76CE33" fill-opacity="0.1"/>
</svg>
